<svg xmlns="http://www.w3.org/2000/svg" version="1.1" xmlns:xlink="http://www.w3.org/1999/xlink" xmlns:svgjs="http://svgjs.dev/svgjs" width="1500" height="492" viewBox="0 0 1500 492"><g transform="matrix(1,0,0,1,-0.9090909090911055,-37.45474156848303)"><svg viewBox="0 0 396 130" data-background-color="#ffffff" preserveAspectRatio="xMidYMid meet" height="492" width="1500" xmlns="http://www.w3.org/2000/svg" xmlns:xlink="http://www.w3.org/1999/xlink"><g id="tight-bounds" transform="matrix(1,0,0,1,0.24000000000003752,9.896578056712997)"><svg viewBox="0 0 395.5199999999999 110.22298904389694" height="110.22298904389694" width="395.5199999999999"><g><svg viewBox="0 0 573.8689143425864 159.92502795867705" height="110.22298904389694" width="395.5199999999999"><g transform="matrix(1,0,0,1,178.34891434258643,23.23702805432326)"><svg viewBox="0 0 395.52 113.45097185003053" height="113.45097185003053" width="395.52"><g id="textblocktransform"><svg viewBox="0 0 395.52 113.45097185003053" height="113.45097185003053" width="395.52" id="textblock"><g><svg viewBox="0 0 395.52 78.04218295764657" height="78.04218295764657" width="395.52"><g transform="matrix(1,0,0,1,0,0)"><svg width="395.52" viewBox="0.4833333333333334 -36.3203125 194.97751773024373 38.47626488095238" height="78.04218295764657" data-palette-color="#ffffff"><g class="wordmark-text-0" data-fill-palette-color="primary" id="text-0"><path d="M13.05-9.65L13.05-9.65Q14.65-8.2 16.05-6.58 17.45-4.95 18.75-3.2L18.75-3.2Q18.8-3.1 19.03-2.83 19.25-2.55 19.15-2.45L19.15-2.45Q19.1-2.4 18.78-2.53 18.45-2.65 18.35-2.75L18.35-2.75Q17.95-3 17.43-3.4 16.9-3.8 16.32-4.25 15.75-4.7 15.2-5.18 14.65-5.65 14.3-6.05L14.3-6.05Q14.05-6.25 13.1-7.08 12.15-7.9 10.95-8.85 9.75-9.8 8.5-10.6 7.25-11.4 6.45-11.6L6.45-11.6Q6.3-11.65 6.03-11.75 5.75-11.85 5.8-12.1L5.8-12.1Q6.2-14 6.8-15.8 7.4-17.6 7.95-19.5L7.95-19.5Q8.65-21.85 9.28-24.3 9.9-26.75 10-29.6L10-29.6Q10-29.85 10.05-29.85L10.05-29.85Q10.2-29.85 10.3-29.5L10.3-29.5Q10.9-28.15 10.8-26 10.7-23.85 10.28-21.53 9.85-19.2 9.22-17.07 8.6-14.95 8.15-13.7L8.15-13.7 8-13.3Q9.85-14.55 11.85-15.8 13.85-17.05 15.58-18.32 17.3-19.6 18.57-20.98 19.85-22.35 20.3-23.85L20.3-23.85Q20.6-24.85 20.23-25.85 19.85-26.85 18.93-27.73 18-28.6 16.6-29.25 15.2-29.9 13.5-30.15L13.5-30.15Q11.25-30.45 8.95-30.3L8.95-30.3Q9.15-28.8 9.03-27.28 8.9-25.75 8.65-24.65L8.65-24.65Q8-21.95 7-19.07 6-16.2 4.95-13.7L4.95-13.7Q4.85-13.55 4.65-13.2 4.45-12.85 4.3-12.9L4.3-12.9Q4.2-12.95 4.25-13.35 4.3-13.75 4.3-13.9L4.3-13.9Q4.35-14.5 4.53-15.38 4.7-16.25 4.88-17.2 5.05-18.15 5.28-19.03 5.5-19.9 5.7-20.55L5.7-20.55Q5.8-20.85 6.03-21.83 6.25-22.8 6.5-24.15 6.75-25.5 7-27.05 7.25-28.6 7.4-30.05L7.4-30.05 6.7-29.95Q6.55-28.05 6.1-26.1 5.65-24.15 5.08-22.18 4.5-20.2 3.88-18.18 3.25-16.15 2.8-14.2L2.8-14.2Q2.4-12.45 2.18-10.55 1.95-8.65 2.02-6.8 2.1-4.95 2.48-3.23 2.85-1.5 3.7-0.1L3.7-0.1Q3.8 0.15 3.7 0.15L3.7 0.15Q3.6 0.15 3.45 0L3.45 0Q2.2-1.45 1.55-3.25 0.9-5.05 0.73-7.03 0.55-9 0.78-11.1 1-13.2 1.45-15.2L1.45-15.2Q2.3-18.95 3.5-22.6 4.7-26.25 5.5-29.65L5.5-29.65Q4.25-29.35 3.05-28.93 1.85-28.5 0.8-28L0.8-28Q0.55-27.9 0.5-27.95L0.5-27.95Q0.45-28 0.55-28.13 0.65-28.25 0.75-28.3L0.75-28.3Q3.25-30.35 6.85-31.2 10.45-32.05 14.2-31.65L14.2-31.65Q16.15-31.4 17.78-30.55 19.4-29.7 20.45-28.48 21.5-27.25 21.83-25.75 22.15-24.25 21.5-22.75L21.5-22.75Q20.75-21 19.13-19.5 17.5-18 15.48-16.7 13.45-15.4 11.2-14.3 8.95-13.2 7-12.25L7-12.25Q7.8-12.25 8.65-12 9.5-11.75 10.33-11.38 11.15-11 11.88-10.55 12.6-10.1 13.05-9.65ZM26.9-22.15L26.9-22.15Q26.15-19.55 24.63-17.73 23.1-15.9 21.25-14.7 19.4-13.5 17.5-12.88 15.6-12.25 14.2-12.05L14.2-12.05Q13.8-11.95 13.48-11.98 13.15-12 13.2-12.1L13.2-12.1Q13.1-12.2 13.43-12.3 13.75-12.4 14.1-12.55L14.1-12.55Q16.8-13.55 19.3-15.15 21.8-16.75 23.7-19.4L23.7-19.4Q24.6-20.65 25.05-22.3 25.5-23.95 25.38-25.65 25.25-27.35 24.53-28.95 23.8-30.55 22.4-31.7L22.4-31.7Q20.75-33.1 18.8-33.9 16.85-34.7 14.8-35 12.75-35.3 10.65-35.13 8.55-34.95 6.6-34.45L6.6-34.45Q6.25-34.35 6.2-34.33 6.15-34.3 6.1-34.4L6.1-34.4Q6.1-34.45 6.5-34.75L6.5-34.75Q7.3-35.25 8.63-35.68 9.95-36.1 11.63-36.25 13.3-36.4 15.25-36.23 17.2-36.05 19.25-35.3L19.25-35.3Q21.35-34.6 23.2-33.13 25.05-31.65 26.15-29.5L26.15-29.5Q27.2-27.4 27.23-25.43 27.25-23.45 26.9-22.15ZM1.5-30.3L1.5-30.3Q2.5-31.75 4.15-32.68 5.8-33.6 7.75-34.05 9.7-34.5 11.83-34.45 13.95-34.4 15.95-33.95 17.95-33.5 19.68-32.6 21.4-31.7 22.55-30.4L22.55-30.4Q23.35-29.45 23.78-28.38 24.2-27.3 24.23-26.18 24.25-25.05 23.98-24 23.7-22.95 23.2-22.05L23.2-22.05Q23.1-21.85 22.7-21.38 22.3-20.9 22.2-21L22.2-21Q22.1-21.05 22.35-21.55 22.6-22.05 22.7-22.3L22.7-22.3Q23.1-23.6 23.03-24.88 22.95-26.15 22.53-27.25 22.1-28.35 21.4-29.23 20.7-30.1 19.9-30.65L19.9-30.65Q18-31.9 15.6-32.43 13.2-32.95 10.73-32.83 8.25-32.7 5.9-31.98 3.55-31.25 1.85-30.05L1.85-30.05Q1.4-29.65 1.25-29.8L1.25-29.8Q1.15-29.85 1.28-30.03 1.4-30.2 1.5-30.3ZM28.15 1.2L28.15 1.2Q28.45 1.15 28.45 1.25L28.45 1.25Q28.45 1.35 28.2 1.45L28.2 1.45Q26.4 2.1 24.7 2.15 23 2.2 21.45 1.83 19.9 1.45 18.55 0.78 17.2 0.1 16.1-0.7L16.1-0.7Q14.8-1.65 13.63-2.83 12.45-4 11.35-5.18 10.25-6.35 9.15-7.45 8.05-8.55 6.9-9.4L6.9-9.4Q6.05-6.6 5.35-4.45L5.35-4.45Q5.25-4.2 5.15-4 5.05-3.8 4.95-3.85L4.95-3.85Q4.85-3.9 4.85-4.13 4.85-4.35 4.85-4.6L4.85-4.6Q4.95-6 5.05-7.45 5.15-8.9 5.5-10.35L5.5-10.35Q5.15-10.55 4.83-10.7 4.5-10.85 4.1-11.05L4.1-11.05Q3.95-11.2 3.95-11.25L3.95-11.25Q3.95-11.3 4.08-11.3 4.2-11.3 4.3-11.3L4.3-11.3Q6.3-11.15 7.95-10.08 9.6-9 11.15-7.55 12.7-6.1 14.2-4.48 15.7-2.85 17.4-1.6L17.4-1.6Q18.35-0.9 19.58-0.33 20.8 0.25 22.2 0.65 23.6 1.05 25.13 1.23 26.65 1.4 28.15 1.2ZM20.4-6.1L20.4-6.1Q21.8-4.85 23.08-3.3 24.35-1.75 25.55-0.8L25.55-0.8Q25.9-0.45 25.85-0.3L25.85-0.3Q25.75-0.2 25.6-0.25 25.45-0.3 25.25-0.35L25.25-0.35Q23.9-0.8 22.73-1.6 21.55-2.4 20.45-3.4 19.35-4.4 18.32-5.5 17.3-6.6 16.25-7.65L16.25-7.65Q15.55-8.35 14.73-9.2 13.9-10.05 13-10.78 12.1-11.5 11.13-11.98 10.15-12.45 9.1-12.45L9.1-12.45 11.05-13.3Q11.8-13.65 12.9-14.15 14-14.65 15-15.1 16-15.55 16.75-15.83 17.5-16.1 17.55-16.05L17.55-16.05Q17.6-15.95 17.38-15.7 17.15-15.45 16.78-15.15 16.4-14.85 16.05-14.6 15.7-14.35 15.55-14.3L15.55-14.3Q14.6-13.75 13.78-13.28 12.95-12.8 12.1-12.4L12.1-12.4Q13.25-11.95 14.45-11.13 15.65-10.3 16.75-9.35 17.85-8.4 18.8-7.53 19.75-6.65 20.4-6.1ZM4.2-3L4.2-3Q4.35-2.15 4.6-1.35 4.85-0.55 5.2 0L5.2 0Q5.25 0 5.28 0.08 5.3 0.15 5.2 0.15L5.2 0.15Q5.1 0.15 4.98 0.08 4.85 0 4.75 0L4.75 0Q4.1-0.4 3.73-0.98 3.35-1.55 3.1-3L3.1-3Q3-3.55 3-4.4 3-5.25 3.05-6.03 3.1-6.8 3.2-7.35 3.3-7.9 3.5-7.9L3.5-7.9Q3.55-7.9 3.63-7.65 3.7-7.4 3.75-7.08 3.8-6.75 3.83-6.45 3.85-6.15 3.85-6.05L3.85-6.05Q3.95-5.2 4-4.45 4.05-3.7 4.2-3ZM26.1 0.15L26.1 0.15Q26.9 0.2 27.33 0.18 27.75 0.15 28.45 0.05L28.45 0.05Q28.5 0.05 28.7 0.03 28.9 0 28.95 0.05L28.95 0.05Q29 0.15 28.83 0.3 28.65 0.45 28.55 0.5L28.55 0.5Q27.75 0.75 27.08 0.85 26.4 0.95 25.1 0.8L25.1 0.8Q24.65 0.75 24.1 0.6 23.55 0.45 23.1 0.28 22.65 0.1 22.4-0.08 22.15-0.25 22.3-0.35L22.3-0.35Q22.4-0.4 22.93-0.28 23.45-0.15 23.65-0.1L23.65-0.1Q24.35 0.05 24.95 0.1 25.55 0.15 26.1 0.15ZM47.95-17.6L47.95-17.6Q47.55-15.6 46.6-13.6 45.65-11.6 44.8-9.85L44.8-9.85Q44.75-9.75 44.57-9.5 44.4-9.25 44.3-9.25L44.3-9.25Q44.15-9.3 44.15-9.58 44.15-9.85 44.15-9.95L44.15-9.95Q44.2-10.4 44.32-11.03 44.45-11.65 44.55-12.33 44.65-13 44.77-13.63 44.9-14.25 45.05-14.75L45.05-14.75Q45.5-16.45 45.8-17.68 46.1-18.9 46.25-19.9 46.4-20.9 46.42-21.8 46.45-22.7 46.3-23.75L46.3-23.75Q46.25-24.15 46.35-24.25L46.35-24.25Q46.45-24.3 46.6-24.15 46.75-24 46.85-23.85L46.85-23.85Q47.7-22.5 48-20.88 48.3-19.25 47.95-17.6ZM48.95-21.25L49.15-20.95Q49.8-20 49.8-18.45 49.8-16.9 49.5-15.28 49.2-13.65 48.75-12.15 48.3-10.65 48.1-9.75L48.1-9.75Q47.7-8 47-6.25 46.3-4.5 45.8-3.15L45.8-3.15Q45.75-3 45.65-2.83 45.55-2.65 45.45-2.65L45.45-2.65Q45.35-2.65 45.35-2.85 45.35-3.05 45.35-3.2L45.35-3.2Q45.2-5.95 45.95-8.58 46.7-11.2 47.55-13.9L47.55-13.9Q48.05-15.55 48.5-17.28 48.95-19 48.9-21.05L48.9-21.05Q48.9-21.25 48.95-21.25L48.95-21.25ZM44.45-21.8L44.45-21.8Q41.4-20.55 39.27-18.23 37.15-15.9 36-13L36-13Q35.5-11.7 35.25-10.68 35-9.65 34.85-8.45L34.85-8.45Q34.8-8.2 35-7.95 35.2-7.7 35.4-7.95L35.4-7.95Q36.3-9.05 37.7-10.75 39.1-12.45 40.5-14.35 41.9-16.25 43.02-18.2 44.15-20.15 44.45-21.8ZM41.1-4.85L41.1-4.85Q40.35-3.8 39.65-2.9 38.95-2 38.1-1.33 37.25-0.65 36.2-0.25 35.15 0.15 33.8 0.2L33.8 0.2Q31.55 0.3 30.37-0.95 29.2-2.2 28.75-4 28.3-5.8 28.42-7.73 28.55-9.65 28.95-10.9L28.95-10.9Q29.5-12.65 30.27-14.23 31.05-15.8 31.92-17.07 32.8-18.35 33.72-19.28 34.65-20.2 35.55-20.7L35.55-20.7Q35.6-20.7 35.77-20.8 35.95-20.9 35.95-20.75L35.95-20.75Q36-20.75 35.9-20.6 35.8-20.45 35.7-20.35L35.7-20.35Q33.1-17.65 31.57-14.25 30.05-10.85 29.85-7.25L29.85-7.25Q29.8-6.35 29.92-5.3 30.05-4.25 30.42-3.33 30.8-2.4 31.5-1.78 32.2-1.15 33.4-1.15L33.4-1.15Q34.35-1.15 35.15-1.48 35.95-1.8 36.65-2.33 37.35-2.85 37.92-3.48 38.5-4.1 38.95-4.65L38.95-4.65Q39.95-5.9 40.8-7.25L40.8-7.25Q40.8-8.25 40.92-9.2 41.05-10.15 41.3-11.1L41.3-11.1Q41.45-11.8 41.57-12.23 41.7-12.65 41.82-13.03 41.95-13.4 42.07-13.83 42.2-14.25 42.45-14.95L42.45-14.95Q41.65-13.55 40.87-12.33 40.1-11.1 39.22-9.98 38.35-8.85 37.42-7.78 36.5-6.7 35.4-5.6L35.4-5.6Q34.55-4.75 34-5.05 33.45-5.35 33.35-6.45L33.35-6.45Q33.25-8.15 33.52-9.75 33.8-11.35 34.5-13.1L34.5-13.1Q35.15-14.7 36.12-16.2 37.1-17.7 38.37-18.93 39.65-20.15 41.2-21.03 42.75-21.9 44.5-22.2L44.5-22.2Q44.6-22.75 44.67-23.15 44.75-23.55 44.8-23.95L44.8-23.95Q44.9-24.5 44.9-24.5L44.9-24.5Q45-24.55 45.12-24.4 45.25-24.25 45.35-24L45.35-24Q45.95-22.35 45.75-20.7 45.55-19.05 45.02-17.35 44.5-15.65 43.8-13.88 43.1-12.1 42.65-10.3L42.65-10.3Q42.05-7.75 42.32-5.03 42.6-2.3 44.45-0.1L44.45-0.1Q44.6 0.1 44.6 0.1L44.6 0.1Q44.55 0.15 44.3 0L44.3 0Q42.85-0.9 42.12-2.18 41.4-3.45 41.1-4.85ZM42.85-22.55L42.85-22.55Q42.95-22.45 42.82-22.4 42.7-22.35 42.3-22.25L42.3-22.25Q41.65-22.05 40.72-21.5 39.8-20.95 38.77-20.1 37.75-19.25 36.75-18.13 35.75-17 35-15.7L35-15.7Q34.25-14.35 33.72-13.05 33.2-11.75 32.87-10.68 32.55-9.6 32.4-8.83 32.25-8.05 32.25-7.75L32.25-7.75Q32.25-7 32.25-6.18 32.25-5.35 32.45-4.7 32.65-4.05 33.15-3.7 33.65-3.35 34.65-3.5L34.65-3.5Q34.7-3.5 34.9-3.58 35.1-3.65 35.3-3.73 35.5-3.8 35.67-3.85 35.85-3.9 35.9-3.9L35.9-3.9Q35.95-3.8 35.82-3.65 35.7-3.5 35.5-3.33 35.3-3.15 35.12-3 34.95-2.85 34.9-2.8L34.9-2.8Q33.65-2.05 32.8-2.35 31.95-2.65 31.47-3.48 31-4.3 30.82-5.43 30.65-6.55 30.7-7.45L30.7-7.45Q30.8-9.2 31.25-10.93 31.7-12.65 32.4-14.4L32.4-14.4Q32.95-15.75 34.05-17.18 35.15-18.6 36.52-19.8 37.9-21 39.4-21.78 40.9-22.55 42.3-22.6L42.3-22.6Q42.8-22.6 42.85-22.55ZM45.8-0.1L45.8-0.1Q45.9 0.05 45.85 0.1L45.85 0.1Q45.7 0.1 45.45 0L45.45 0Q45.3-0.1 44.65-0.6 44-1.1 43.7-2.2L43.7-2.2Q43.6-2.6 43.52-3.23 43.45-3.85 43.45-4.4 43.45-4.95 43.52-5.35 43.6-5.75 43.75-5.75L43.75-5.75Q43.9-5.75 44.07-5.15 44.25-4.55 44.3-4.4L44.3-4.4Q44.45-3.7 44.57-3.18 44.7-2.65 44.85-2.2L44.85-2.2Q45.05-1.65 45.37-0.95 45.7-0.25 45.8-0.1ZM68.55-22.35L68.55-22.35Q68.3-21.75 68.07-21.35 67.85-20.95 67.25-20.4L67.25-20.4Q67-20.15 66.57-19.98 66.15-19.8 65.77-19.7 65.4-19.6 65.12-19.6 64.85-19.6 64.85-19.8L64.85-19.8Q64.85-19.9 65.27-20.18 65.7-20.45 65.85-20.55L65.85-20.55Q66.45-20.9 66.77-21.13 67.1-21.35 67.32-21.58 67.55-21.8 67.77-22.05 68-22.3 68.35-22.75L68.35-22.75Q68.6-23 68.62-22.83 68.65-22.65 68.55-22.35ZM66.4-21.8L66.4-21.8Q65.45-21.55 64.65-21.43 63.85-21.3 63.05-21.28 62.25-21.25 61.37-21.35 60.5-21.45 59.45-21.7L59.45-21.7Q58.35-21.95 57.2-22.1 56.05-22.25 54.55-21.7L54.55-21.7Q54.5-21.7 54.35-21.65 54.2-21.6 54.2-21.65L54.2-21.65Q54.2-21.75 54.3-21.9 54.4-22.05 54.45-22.15L54.45-22.15Q55.1-22.9 56.1-23.2 57.1-23.5 58.17-23.53 59.25-23.55 60.22-23.4 61.2-23.25 61.8-23.1L61.8-23.1Q63.05-22.85 64.27-22.68 65.5-22.5 66.4-22.25L66.4-22.25Q66.5-22.2 66.72-22.08 66.95-21.95 66.4-21.8ZM62.55-19.6L62.55-19.6Q62.55-19.4 62.32-19.35 62.1-19.3 62.05-19.3L62.05-19.3Q61.75-19.25 61.2-19.25 60.65-19.25 60.1-19.25 59.55-19.25 59-19.3 58.45-19.35 58.15-19.4L58.15-19.4Q56.4-19.65 54.87-19.43 53.35-19.2 52.5-18.45L52.5-18.45Q52.25-18.3 52.25-18.45L52.25-18.45Q52.25-18.55 52.3-18.6L52.3-18.6Q52.3-18.65 52.35-18.7L52.35-18.7Q52.7-19.45 53.27-19.98 53.85-20.5 54.5-20.83 55.15-21.15 55.8-21.28 56.45-21.4 56.95-21.35L56.95-21.35Q58.15-21.2 59.42-20.73 60.7-20.25 62.05-19.95L62.05-19.95Q62.1-19.95 62.32-19.85 62.55-19.75 62.55-19.6ZM68.55-4.1L68.55-4.1Q68.6-4 68.47-3.83 68.35-3.65 68.25-3.55L68.25-3.55Q67.65-2.85 67.1-2.58 66.55-2.3 65.75-2.05L65.75-2.05Q65.35-1.95 64.92-1.93 64.5-1.9 64.12-1.95 63.75-2 63.5-2.08 63.25-2.15 63.3-2.3L63.3-2.3Q63.35-2.45 63.8-2.58 64.25-2.7 64.5-2.75L64.5-2.75Q65-2.85 65.4-2.9 65.8-2.95 66.3-3.1L66.3-3.1Q67.3-3.45 68.2-4.05L68.2-4.05Q68.3-4.15 68.42-4.15 68.55-4.15 68.55-4.1ZM67.7-2.2L67.7-2.2Q66.4-1.15 65.27-0.65 64.15-0.15 63.12 0 62.1 0.15 61.2 0.08 60.3 0 59.55 0L59.55 0Q58.5-0.05 57.35-0.2 56.2-0.35 55.05-0.45 53.9-0.55 52.87-0.45 51.85-0.35 51.1 0.15L51.1 0.15Q50.85 0.3 50.8 0.25L50.8 0.25Q50.65 0.25 50.8 0.1L50.8 0.1Q50.8 0.05 50.85-0.05L50.85-0.05Q51.5-1.2 52.62-1.63 53.75-2.05 55.02-2 56.3-1.95 57.65-1.65 59-1.35 60.1-1.05L60.1-1.05Q61.5-0.65 63.47-0.95 65.45-1.25 67.7-2.6L67.7-2.6Q68-2.8 67.9-2.55 67.8-2.3 67.7-2.2ZM60.85-2.65L60.85-2.65Q60.85-2.55 60.62-2.5 60.4-2.45 60.3-2.45L60.3-2.45Q59.7-2.4 58.47-2.48 57.25-2.55 56.5-2.65L56.5-2.65Q55.65-2.75 54.8-2.68 53.95-2.6 53.2-2.35 52.45-2.1 51.9-1.75 51.35-1.4 51.1-0.95L51.1-0.95Q51-0.8 50.92-0.65 50.85-0.5 50.75-0.55L50.75-0.55Q50.6-0.65 50.52-1.05 50.45-1.45 50.5-1.9L50.5-1.9Q50.75-4.6 51.85-6.63 52.95-8.65 54.75-10.55L54.75-10.55Q56.35-12.2 57.97-13.55 59.6-14.9 61.05-16.3L61.05-16.3Q59.85-16.35 58.7-16.57 57.55-16.8 56.45-16.98 55.35-17.15 54.3-17.18 53.25-17.2 52.25-16.9L52.25-16.9Q52-16.8 51.82-16.88 51.65-16.95 51.95-17.2L51.95-17.2Q53.15-18.3 54.4-18.57 55.65-18.85 56.9-18.73 58.15-18.6 59.4-18.28 60.65-17.95 61.9-17.9L61.9-17.9Q62.75-17.85 63.6-17.93 64.45-18 65.27-18.32 66.1-18.65 66.87-19.3 67.65-19.95 68.35-21.1L68.35-21.1Q68.55-21.4 68.6-21.4L68.6-21.4Q68.65-21.4 68.65-21.2L68.65-21.2 68.65-21.05Q68.6-20.65 68.15-19.85 67.7-19.05 67.05-18.07 66.4-17.1 65.72-16.13 65.05-15.15 64.55-14.45L64.55-14.45Q63.95-13.65 63.05-12.75 62.15-11.85 61.1-10.98 60.05-10.1 59-9.3 57.95-8.5 57.1-7.9L57.1-7.9Q57-7.85 56.72-7.7 56.45-7.55 56.35-7.65L56.35-7.65Q56.3-7.7 56.45-7.95 56.6-8.2 56.7-8.3L56.7-8.3Q56.95-8.65 57.42-9.18 57.9-9.7 58.47-10.25 59.05-10.8 59.57-11.33 60.1-11.85 60.5-12.2L60.5-12.2Q61.3-12.95 61.85-13.48 62.4-14 62.82-14.45 63.25-14.9 63.57-15.38 63.9-15.85 64.35-16.5L64.35-16.5Q64.1-16.45 63.6-16.4 63.1-16.35 62.85-16.35L62.85-16.35Q61.3-14.4 59.37-12.83 57.45-11.25 55.65-9.4L55.65-9.4Q54.9-8.55 54.05-7.63 53.2-6.7 52.6-5.5L52.6-5.5Q53.45-6.15 54.95-6.43 56.45-6.7 57.8-6.7L57.8-6.7Q58.65-7.6 59.42-8.38 60.2-9.15 61.2-9.95L61.2-9.95Q62.9-11.25 64.25-12.68 65.6-14.1 66.5-15.9L66.5-15.9Q66.7-16.3 66.75-16.15 66.8-16 66.8-15.75L66.8-15.75Q66.85-14.65 66.17-13.43 65.5-12.2 64.45-11 63.4-9.8 62.15-8.63 60.9-7.45 59.85-6.5L59.85-6.5Q60.1-6.45 60.4-6.4 60.7-6.35 60.95-6.3L60.95-6.3Q62.25-5.9 63.6-5.33 64.95-4.75 65.8-4.2L65.8-4.2Q66.15-4 66-3.85L66-3.85Q65.8-3.65 65.4-3.75L65.4-3.75Q63.3-4.05 61.62-4.48 59.95-4.9 57.8-5.2L57.8-5.2Q56.5-5.4 55.32-5.4 54.15-5.4 53.22-5.05 52.3-4.7 51.67-3.88 51.05-3.05 50.85-1.6L50.85-1.6Q51.4-2.9 52.65-3.65 53.9-4.4 54.9-4.5L54.9-4.5Q56.45-4.6 57.95-4.28 59.45-3.95 60.6-3.15L60.6-3.15Q60.65-3.1 60.82-2.93 61-2.75 60.85-2.65ZM84.49-13.85L84.49-13.85Q84.64-15.2 84.54-16.7 84.44-18.2 83.92-19.48 83.39-20.75 82.32-21.6 81.24-22.45 79.49-22.45L79.49-22.45Q77.14-22.45 75.39-21.18 73.64-19.9 72.39-18.03 71.14-16.15 70.44-14.03 69.74-11.9 69.54-10.15L69.54-10.15Q69.24-7.75 69.47-6 69.69-4.25 70.29-3.13 70.89-2 71.82-1.45 72.74-0.9 73.84-0.9L73.84-0.9Q75.39-0.85 77.12-1.78 78.84-2.7 80.34-4.38 81.84-6.05 82.97-8.47 84.09-10.9 84.49-13.85ZM68.39-10.4L68.39-10.4Q68.59-12.4 69.39-14.8 70.19-17.2 71.62-19.25 73.04-21.3 75.04-22.68 77.04-24.05 79.69-24.05L79.69-24.05Q81.69-24.05 82.99-23.1 84.29-22.15 84.99-20.68 85.69-19.2 85.89-17.48 86.09-15.75 85.89-14.2L85.89-14.2Q85.44-10.6 84.14-7.95 82.84-5.3 81.09-3.53 79.34-1.75 77.39-0.88 75.44 0 73.64 0L73.64 0Q72.29 0 71.22-0.6 70.14-1.2 69.42-2.48 68.69-3.75 68.42-5.73 68.14-7.7 68.39-10.4ZM73.99-3.35L73.99-3.35Q73.74-3.35 73.49-3.53 73.24-3.7 73.09-3.95 72.94-4.2 72.89-4.45 72.84-4.7 73.09-4.8L73.09-4.8Q73.24-4.85 73.49-4.45 73.74-4.05 74.04-4.05L74.04-4.05Q74.54-4.05 75.22-4.7 75.89-5.35 76.52-6.23 77.14-7.1 77.62-7.95 78.09-8.8 78.29-9.2L78.29-9.2Q78.49-9.6 78.69-10.23 78.89-10.85 79.07-11.5 79.24-12.15 79.37-12.78 79.49-13.4 79.54-13.85L79.54-13.85Q79.79-16.1 79.44-17.32 79.09-18.55 78.29-18.55L78.29-18.55Q77.69-18.55 77.04-18.18 76.39-17.8 75.82-17.2 75.24-16.6 74.79-15.88 74.34-15.15 74.14-14.4L74.14-14.4Q73.89-13.55 73.79-13.55L73.79-13.55Q73.64-13.55 73.64-14.4L73.64-14.4Q73.79-15.35 74.29-16.28 74.79-17.2 75.54-17.93 76.29-18.65 77.19-19.13 78.09-19.6 79.04-19.6L79.04-19.6Q79.99-19.6 80.47-18.93 80.94-18.25 81.14-17.28 81.34-16.3 81.32-15.28 81.29-14.25 81.19-13.65L81.19-13.65Q80.99-12.3 80.57-11.03 80.14-9.75 79.54-8.45L79.54-8.45Q79.24-7.85 78.64-6.98 78.04-6.1 77.27-5.3 76.49-4.5 75.62-3.93 74.74-3.35 73.99-3.35ZM75.59-2.4L75.59-2.4Q75.64-2.1 75.12-1.9 74.59-1.7 74.04-1.7L74.04-1.7Q72.49-1.75 71.67-2.7 70.84-3.65 70.52-4.95 70.19-6.25 70.22-7.65 70.24-9.05 70.34-10L70.34-10Q70.54-11.65 71.14-13.7 71.74-15.75 72.84-17.55 73.94-19.35 75.54-20.58 77.14-21.8 79.34-21.8L79.34-21.8Q80.79-21.8 81.67-21.05 82.54-20.3 82.97-19.2 83.39-18.1 83.47-16.82 83.54-15.55 83.39-14.5L83.39-14.5Q83.29-13.35 83.04-12.4 82.79-11.45 82.34-10.3L82.34-10.3Q82.19-9.95 81.94-9.5 81.69-9.05 81.39-9.1L81.39-9.1Q81.24-9.15 81.32-9.5 81.39-9.85 81.52-10.38 81.64-10.9 81.79-11.48 81.94-12.05 81.99-12.55L81.99-12.55Q82.09-13.4 82.12-14.68 82.14-15.95 81.92-17.15 81.69-18.35 81.09-19.2 80.49-20.05 79.29-20.05L79.29-20.05Q77.54-20.05 76.07-18.93 74.59-17.8 73.49-16.18 72.39-14.55 71.72-12.78 71.04-11 70.89-9.65L70.89-9.65Q70.79-8.85 70.84-7.65 70.89-6.45 71.22-5.28 71.54-4.1 72.29-3.25 73.04-2.4 74.34-2.35L74.34-2.35Q74.74-2.3 75.12-2.43 75.49-2.55 75.59-2.4ZM93.29-16.65L93.29-16.65Q92.89-14.95 92.17-13.08 91.44-11.2 90.54-9.6L90.54-9.6Q90.54-9.5 90.42-9.28 90.29-9.05 90.09-9.05L90.09-9.05Q89.99-9.05 89.97-9.35 89.94-9.65 89.99-9.75L89.99-9.75Q89.99-10.55 90.19-11.88 90.39-13.2 90.69-14.05L90.69-14.05Q90.79-14.35 91.02-15.5 91.24-16.65 91.42-18.07 91.59-19.5 91.62-20.83 91.64-22.15 91.29-22.8L91.29-22.8 91.29-23Q91.49-23.15 91.74-22.9L91.74-22.9Q92.39-22.35 92.77-21.55 93.14-20.75 93.32-19.88 93.49-19 93.47-18.15 93.44-17.3 93.29-16.65ZM95.24-16.85L95.24-16.85Q95.79-17.55 96.29-17.85 96.79-18.15 97.29-18.35L97.29-18.35Q97.34-18.35 97.54-18.4 97.74-18.45 97.84-18.3L97.84-18.3Q97.94-18.15 97.79-17.95 97.64-17.75 97.54-17.65L97.54-17.65Q97.19-17.3 96.77-16.88 96.34-16.45 95.99-16.05L95.99-16.05Q95.49-15.5 95.19-14.78 94.89-14.05 94.74-13.3L94.74-13.3Q95.59-14.2 96.37-15 97.14-15.8 98.04-16.5L98.04-16.5Q99.19-17.35 100.04-18.7 100.89-20.05 101.24-22.65L101.24-22.65Q101.34-22.9 101.49-22.95 101.64-23 101.64-22.6L101.64-22.6Q101.79-19.7 101.04-18 100.29-16.3 98.79-15.15L98.79-15.15Q97.99-14.55 97.19-13.85 96.39-13.15 95.67-12.3 94.94-11.45 94.34-10.3 93.74-9.15 93.29-7.65L93.29-7.65Q92.94-6.5 92.59-5.48 92.24-4.45 91.84-3.5L91.84-3.5Q91.74-3.15 91.54-3.15L91.54-3.15Q91.39-3.2 91.39-3.65L91.39-3.65Q91.14-6.05 91.72-8.43 92.29-10.8 93.09-13.35L93.09-13.35Q93.44-14.6 93.92-15.85 94.39-17.1 94.34-18.7L94.34-18.7Q94.34-19.25 94.79-19.85 95.24-20.45 95.89-20.98 96.54-21.5 97.24-21.88 97.94-22.25 98.44-22.4L98.44-22.4Q98.89-22.55 98.89-22.35 98.89-22.15 98.59-21.85L98.59-21.85Q97.54-20.9 96.47-19.6 95.39-18.3 95.24-16.85ZM90.89-0.05L90.89-0.05Q90.84 0 90.82-0.03 90.79-0.05 90.54-0.2L90.54-0.2Q89.04-1.3 88.19-2.6 87.34-3.9 86.97-5.28 86.59-6.65 86.64-8.03 86.69-9.4 86.99-10.7L86.99-10.7Q87.39-12.45 87.97-14.18 88.54-15.9 89.04-17.53 89.54-19.15 89.79-20.73 90.04-22.3 89.79-23.75L89.79-23.75Q89.79-23.85 89.94-23.9L89.94-23.9Q89.99-23.9 90.04-23.83 90.09-23.75 90.14-23.7L90.14-23.7Q91.09-22.1 91.09-20.43 91.09-18.75 90.64-17.03 90.19-15.3 89.52-13.53 88.84-11.75 88.44-9.95L88.44-9.95Q87.94-7.65 88.37-5.05 88.79-2.45 90.69-0.4L90.69-0.4Q90.79-0.25 90.89-0.2 90.99-0.15 90.89-0.05ZM92.39 0L92.39 0Q92.29 0 92.19-0.05L92.19-0.05 91.99-0.15Q91.29-0.6 90.74-1.13 90.19-1.65 89.79-2.65L89.79-2.65Q89.64-3 89.54-3.58 89.44-4.15 89.42-4.65 89.39-5.15 89.47-5.5 89.54-5.85 89.74-5.8L89.74-5.8Q89.89-5.8 90.07-5.4 90.24-5 90.34-4.6L90.34-4.6Q90.44-4.05 90.57-3.55 90.69-3.05 90.89-2.65L90.89-2.65Q91.44-1.4 92.34-0.25L92.34-0.25Q92.44 0 92.39 0ZM100.54-22.45L100.54-22.45Q100.54-21.4 99.94-20.6 99.34-19.8 98.49-19.25L98.49-19.25Q98.34-19.15 98.29-19.28 98.24-19.4 98.24-19.45L98.24-19.45Q98.24-19.75 98.49-20.18 98.74-20.6 99.07-21.08 99.39-21.55 99.69-22.05 99.99-22.55 100.09-22.95L100.09-22.95Q100.24-23.2 100.39-22.95 100.54-22.7 100.54-22.45ZM113.59-9.65L113.59-9.65Q115.19-8.2 116.59-6.58 117.99-4.95 119.29-3.2L119.29-3.2Q119.34-3.1 119.56-2.83 119.79-2.55 119.69-2.45L119.69-2.45Q119.64-2.4 119.31-2.53 118.99-2.65 118.89-2.75L118.89-2.75Q118.49-3 117.96-3.4 117.44-3.8 116.86-4.25 116.29-4.7 115.74-5.18 115.19-5.65 114.84-6.05L114.84-6.05Q114.59-6.25 113.64-7.08 112.69-7.9 111.49-8.85 110.29-9.8 109.04-10.6 107.79-11.4 106.99-11.6L106.99-11.6Q106.84-11.65 106.56-11.75 106.29-11.85 106.34-12.1L106.34-12.1Q106.74-14 107.34-15.8 107.94-17.6 108.49-19.5L108.49-19.5Q109.19-21.85 109.81-24.3 110.44-26.75 110.54-29.6L110.54-29.6Q110.54-29.85 110.59-29.85L110.59-29.85Q110.74-29.85 110.84-29.5L110.84-29.5Q111.44-28.15 111.34-26 111.24-23.85 110.81-21.53 110.39-19.2 109.76-17.07 109.14-14.95 108.69-13.7L108.69-13.7 108.54-13.3Q110.39-14.55 112.39-15.8 114.39-17.05 116.11-18.32 117.84-19.6 119.11-20.98 120.39-22.35 120.84-23.85L120.84-23.85Q121.14-24.85 120.76-25.85 120.39-26.85 119.46-27.73 118.54-28.6 117.14-29.25 115.74-29.9 114.04-30.15L114.04-30.15Q111.79-30.45 109.49-30.3L109.49-30.3Q109.69-28.8 109.56-27.28 109.44-25.75 109.19-24.65L109.19-24.65Q108.54-21.95 107.54-19.07 106.54-16.2 105.49-13.7L105.49-13.7Q105.39-13.55 105.19-13.2 104.99-12.85 104.84-12.9L104.84-12.9Q104.74-12.95 104.79-13.35 104.84-13.75 104.84-13.9L104.84-13.9Q104.89-14.5 105.06-15.38 105.24-16.25 105.41-17.2 105.59-18.15 105.81-19.03 106.04-19.9 106.24-20.55L106.24-20.55Q106.34-20.85 106.56-21.83 106.79-22.8 107.04-24.15 107.29-25.5 107.54-27.05 107.79-28.6 107.94-30.05L107.94-30.05 107.24-29.95Q107.09-28.05 106.64-26.1 106.19-24.15 105.61-22.18 105.04-20.2 104.41-18.18 103.79-16.15 103.34-14.2L103.34-14.2Q102.94-12.45 102.71-10.55 102.49-8.65 102.56-6.8 102.64-4.95 103.01-3.23 103.39-1.5 104.24-0.1L104.24-0.1Q104.34 0.15 104.24 0.15L104.24 0.15Q104.14 0.15 103.99 0L103.99 0Q102.74-1.45 102.09-3.25 101.44-5.05 101.26-7.03 101.09-9 101.31-11.1 101.54-13.2 101.99-15.2L101.99-15.2Q102.84-18.95 104.04-22.6 105.24-26.25 106.04-29.65L106.04-29.65Q104.79-29.35 103.59-28.93 102.39-28.5 101.34-28L101.34-28Q101.09-27.9 101.04-27.95L101.04-27.95Q100.99-28 101.09-28.13 101.19-28.25 101.29-28.3L101.29-28.3Q103.79-30.35 107.39-31.2 110.99-32.05 114.74-31.65L114.74-31.65Q116.69-31.4 118.31-30.55 119.94-29.7 120.99-28.48 122.04-27.25 122.36-25.75 122.69-24.25 122.04-22.75L122.04-22.75Q121.29-21 119.66-19.5 118.04-18 116.01-16.7 113.99-15.4 111.74-14.3 109.49-13.2 107.54-12.25L107.54-12.25Q108.34-12.25 109.19-12 110.04-11.75 110.86-11.38 111.69-11 112.41-10.55 113.14-10.1 113.59-9.65ZM127.44-22.15L127.44-22.15Q126.69-19.55 125.16-17.73 123.64-15.9 121.79-14.7 119.94-13.5 118.04-12.88 116.14-12.25 114.74-12.05L114.74-12.05Q114.34-11.95 114.01-11.98 113.69-12 113.74-12.1L113.74-12.1Q113.64-12.2 113.96-12.3 114.29-12.4 114.64-12.55L114.64-12.55Q117.34-13.55 119.84-15.15 122.34-16.75 124.24-19.4L124.24-19.4Q125.14-20.65 125.59-22.3 126.04-23.95 125.91-25.65 125.79-27.35 125.06-28.95 124.34-30.55 122.94-31.7L122.94-31.7Q121.29-33.1 119.34-33.9 117.39-34.7 115.34-35 113.29-35.3 111.19-35.13 109.09-34.95 107.14-34.45L107.14-34.45Q106.79-34.35 106.74-34.33 106.69-34.3 106.64-34.4L106.64-34.4Q106.64-34.45 107.04-34.75L107.04-34.75Q107.84-35.25 109.16-35.68 110.49-36.1 112.16-36.25 113.84-36.4 115.79-36.23 117.74-36.05 119.79-35.3L119.79-35.3Q121.89-34.6 123.74-33.13 125.59-31.65 126.69-29.5L126.69-29.5Q127.74-27.4 127.76-25.43 127.79-23.45 127.44-22.15ZM102.04-30.3L102.04-30.3Q103.04-31.75 104.69-32.68 106.34-33.6 108.29-34.05 110.24-34.5 112.36-34.45 114.49-34.4 116.49-33.95 118.49-33.5 120.21-32.6 121.94-31.7 123.09-30.4L123.09-30.4Q123.89-29.45 124.31-28.38 124.74-27.3 124.76-26.18 124.79-25.05 124.51-24 124.24-22.95 123.74-22.05L123.74-22.05Q123.64-21.85 123.24-21.38 122.84-20.9 122.74-21L122.74-21Q122.64-21.05 122.89-21.55 123.14-22.05 123.24-22.3L123.24-22.3Q123.64-23.6 123.56-24.88 123.49-26.15 123.06-27.25 122.64-28.35 121.94-29.23 121.24-30.1 120.44-30.65L120.44-30.65Q118.54-31.9 116.14-32.43 113.74-32.95 111.26-32.83 108.79-32.7 106.44-31.98 104.09-31.25 102.39-30.05L102.39-30.05Q101.94-29.65 101.79-29.8L101.79-29.8Q101.69-29.85 101.81-30.03 101.94-30.2 102.04-30.3ZM128.69 1.2L128.69 1.2Q128.99 1.15 128.99 1.25L128.99 1.25Q128.99 1.35 128.74 1.45L128.74 1.45Q126.94 2.1 125.24 2.15 123.54 2.2 121.99 1.83 120.44 1.45 119.09 0.78 117.74 0.1 116.64-0.7L116.64-0.7Q115.34-1.65 114.16-2.83 112.99-4 111.89-5.18 110.79-6.35 109.69-7.45 108.59-8.55 107.44-9.4L107.44-9.4Q106.59-6.6 105.89-4.45L105.89-4.45Q105.79-4.2 105.69-4 105.59-3.8 105.49-3.85L105.49-3.85Q105.39-3.9 105.39-4.13 105.39-4.35 105.39-4.6L105.39-4.6Q105.49-6 105.59-7.45 105.69-8.9 106.04-10.35L106.04-10.35Q105.69-10.55 105.36-10.7 105.04-10.85 104.64-11.05L104.64-11.05Q104.49-11.2 104.49-11.25L104.49-11.25Q104.49-11.3 104.61-11.3 104.74-11.3 104.84-11.3L104.84-11.3Q106.84-11.15 108.49-10.08 110.14-9 111.69-7.55 113.24-6.1 114.74-4.48 116.24-2.85 117.94-1.6L117.94-1.6Q118.89-0.9 120.11-0.33 121.34 0.25 122.74 0.65 124.14 1.05 125.66 1.23 127.19 1.4 128.69 1.2ZM120.94-6.1L120.94-6.1Q122.34-4.85 123.61-3.3 124.89-1.75 126.09-0.8L126.09-0.8Q126.44-0.45 126.39-0.3L126.39-0.3Q126.29-0.2 126.14-0.25 125.99-0.3 125.79-0.35L125.79-0.35Q124.44-0.8 123.26-1.6 122.09-2.4 120.99-3.4 119.89-4.4 118.86-5.5 117.84-6.6 116.79-7.65L116.79-7.65Q116.09-8.35 115.26-9.2 114.44-10.05 113.54-10.78 112.64-11.5 111.66-11.98 110.69-12.45 109.64-12.45L109.64-12.45 111.59-13.3Q112.34-13.65 113.44-14.15 114.54-14.65 115.54-15.1 116.54-15.55 117.29-15.83 118.04-16.1 118.09-16.05L118.09-16.05Q118.14-15.95 117.91-15.7 117.69-15.45 117.31-15.15 116.94-14.85 116.59-14.6 116.24-14.35 116.09-14.3L116.09-14.3Q115.14-13.75 114.31-13.28 113.49-12.8 112.64-12.4L112.64-12.4Q113.79-11.95 114.99-11.13 116.19-10.3 117.29-9.35 118.39-8.4 119.34-7.53 120.29-6.65 120.94-6.1ZM104.74-3L104.74-3Q104.89-2.15 105.14-1.35 105.39-0.55 105.74 0L105.74 0Q105.79 0 105.81 0.08 105.84 0.15 105.74 0.15L105.74 0.15Q105.64 0.15 105.51 0.08 105.39 0 105.29 0L105.29 0Q104.64-0.4 104.26-0.98 103.89-1.55 103.64-3L103.64-3Q103.54-3.55 103.54-4.4 103.54-5.25 103.59-6.03 103.64-6.8 103.74-7.35 103.84-7.9 104.04-7.9L104.04-7.9Q104.09-7.9 104.16-7.65 104.24-7.4 104.29-7.08 104.34-6.75 104.36-6.45 104.39-6.15 104.39-6.05L104.39-6.05Q104.49-5.2 104.54-4.45 104.59-3.7 104.74-3ZM126.64 0.15L126.64 0.15Q127.44 0.2 127.86 0.18 128.29 0.15 128.99 0.05L128.99 0.05Q129.04 0.05 129.24 0.03 129.44 0 129.49 0.05L129.49 0.05Q129.54 0.15 129.36 0.3 129.19 0.45 129.09 0.5L129.09 0.5Q128.29 0.75 127.61 0.85 126.94 0.95 125.64 0.8L125.64 0.8Q125.19 0.75 124.64 0.6 124.09 0.45 123.64 0.28 123.19 0.1 122.94-0.08 122.69-0.25 122.84-0.35L122.84-0.35Q122.94-0.4 123.46-0.28 123.99-0.15 124.19-0.1L124.19-0.1Q124.89 0.05 125.49 0.1 126.09 0.15 126.64 0.15ZM145.14-13.85L145.14-13.85Q145.29-15.2 145.19-16.7 145.09-18.2 144.56-19.48 144.04-20.75 142.96-21.6 141.89-22.45 140.14-22.45L140.14-22.45Q137.79-22.45 136.04-21.18 134.29-19.9 133.04-18.03 131.79-16.15 131.09-14.03 130.39-11.9 130.19-10.15L130.19-10.15Q129.89-7.75 130.11-6 130.34-4.25 130.94-3.13 131.54-2 132.46-1.45 133.39-0.9 134.49-0.9L134.49-0.9Q136.04-0.85 137.76-1.78 139.49-2.7 140.99-4.38 142.49-6.05 143.61-8.47 144.74-10.9 145.14-13.85ZM129.04-10.4L129.04-10.4Q129.24-12.4 130.04-14.8 130.84-17.2 132.26-19.25 133.69-21.3 135.69-22.68 137.69-24.05 140.34-24.05L140.34-24.05Q142.34-24.05 143.64-23.1 144.94-22.15 145.64-20.68 146.34-19.2 146.54-17.48 146.74-15.75 146.54-14.2L146.54-14.2Q146.09-10.6 144.79-7.95 143.49-5.3 141.74-3.53 139.99-1.75 138.04-0.88 136.09 0 134.29 0L134.29 0Q132.94 0 131.86-0.6 130.79-1.2 130.06-2.48 129.34-3.75 129.06-5.73 128.79-7.7 129.04-10.4ZM134.64-3.35L134.64-3.35Q134.39-3.35 134.14-3.53 133.89-3.7 133.74-3.95 133.59-4.2 133.54-4.45 133.49-4.7 133.74-4.8L133.74-4.8Q133.89-4.85 134.14-4.45 134.39-4.05 134.69-4.05L134.69-4.05Q135.19-4.05 135.86-4.7 136.54-5.35 137.16-6.23 137.79-7.1 138.26-7.95 138.74-8.8 138.94-9.2L138.94-9.2Q139.14-9.6 139.34-10.23 139.54-10.85 139.71-11.5 139.89-12.15 140.01-12.78 140.14-13.4 140.19-13.85L140.19-13.85Q140.44-16.1 140.09-17.32 139.74-18.55 138.94-18.55L138.94-18.55Q138.34-18.55 137.69-18.18 137.04-17.8 136.46-17.2 135.89-16.6 135.44-15.88 134.99-15.15 134.79-14.4L134.79-14.4Q134.54-13.55 134.44-13.55L134.44-13.55Q134.29-13.55 134.29-14.4L134.29-14.4Q134.44-15.35 134.94-16.28 135.44-17.2 136.19-17.93 136.94-18.65 137.84-19.13 138.74-19.6 139.69-19.6L139.69-19.6Q140.64-19.6 141.11-18.93 141.59-18.25 141.79-17.28 141.99-16.3 141.96-15.28 141.94-14.25 141.84-13.65L141.84-13.65Q141.64-12.3 141.21-11.03 140.79-9.75 140.19-8.45L140.19-8.45Q139.89-7.85 139.29-6.98 138.69-6.1 137.91-5.3 137.14-4.5 136.26-3.93 135.39-3.35 134.64-3.35ZM136.24-2.4L136.24-2.4Q136.29-2.1 135.76-1.9 135.24-1.7 134.69-1.7L134.69-1.7Q133.14-1.75 132.31-2.7 131.49-3.65 131.16-4.95 130.84-6.25 130.86-7.65 130.89-9.05 130.99-10L130.99-10Q131.19-11.65 131.79-13.7 132.39-15.75 133.49-17.55 134.59-19.35 136.19-20.58 137.79-21.8 139.99-21.8L139.99-21.8Q141.44-21.8 142.31-21.05 143.19-20.3 143.61-19.2 144.04-18.1 144.11-16.82 144.19-15.55 144.04-14.5L144.04-14.5Q143.94-13.35 143.69-12.4 143.44-11.45 142.99-10.3L142.99-10.3Q142.84-9.95 142.59-9.5 142.34-9.05 142.04-9.1L142.04-9.1Q141.89-9.15 141.96-9.5 142.04-9.85 142.16-10.38 142.29-10.9 142.44-11.48 142.59-12.05 142.64-12.55L142.64-12.55Q142.74-13.4 142.76-14.68 142.79-15.95 142.56-17.15 142.34-18.35 141.74-19.2 141.14-20.05 139.94-20.05L139.94-20.05Q138.19-20.05 136.71-18.93 135.24-17.8 134.14-16.18 133.04-14.55 132.36-12.78 131.69-11 131.54-9.65L131.54-9.65Q131.44-8.85 131.49-7.65 131.54-6.45 131.86-5.28 132.19-4.1 132.94-3.25 133.69-2.4 134.99-2.35L134.99-2.35Q135.39-2.3 135.76-2.43 136.14-2.55 136.24-2.4ZM163.48-13.85L163.48-13.85Q163.63-15.2 163.53-16.7 163.43-18.2 162.91-19.48 162.38-20.75 161.31-21.6 160.23-22.45 158.48-22.45L158.48-22.45Q156.13-22.45 154.38-21.18 152.63-19.9 151.38-18.03 150.13-16.15 149.43-14.03 148.73-11.9 148.53-10.15L148.53-10.15Q148.23-7.75 148.46-6 148.68-4.25 149.28-3.13 149.88-2 150.81-1.45 151.73-0.9 152.83-0.9L152.83-0.9Q154.38-0.85 156.11-1.78 157.83-2.7 159.33-4.38 160.83-6.05 161.96-8.47 163.08-10.9 163.48-13.85ZM147.38-10.4L147.38-10.4Q147.58-12.4 148.38-14.8 149.18-17.2 150.61-19.25 152.03-21.3 154.03-22.68 156.03-24.05 158.68-24.05L158.68-24.05Q160.68-24.05 161.98-23.1 163.28-22.15 163.98-20.68 164.68-19.2 164.88-17.48 165.08-15.75 164.88-14.2L164.88-14.2Q164.43-10.6 163.13-7.95 161.83-5.3 160.08-3.53 158.33-1.75 156.38-0.88 154.43 0 152.63 0L152.63 0Q151.28 0 150.21-0.6 149.13-1.2 148.41-2.48 147.68-3.75 147.41-5.73 147.13-7.7 147.38-10.4ZM152.98-3.35L152.98-3.35Q152.73-3.35 152.48-3.53 152.23-3.7 152.08-3.95 151.93-4.2 151.88-4.45 151.83-4.7 152.08-4.8L152.08-4.8Q152.23-4.85 152.48-4.45 152.73-4.05 153.03-4.05L153.03-4.05Q153.53-4.05 154.21-4.7 154.88-5.35 155.51-6.23 156.13-7.1 156.61-7.95 157.08-8.8 157.28-9.2L157.28-9.2Q157.48-9.6 157.68-10.23 157.88-10.85 158.06-11.5 158.23-12.15 158.36-12.78 158.48-13.4 158.53-13.85L158.53-13.85Q158.78-16.1 158.43-17.32 158.08-18.55 157.28-18.55L157.28-18.55Q156.68-18.55 156.03-18.18 155.38-17.8 154.81-17.2 154.23-16.6 153.78-15.88 153.33-15.15 153.13-14.4L153.13-14.4Q152.88-13.55 152.78-13.55L152.78-13.55Q152.63-13.55 152.63-14.4L152.63-14.4Q152.78-15.35 153.28-16.28 153.78-17.2 154.53-17.93 155.28-18.65 156.18-19.13 157.08-19.6 158.03-19.6L158.03-19.6Q158.98-19.6 159.46-18.93 159.93-18.25 160.13-17.28 160.33-16.3 160.31-15.28 160.28-14.25 160.18-13.65L160.18-13.65Q159.98-12.3 159.56-11.03 159.13-9.75 158.53-8.45L158.53-8.45Q158.23-7.85 157.63-6.98 157.03-6.1 156.26-5.3 155.48-4.5 154.61-3.93 153.73-3.35 152.98-3.35ZM154.58-2.4L154.58-2.4Q154.63-2.1 154.11-1.9 153.58-1.7 153.03-1.7L153.03-1.7Q151.48-1.75 150.66-2.7 149.83-3.65 149.51-4.95 149.18-6.25 149.21-7.65 149.23-9.05 149.33-10L149.33-10Q149.53-11.65 150.13-13.7 150.73-15.75 151.83-17.55 152.93-19.35 154.53-20.58 156.13-21.8 158.33-21.8L158.33-21.8Q159.78-21.8 160.66-21.05 161.53-20.3 161.96-19.2 162.38-18.1 162.46-16.82 162.53-15.55 162.38-14.5L162.38-14.5Q162.28-13.35 162.03-12.4 161.78-11.45 161.33-10.3L161.33-10.3Q161.18-9.95 160.93-9.5 160.68-9.05 160.38-9.1L160.38-9.1Q160.23-9.15 160.31-9.5 160.38-9.85 160.51-10.38 160.63-10.9 160.78-11.48 160.93-12.05 160.98-12.55L160.98-12.55Q161.08-13.4 161.11-14.68 161.13-15.95 160.91-17.15 160.68-18.35 160.08-19.2 159.48-20.05 158.28-20.05L158.28-20.05Q156.53-20.05 155.06-18.93 153.58-17.8 152.48-16.18 151.38-14.55 150.71-12.78 150.03-11 149.88-9.65L149.88-9.65Q149.78-8.85 149.83-7.65 149.88-6.45 150.21-5.28 150.53-4.1 151.28-3.25 152.03-2.4 153.33-2.35L153.33-2.35Q153.73-2.3 154.11-2.43 154.48-2.55 154.58-2.4ZM178.98-12.65L178.98-12.65Q178.28-9.65 178.03-6.4 177.78-3.15 178.43-0.1L178.43-0.1Q178.48 0 178.41 0.13 178.33 0.25 178.23 0L178.23 0Q177.38-1.65 177.06-3.35 176.73-5.05 176.73-6.73 176.73-8.4 176.98-10.1 177.23-11.8 177.63-13.45L177.63-13.45Q177.68-13.65 177.83-14.28 177.98-14.9 178.06-15.53 178.13-16.15 178.03-16.5 177.93-16.85 177.43-16.5L177.43-16.5Q176.28-15.65 175.31-14.38 174.33-13.1 173.73-11.9L173.73-11.9Q173.68-11.8 173.51-11.33 173.33-10.85 173.16-10.3 172.98-9.75 172.83-9.22 172.68-8.7 172.63-8.55L172.63-8.55Q172.23-7 171.63-5.6 171.03-4.2 170.63-3L170.63-3Q170.48-2.5 170.43-2.55L170.43-2.55Q170.18-2.55 170.18-3L170.18-3Q169.93-5.45 170.61-7.73 171.28-10 172.08-12.4L172.08-12.4Q172.58-13.95 173.01-15.48 173.43-17 173.38-18.85L173.38-18.85Q173.33-20.15 174.36-21.4 175.38-22.65 177.43-23.5L177.43-23.5Q178.63-24 179.68-23.95 180.73-23.9 181.63-23.5 182.53-23.1 183.23-22.35 183.93-21.6 184.38-20.7L184.38-20.7Q184.68-21.25 185.28-21.88 185.88-22.5 186.71-22.95 187.53-23.4 188.56-23.63 189.58-23.85 190.83-23.65L190.83-23.65Q191.73-23.5 192.41-23.05 193.08-22.6 193.61-22.03 194.13-21.45 194.43-20.85 194.73-20.25 194.88-19.85L194.88-19.85Q195.43-18.2 195.46-16.15 195.48-14.1 195.03-12.45L195.03-12.45Q194.28-9.75 193.26-7.65 192.23-5.55 191.88-3.9L191.88-3.9Q191.73-3.35 191.68-3.35L191.68-3.35Q191.48-3.35 191.46-3.55 191.43-3.75 191.38-3.95L191.38-3.95Q191.28-5 191.66-6.63 192.03-8.25 192.53-10.13 193.03-12 193.43-13.95 193.83-15.9 193.78-17.57 193.73-19.25 193.03-20.5 192.33-21.75 190.63-22.2L190.63-22.2Q189.28-22.55 188.26-22.23 187.23-21.9 186.53-21.5L186.53-21.5Q185.48-20.8 185.18-20.03 184.88-19.25 184.88-18.55L184.88-18.55Q185.73-20.1 187.13-21.03 188.53-21.95 190.43-21.35L190.43-21.35Q191.68-20.95 192.21-19.85 192.73-18.75 192.78-17.4 192.83-16.05 192.51-14.7 192.18-13.35 191.73-12.45L191.73-12.45Q191.68-12.35 191.48-11.98 191.28-11.6 191.03-11.65L191.03-11.65Q190.98-11.65 191.01-12.05 191.03-12.45 191.03-12.65L191.03-12.65Q191.18-13.25 191.23-14.05 191.28-14.85 191.26-15.7 191.23-16.55 191.13-17.35 191.03-18.15 190.83-18.7L190.83-18.7Q190.58-19.4 190.06-19.63 189.53-19.85 188.93-19.75 188.33-19.65 187.76-19.35 187.18-19.05 186.78-18.7L186.78-18.7Q185.68-17.75 185.43-16.98 185.18-16.2 185.03-15.2L185.03-15.2Q185.63-16.2 186.51-17.07 187.38-17.95 188.23-18.5L188.23-18.5Q188.68-18.7 189.01-18.65 189.33-18.6 189.56-18.38 189.78-18.15 189.88-17.82 189.98-17.5 190.03-17.25L190.03-17.25Q190.18-15.6 189.91-14.35 189.63-13.1 189.26-11.78 188.88-10.45 188.66-8.83 188.43-7.2 188.73-4.8L188.73-4.8Q188.98-3.05 189.78-1.65 190.58-0.25 191.78 0.1L191.78 0.1Q192.13 0.2 191.96 0.25 191.78 0.3 191.68 0.3L191.68 0.3Q190.78 0.2 189.98-0.4 189.18-1 188.56-1.9 187.93-2.8 187.53-3.9 187.13-5 187.08-6.1L187.08-6.1Q186.93-8.35 187.36-10.38 187.78-12.4 188.18-13.85L188.18-13.85Q188.28-14.25 188.41-14.88 188.53-15.5 188.51-15.95 188.48-16.4 188.18-16.48 187.88-16.55 187.18-15.9L187.18-15.9Q186.18-15 185.43-13.95 184.68-12.9 184.33-11.6L184.33-11.6Q183.18-7.45 181.03-3.65L181.03-3.65Q180.93-3.45 180.78-3.28 180.63-3.1 180.58-3.15L180.58-3.15Q180.48-3.15 180.53-3.4 180.58-3.65 180.63-3.9L180.63-3.9Q180.93-5.65 181.38-7.3 181.83-8.95 182.26-10.68 182.68-12.4 183.01-14.23 183.33-16.05 183.38-18.15L183.38-18.15Q183.28-18.85 183.11-19.6 182.93-20.35 182.08-21.35L182.08-21.35Q181.08-22.45 179.73-22.5 178.38-22.55 177.53-22.25L177.53-22.25Q176.98-22.1 176.36-21.7 175.73-21.3 175.21-20.75 174.68-20.2 174.36-19.48 174.03-18.75 174.18-17.9L174.18-17.9Q174.73-18.9 175.46-19.85 176.18-20.8 177.33-21.3L177.33-21.3Q177.68-21.45 178.23-21.58 178.78-21.7 179.38-21.73 179.98-21.75 180.58-21.55 181.18-21.35 181.63-20.8L181.63-20.8Q182.43-19.8 182.51-19 182.58-18.2 182.53-17.4L182.53-17.4Q182.43-15.95 182.08-14.68 181.73-13.4 181.18-12.25L181.18-12.25Q181.13-12.1 180.93-11.78 180.73-11.45 180.63-11.45L180.63-11.45Q180.53-11.5 180.51-11.88 180.48-12.25 180.58-12.4L180.58-12.4Q180.63-12.95 180.73-14.03 180.83-15.1 180.86-16.28 180.88-17.45 180.73-18.43 180.58-19.4 180.08-19.8L180.08-19.8Q179.63-20.15 178.73-20 177.83-19.85 177.13-19.3L177.13-19.3Q176.43-18.75 175.96-18.25 175.48-17.75 175.18-17.23 174.88-16.7 174.66-16.07 174.43-15.45 174.28-14.6L174.28-14.6Q174.88-15.75 175.68-16.75 176.48-17.75 177.63-18.45L177.63-18.45Q178.43-19 178.88-18.9 179.33-18.8 179.51-18.35 179.68-17.9 179.66-17.2 179.63-16.5 179.58-15.9L179.58-15.9Q179.48-15.1 179.33-14.25 179.18-13.4 178.98-12.65ZM193.28 0.1L193.28 0.1Q193.28 0.1 193.03 0.1L193.03 0.1Q192.93 0.1 192.78 0.05L192.78 0.05Q192.08-0.1 191.28-0.58 190.48-1.05 189.93-2.35L189.93-2.35Q189.73-2.85 189.63-3.65 189.53-4.45 189.53-5.2 189.53-5.95 189.63-6.5 189.73-7.05 189.93-7L189.93-7Q189.98-7 190.06-6.78 190.13-6.55 190.18-6.25 190.23-5.95 190.28-5.65 190.33-5.35 190.33-5.2L190.33-5.2Q190.43-4.5 190.58-3.83 190.73-3.15 190.98-2.6L190.98-2.6Q191.23-1.85 191.91-1.03 192.58-0.2 193.13-0.1L193.13-0.1Q193.38 0 193.28 0.1ZM179.83 0L179.83 0Q179.93 0.35 179.83 0.35L179.83 0.35Q179.58 0.35 179.43 0.1L179.43 0.1Q179.18-0.2 178.93-0.78 178.68-1.35 178.73-2.75L178.73-2.75Q178.73-3.3 178.83-4.08 178.93-4.85 179.06-5.53 179.18-6.2 179.33-6.65 179.48-7.1 179.68-7.05L179.68-7.05Q179.73-7.05 179.76-6.83 179.78-6.6 179.81-6.3 179.83-6 179.83-5.73 179.83-5.45 179.83-5.35L179.83-5.35Q179.83-4.55 179.78-3.93 179.73-3.3 179.73-2.6L179.73-2.6Q179.73-1.65 179.73-1 179.73-0.35 179.83 0ZM172.43-16.6L172.43-16.6Q171.88-14.7 170.96-12.85 170.03-11 169.43-9.3L169.43-9.3Q169.38-9.2 169.26-8.93 169.13-8.65 168.93-8.7L168.93-8.7Q168.83-8.75 168.81-9.03 168.78-9.3 168.78-9.45L168.78-9.45Q168.78-10.25 169.06-11.58 169.33-12.9 169.63-13.75L169.63-13.75Q169.73-14.05 170.01-15.28 170.28-16.5 170.51-17.95 170.73-19.4 170.81-20.75 170.88-22.1 170.53-22.7L170.53-22.7Q170.33-23.05 170.53-23.05L170.53-23.05Q170.68-23.05 170.93-22.8L170.93-22.8Q171.53-22.25 171.91-21.45 172.28-20.65 172.46-19.78 172.63-18.9 172.61-18.05 172.58-17.2 172.43-16.6ZM169.13 0.05L169.13 0.05Q167.58-1 166.76-2.25 165.93-3.5 165.63-4.85 165.33-6.2 165.41-7.6 165.48-9 165.78-10.35L165.78-10.35Q166.18-12.15 166.81-13.93 167.43-15.7 168.01-17.38 168.58-19.05 168.91-20.65 169.23-22.25 168.98-23.7L168.98-23.7Q168.98-23.9 169.03-23.9L169.03-23.9Q169.13-23.9 169.28-23.65L169.28-23.65Q170.18-22.05 170.13-20.35 170.08-18.65 169.58-16.88 169.08-15.1 168.36-13.28 167.63-11.45 167.23-9.6L167.23-9.6Q166.98-8.45 166.91-7.18 166.83-5.9 167.08-4.65 167.33-3.4 167.91-2.2 168.48-1 169.48-0.05L169.48-0.05Q169.68 0.05 169.58 0.15L169.58 0.15Q169.48 0.25 169.36 0.18 169.23 0.1 169.13 0.05ZM171.03 0.25L171.03 0.25Q170.88 0.35 170.63 0.1L170.63 0.1Q170.08-0.3 169.56-0.75 169.03-1.2 168.53-2.2L168.53-2.2Q168.33-2.55 168.23-3.1 168.13-3.65 168.13-4.17 168.13-4.7 168.21-5.05 168.28-5.4 168.43-5.4L168.43-5.4Q168.63-5.35 168.76-4.85 168.88-4.35 168.98-4.2L168.98-4.2Q169.18-3.65 169.33-3.18 169.48-2.7 169.68-2.25L169.68-2.25Q169.98-1.55 170.28-1.05 170.58-0.55 170.98-0.05L170.98-0.05Q171.03 0 171.08 0.1 171.13 0.2 171.03 0.25Z" fill="#ffffff" data-fill-palette-color="primary"></path></g></svg></g></svg></g><g transform="matrix(1,0,0,1,0,96.46606934155595)"><svg viewBox="0 0 236.71872000000002 16.984902508474576" height="16.984902508474576" width="236.71872000000002"><g transform="matrix(1,0,0,1,0,0)"><svg width="236.71872000000002" viewBox="4.49 -36.01 648.14 46.51" height="16.984902508474576" data-palette-color="#ffffff"><path d="M9.5-27.15L9.5 0 4.49 0 4.49-35.01 9.5-35.01 30.54-7.86 30.54-35.01 35.55-35.01 35.55 0 30.54 0 9.5-27.15ZM66.04-21.19L66.04-10.55 48.83-10.55 48.83-4.81 66.04-4.81 66.04 0 48.83 0Q47.85 0 46.97-0.38 46.09-0.76 45.44-1.4 44.8-2.05 44.42-2.93 44.04-3.81 44.04-4.81L44.04-4.81 44.04-21.19Q44.04-22.19 44.42-23.07 44.8-23.95 45.44-24.6 46.09-25.24 46.97-25.62 47.85-26 48.83-26L48.83-26 61.23-26Q62.23-26 63.11-25.62 63.99-25.24 64.63-24.6 65.28-23.95 65.66-23.07 66.04-22.19 66.04-21.19L66.04-21.19ZM61.23-21.19L48.83-21.19 48.83-15.36 61.23-15.36 61.23-21.19ZM105.63-21.19L94.65-21.19 94.65 0 89.84 0 89.84-21.19 78.83-21.19 78.83 0 74.04 0 74.04-26 78.83-26 78.83-21.41Q78.88-22.36 79.27-23.21 79.66-24.05 80.31-24.67 80.95-25.29 81.81-25.65 82.66-26 83.64-26L83.64-26 89.84-26Q90.79-26 91.65-25.65 92.5-25.29 93.16-24.67 93.82-24.05 94.22-23.21 94.62-22.36 94.65-21.41L94.65-21.41Q94.7-22.36 95.08-23.21 95.45-24.05 96.1-24.67 96.75-25.29 97.6-25.65 98.46-26 99.43-26L99.43-26 105.63-26Q106.64-26 107.51-25.62 108.39-25.24 109.04-24.6 109.69-23.95 110.07-23.07 110.44-22.19 110.44-21.19L110.44-21.19 110.44 0 105.63 0 105.63-21.19ZM150.62-21.19L138.22-21.19 138.22-4.81 150.62-4.81 150.62-9.2 155.43-9.2 155.43-4.81Q155.43-3.81 155.06-2.93 154.68-2.05 154.03-1.4 153.38-0.76 152.5-0.38 151.63 0 150.62 0L150.62 0 138.22 0Q137.25 0 136.37-0.38 135.49-0.76 134.84-1.4 134.19-2.05 133.82-2.93 133.44-3.81 133.44-4.81L133.44-4.81 133.44-21.19Q133.44-22.19 133.82-23.07 134.19-23.95 134.84-24.6 135.49-25.24 136.37-25.62 137.25-26 138.22-26L138.22-26 150.62-26Q151.63-26 152.5-25.62 153.38-25.24 154.03-24.6 154.68-23.95 155.06-23.07 155.43-22.19 155.43-21.19L155.43-21.19 155.43-16.8 150.62-16.8 150.62-21.19ZM162.93-4.81L179.14-4.81 179.14-10.84 167.74-10.84Q166.74-10.84 165.86-11.22 164.98-11.6 164.33-12.24 163.68-12.89 163.31-13.77 162.93-14.65 162.93-15.65L162.93-15.65 162.93-21.19Q162.93-22.19 163.31-23.07 163.68-23.95 164.33-24.6 164.98-25.24 165.86-25.62 166.74-26 167.74-26L167.74-26 182.95-26 182.95-21.19 167.74-21.19 167.74-15.65 179.14-15.65Q180.14-15.65 181.01-15.27 181.87-14.89 182.53-14.25 183.19-13.6 183.57-12.72 183.95-11.84 183.95-10.84L183.95-10.84 183.95-4.81Q183.95-3.81 183.57-2.93 183.19-2.05 182.53-1.4 181.87-0.76 181.01-0.38 180.14 0 179.14 0L179.14 0 162.93 0 162.93-4.81ZM191.44-4.81L191.44-11.35Q191.44-12.35 191.82-13.22 192.2-14.09 192.84-14.75 193.49-15.41 194.37-15.78 195.25-16.16 196.23-16.16L196.23-16.16 208.63-16.16 208.63-21.19 192.93-21.19 192.93-26 208.63-26Q209.63-26 210.51-25.62 211.39-25.24 212.03-24.6 212.68-23.95 213.06-23.07 213.44-22.19 213.44-21.19L213.44-21.19 213.44 0 208.63 0 208.63-4.39Q208.55-3.49 208.14-2.69 207.72-1.88 207.08-1.28 206.43-0.68 205.6-0.34 204.77 0 203.84 0L203.84 0 196.23 0Q195.25 0 194.37-0.38 193.49-0.76 192.84-1.4 192.2-2.05 191.82-2.93 191.44-3.81 191.44-4.81L191.44-4.81ZM196.23-11.35L196.23-4.81 208.63-4.81 208.63-11.35 196.23-11.35ZM245.39 0L238.63 0 226.23-11.11 226.23 0 221.44 0 221.44-36.01 226.23-36.01 226.23-15.75 237.63-26 244.39-26 230.43-13.45 245.39 0ZM285.87-21.19L285.87-10.55 268.65-10.55 268.65-4.81 285.87-4.81 285.87 0 268.65 0Q267.68 0 266.8-0.38 265.92-0.76 265.27-1.4 264.63-2.05 264.25-2.93 263.87-3.81 263.87-4.81L263.87-4.81 263.87-21.19Q263.87-22.19 264.25-23.07 264.63-23.95 265.27-24.6 265.92-25.24 266.8-25.62 267.68-26 268.65-26L268.65-26 281.06-26Q282.06-26 282.94-25.62 283.82-25.24 284.46-24.6 285.11-23.95 285.49-23.07 285.87-22.19 285.87-21.19L285.87-21.19ZM281.06-21.19L268.65-21.19 268.65-15.36 281.06-15.36 281.06-21.19ZM293.87-5.81L293.87-21.19Q293.87-22.19 294.25-23.07 294.63-23.95 295.28-24.6 295.92-25.24 296.8-25.62 297.68-26 298.66-26L298.66-26 307.27-26Q308.23-26 309.08-25.65 309.94-25.29 310.58-24.67 311.23-24.05 311.63-23.21 312.04-22.36 312.06-21.41L312.06-21.41 312.06-26 316.87-26 316.87 5.69Q316.87 6.69 316.49 7.57 316.11 8.45 315.47 9.09 314.82 9.74 313.94 10.12 313.06 10.5 312.06 10.5L312.06 10.5 296.87 10.5 296.87 5.69 312.06 5.69 312.06-1 298.66-1Q297.68-1 296.8-1.38 295.92-1.76 295.28-2.4 294.63-3.05 294.25-3.93 293.87-4.81 293.87-5.81L293.87-5.81ZM298.66-5.81L312.06-5.81 312.06-21.19 298.66-21.19 298.66-5.81ZM331.42 10.5L326.63 10.5 332.08-2.34 321.87-26 326.93-26 334.52-8.11 342.11-26 347.16-26 331.42 10.5ZM390.15-21.19L390.15-4.81Q390.15-3.81 389.77-2.93 389.4-2.05 388.75-1.4 388.1-0.76 387.22-0.38 386.34 0 385.34 0L385.34 0 371.94 0Q370.96 0 370.08-0.38 369.21-0.76 368.56-1.4 367.91-2.05 367.53-2.93 367.16-3.81 367.16-4.81L367.16-4.81 367.16-36.01 371.94-36.01 371.94-21.41Q371.99-22.36 372.38-23.21 372.77-24.05 373.42-24.67 374.06-25.29 374.92-25.65 375.77-26 376.75-26L376.75-26 385.34-26Q386.34-26 387.22-25.62 388.1-25.24 388.75-24.6 389.4-23.95 389.77-23.07 390.15-22.19 390.15-21.19L390.15-21.19ZM385.34-21.19L371.94-21.19 371.94-4.81 385.34-4.81 385.34-21.19ZM398.16-4.81L398.16-11.35Q398.16-12.35 398.54-13.22 398.92-14.09 399.56-14.75 400.21-15.41 401.09-15.78 401.97-16.16 402.94-16.16L402.94-16.16 415.35-16.16 415.35-21.19 399.65-21.19 399.65-26 415.35-26Q416.35-26 417.23-25.62 418.1-25.24 418.75-24.6 419.4-23.95 419.78-23.07 420.16-22.19 420.16-21.19L420.16-21.19 420.16 0 415.35 0 415.35-4.39Q415.27-3.49 414.86-2.69 414.44-1.88 413.8-1.28 413.15-0.68 412.32-0.34 411.49 0 410.56 0L410.56 0 402.94 0Q401.97 0 401.09-0.38 400.21-0.76 399.56-1.4 398.92-2.05 398.54-2.93 398.16-3.81 398.16-4.81L398.16-4.81ZM402.94-11.35L402.94-4.81 415.35-4.81 415.35-11.35 402.94-11.35ZM442.86-21.19L432.95-21.19 432.95 0 428.16 0 428.16-26 432.95-26 432.95-21.41Q432.99-22.36 433.39-23.21 433.78-24.05 434.42-24.67 435.07-25.29 435.92-25.65 436.78-26 437.76-26L437.76-26 442.86-26Q443.86-26 444.73-25.62 445.59-25.24 446.25-24.6 446.91-23.95 447.29-23.07 447.67-22.19 447.67-21.19L447.67-21.19 447.67-16.8 442.86-16.8 442.86-21.19ZM476.64-21.19L476.64-4.81Q476.64-3.81 476.27-2.93 475.89-2.05 475.24-1.4 474.59-0.76 473.71-0.38 472.84 0 471.84 0L471.84 0 458.43 0Q457.46 0 456.58-0.38 455.7-0.76 455.05-1.4 454.4-2.05 454.02-2.93 453.65-3.81 453.65-4.81L453.65-4.81 453.65-36.01 458.43-36.01 458.43-21.41Q458.48-22.36 458.87-23.21 459.26-24.05 459.91-24.67 460.56-25.29 461.41-25.65 462.26-26 463.24-26L463.24-26 471.84-26Q472.84-26 473.71-25.62 474.59-25.24 475.24-24.6 475.89-23.95 476.27-23.07 476.64-22.19 476.64-21.19L476.64-21.19ZM471.84-21.19L458.43-21.19 458.43-4.81 471.84-4.81 471.84-21.19ZM506.65-21.19L506.65-10.55 489.44-10.55 489.44-4.81 506.65-4.81 506.65 0 489.44 0Q488.46 0 487.58-0.38 486.7-0.76 486.05-1.4 485.41-2.05 485.03-2.93 484.65-3.81 484.65-4.81L484.65-4.81 484.65-21.19Q484.65-22.19 485.03-23.07 485.41-23.95 486.05-24.6 486.7-25.24 487.58-25.62 488.46-26 489.44-26L489.44-26 501.84-26Q502.84-26 503.72-25.62 504.6-25.24 505.24-24.6 505.89-23.95 506.27-23.07 506.65-22.19 506.65-21.19L506.65-21.19ZM501.84-21.19L489.44-21.19 489.44-15.36 501.84-15.36 501.84-21.19ZM529.35-21.19L519.44-21.19 519.44 0 514.65 0 514.65-26 519.44-26 519.44-21.41Q519.49-22.36 519.88-23.21 520.27-24.05 520.91-24.67 521.56-25.29 522.42-25.65 523.27-26 524.25-26L524.25-26 529.35-26Q530.35-26 531.22-25.62 532.08-25.24 532.74-24.6 533.4-23.95 533.78-23.07 534.16-22.19 534.16-21.19L534.16-21.19 534.16-16.8 529.35-16.8 529.35-21.19ZM539.63-4.81L555.84-4.81 555.84-10.84 544.43-10.84Q543.43-10.84 542.56-11.22 541.68-11.6 541.03-12.24 540.38-12.89 540-13.77 539.63-14.65 539.63-15.65L539.63-15.65 539.63-21.19Q539.63-22.19 540-23.07 540.38-23.95 541.03-24.6 541.68-25.24 542.56-25.62 543.43-26 544.43-26L544.43-26 559.64-26 559.64-21.19 544.43-21.19 544.43-15.65 555.84-15.65Q556.84-15.65 557.7-15.27 558.57-14.89 559.23-14.25 559.89-13.6 560.27-12.72 560.65-11.84 560.65-10.84L560.65-10.84 560.65-4.81Q560.65-3.81 560.27-2.93 559.89-2.05 559.23-1.4 558.57-0.76 557.7-0.38 556.84 0 555.84 0L555.84 0 539.63 0 539.63-4.81ZM591.14-21.19L591.14 0 586.33 0 586.33-21.19 572.92-21.19 572.92 0 568.14 0 568.14-36.01 572.92-36.01 572.92-21.41Q572.97-22.36 573.36-23.21 573.75-24.05 574.4-24.67 575.05-25.29 575.9-25.65 576.76-26 577.73-26L577.73-26 586.33-26Q587.33-26 588.21-25.62 589.09-25.24 589.73-24.6 590.38-23.95 590.76-23.07 591.14-22.19 591.14-21.19L591.14-21.19ZM621.63-21.19L621.63-4.81Q621.63-3.81 621.25-2.93 620.87-2.05 620.22-1.4 619.58-0.76 618.71-0.38 617.84 0 616.84 0L616.84 0 603.93 0Q602.95 0 602.07-0.38 601.19-0.76 600.55-1.4 599.9-2.05 599.52-2.93 599.14-3.81 599.14-4.81L599.14-4.81 599.14-21.19Q599.14-22.19 599.52-23.07 599.9-23.95 600.55-24.6 601.19-25.24 602.07-25.62 602.95-26 603.93-26L603.93-26 616.84-26Q617.84-26 618.71-25.62 619.58-25.24 620.22-24.6 620.87-23.95 621.25-23.07 621.63-22.19 621.63-21.19L621.63-21.19ZM616.84-21.19L603.93-21.19 603.93-4.81 616.84-4.81 616.84-21.19ZM652.63-21.19L652.63-4.81Q652.63-3.81 652.25-2.93 651.87-2.05 651.23-1.4 650.58-0.76 649.7-0.38 648.82 0 647.82 0L647.82 0 634.42 0 634.42 10.5 629.63 10.5 629.63-26 634.42-26 634.42-21.61Q634.49-22.53 634.91-23.33 635.32-24.12 635.96-24.72 636.59-25.32 637.43-25.66 638.28-26 639.23-26L639.23-26 647.82-26Q648.82-26 649.7-25.62 650.58-25.24 651.23-24.6 651.87-23.95 652.25-23.07 652.63-22.19 652.63-21.19L652.63-21.19ZM634.42-4.81L647.82-4.81 647.82-21.19 634.42-21.19 634.42-4.81Z" opacity="1" transform="matrix(1,0,0,1,0,0)" fill="#ffffff" class="slogan-text-1" data-fill-palette-color="secondary" id="text-1"></path></svg></g></svg></g></svg></g></svg></g><g><svg viewBox="0 0 159.92502795867705 159.92502795867705" height="159.92502795867705" width="159.92502795867705"><g><svg xmlns="http://www.w3.org/2000/svg" xmlns:xlink="http://www.w3.org/1999/xlink" xml:space="preserve" style="shape-rendering:geometricPrecision;text-rendering:geometricPrecision;image-rendering:optimizeQuality;" viewBox="0 0 6827 6827" x="0" y="0" fill-rule="evenodd" clip-rule="evenodd" height="159.92502795867705" width="159.92502795867705" class="icon-icon-0" data-fill-palette-color="accent" id="icon-0"><g fill="#ffffff" data-fill-palette-color="accent"><g fill="#ffffff" data-fill-palette-color="accent"><path class="" d="M1346 1893H5436C5480 1893 5516 1929 5516 1973V2478H5893C5937 2478 5973 2514 5973 2558V4268C5973 4312 5937 4348 5893 4348H5516V4853C5516 4897 5480 4933 5436 4933H1346C1302 4933 1266 4897 1266 4853V4348H933C889 4348 853 4312 853 4268V2558C853 2514 889 2478 933 2478H1266V1973C1266 1929 1302 1893 1346 1893M5356 2053H1426V2558C1426 2602 1390 2638 1346 2638H1013V4188H1346C1390 4188 1426 4224 1426 4268V4773H5356V4268C5356 4224 5392 4188 5436 4188H5813V2638H5436C5392 2638 5356 2602 5356 2558z" fill="#ffffff" fill-rule="nonzero" data-fill-palette-color="accent"></path><circle class="" cx="3413" cy="3413" r="1.9e+2" fill="#ffffff" data-fill-palette-color="accent"></circle><path class="" d="M3413 3147C3487 3147 3553 3177 3601 3225S3679 3340 3679 3413C3679 3487 3649 3553 3601 3601S3486 3679 3413 3679C3339 3679 3273 3649 3225 3601S3147 3486 3147 3413C3147 3339 3177 3273 3225 3225S3340 3147 3413 3147M3488 3338C3469 3319 3442 3307 3413 3307S3357 3319 3338 3338 3307 3384 3307 3413 3319 3469 3338 3488 3384 3519 3413 3519 3469 3507 3488 3488 3519 3442 3519 3413 3507 3357 3488 3338" fill="#ffffff" fill-rule="nonzero" data-fill-palette-color="accent"></path><path class="" d="M5437 3333C5481 3333 5517 3369 5517 3413S5481 3493 5437 3493H1389C1345 3493 1309 3457 1309 3413S1345 3333 1389 3333z" fill="#ffffff" fill-rule="nonzero" data-fill-palette-color="accent"></path><path class="" d="M1310 3186C1310 3142 1346 3106 1390 3106S1470 3142 1470 3186V3641C1470 3685 1434 3721 1390 3721S1310 3685 1310 3641z" fill="#ffffff" fill-rule="nonzero" data-fill-palette-color="accent"></path><path class="" d="M5357 3186C5357 3142 5393 3106 5437 3106S5517 3142 5517 3186V3641C5517 3685 5481 3721 5437 3721S5357 3685 5357 3641z" fill="#ffffff" fill-rule="nonzero" data-fill-palette-color="accent"></path><path class="" d="M2518 3186C2518 3142 2554 3106 2598 3106S2678 3142 2678 3186V3641C2678 3685 2642 3721 2598 3721S2518 3685 2518 3641z" fill="#ffffff" fill-rule="nonzero" data-fill-palette-color="accent"></path><path class="" d="M4149 3186C4149 3142 4185 3106 4229 3106S4309 3142 4309 3186V3641C4309 3685 4273 3721 4229 3721S4149 3685 4149 3641z" fill="#ffffff" fill-rule="nonzero" data-fill-palette-color="accent"></path><ellipse class="" cx="4882" cy="3413" rx="121" ry="186" fill="#ffffff" data-fill-palette-color="accent"></ellipse><path class="" d="M4882 3147C4944 3147 4998 3182 5034 3238 5064 3284 5082 3346 5082 3413S5063 3542 5034 3588C4998 3644 4944 3679 4882 3679S4766 3644 4730 3588C4700 3542 4682 3480 4682 3413S4701 3284 4730 3238C4766 3182 4820 3147 4882 3147M4900 3325C4893 3314 4886 3307 4882 3307 4877 3307 4871 3314 4864 3325 4850 3346 4842 3377 4842 3413S4850 3480 4864 3501C4871 3512 4878 3519 4882 3519 4887 3519 4893 3512 4900 3501 4914 3480 4922 3449 4922 3413S4914 3346 4900 3325" fill="#ffffff" fill-rule="nonzero" data-fill-palette-color="accent"></path><ellipse class="" cx="1945" cy="3413" rx="121" ry="186" fill="#ffffff" data-fill-palette-color="accent"></ellipse><path class="" d="M1945 3147C2007 3147 2061 3182 2097 3238 2127 3284 2145 3346 2145 3413S2126 3542 2097 3588C2061 3644 2007 3679 1945 3679S1829 3644 1793 3588C1763 3542 1745 3480 1745 3413S1764 3284 1793 3238C1829 3182 1883 3147 1945 3147M1963 3325C1956 3314 1949 3307 1945 3307 1940 3307 1934 3314 1927 3325 1913 3346 1905 3377 1905 3413S1913 3480 1927 3501C1934 3512 1941 3519 1945 3519 1950 3519 1956 3512 1963 3501 1977 3480 1985 3449 1985 3413S1977 3346 1963 3325" fill="#ffffff" fill-rule="nonzero" data-fill-palette-color="accent"></path></g></g></svg></g></svg></g></svg></g><defs></defs></svg><rect width="395.5199999999999" height="110.22298904389694" fill="none" stroke="none" visibility="hidden"></rect></g></svg></g></svg>