<svg xmlns="http://www.w3.org/2000/svg" version="1.1" xmlns:xlink="http://www.w3.org/1999/xlink" xmlns:svgjs="http://svgjs.dev/svgjs" width="1500" height="291" viewBox="0 0 1500 291"><g transform="matrix(1,0,0,1,-0.9090908593298082,-0.27531211756974017)"><svg viewBox="0 0 396 77" data-background-color="#ffffff" preserveAspectRatio="xMidYMid meet" height="291" width="1500" xmlns="http://www.w3.org/2000/svg" xmlns:xlink="http://www.w3.org/1999/xlink"><g id="tight-bounds" transform="matrix(1,0,0,1,0.23999998686306867,0.0728489108346082)"><svg viewBox="0 0 395.5199999999999 76.85430217833078" height="76.85430217833078" width="395.5199999999999"><g><svg viewBox="0 0 414.8511429729883 80.61057620618921" height="76.85430217833078" width="395.5199999999999"><g><svg viewBox="0 0 414.8511429729883 80.61057620618921" height="80.61057620618921" width="414.8511429729883"><g id="textblocktransform"><svg viewBox="0 0 414.8511429729883 80.61057620618921" height="80.61057620618921" width="414.8511429729883" id="textblock"><g><svg viewBox="0 0 414.8511429729883 54.86000000000001" height="54.86000000000001" width="414.8511429729883"><g><svg><g></g><g></g></svg></g><g><svg><g></g><g><svg></svg></g></svg></g><g id="text-0"><svg viewBox="0 0 414.8511429729883 54.86000000000001" height="54.86000000000001" width="414.8511429729883"><g><svg xmlns="http://www.w3.org/2000/svg" xmlns:xlink="http://www.w3.org/1999/xlink" version="1.1" x="0" y="0" viewBox="13.303614399788305 32.276 73.39660435021172 37.452000641155614" enable-background="new 0 0 100 100" xml:space="preserve" height="54.86000000000001" width="107.5119525184429" class="icon-dxe-0" data-fill-palette-color="accent" id="dxe-0"><g fill="#000000" data-fill-palette-color="accent"><path fill="#000000" d="M79.844 69.728L79.424 69.725H20.406C19.581 69.725 19.029 69.65 18.648 69.268 18.266 68.885 18.192 68.329 18.194 67.497L18.197 66.834C18.2 66.223 18.204 65.611 18.19 65 18.175 64.347 18.431 63.891 18.971 63.605 19.189 63.49 19.461 63.269 19.313 62.68 19.257 62.455 19.115 62.156 18.539 62.145A69 69 0 0 0 17.256 62.136H16.666C16.327 62.136 15.987 62.135 15.647 62.131 14.183 62.112 13.308 61.24 13.307 59.797 13.301 53.941 13.302 48.082 13.318 42.226 13.321 40.809 14.185 39.963 15.629 39.963L16.156 39.981C17.079 40.018 17.995 40.028 18.689 39.903 19.259 39.8 19.336 39.6 19.369 39.387 19.473 38.731 19.27 38.531 19.035 38.412 18.29 38.036 18.217 37.408 18.225 36.968 18.236 36.464 18.234 35.961 18.232 35.457 18.23 34.996 18.229 34.534 18.236 34.073 18.253 33.003 18.829 32.387 19.901 32.294 20.059 32.28 20.22 32.276 20.38 32.276L20.715 32.277 79.741 32.276C79.855 32.276 79.969 32.277 80.083 32.283 81.11 32.336 81.724 32.929 81.765 33.91 81.798 34.689 81.793 35.472 81.788 36.254L81.784 37.148C81.784 37.821 81.28 38.137 81.065 38.272 80.637 38.539 80.51 38.881 80.663 39.351 80.747 39.608 80.909 39.872 81.472 39.873L83.535 39.884C83.808 39.884 84.081 39.883 84.353 39.879H84.354C85.623 39.879 86.558 40.775 86.663 42.06 86.69 42.395 86.686 42.733 86.683 43.071L86.68 43.45 86.7 59.415C86.701 59.734 86.7 59.969 86.665 60.197 86.48 61.426 85.681 62.113 84.412 62.132 84.111 62.137 83.808 62.138 83.506 62.138L82.31 62.136 81.643 62.139C81.337 62.143 80.803 62.211 80.677 62.635 80.579 62.96 80.572 63.313 81.169 63.69 81.606 63.963 81.816 64.343 81.814 64.851 81.812 65.256 81.813 65.662 81.814 66.067 81.817 66.737 81.819 67.407 81.805 68.077 81.786 69.087 81.201 69.672 80.157 69.722A8 8 0 0 1 79.844 69.728M17.255 61.136C17.689 61.136 18.123 61.137 18.557 61.145 19.452 61.162 20.081 61.632 20.283 62.436 20.507 63.324 20.191 64.091 19.438 64.49 19.249 64.59 19.183 64.678 19.19 64.976 19.205 65.597 19.201 66.218 19.197 66.839L19.194 67.498C19.193 67.917 19.211 68.416 19.356 68.561 19.502 68.707 20.025 68.724 20.406 68.724L79.844 68.727C79.933 68.727 80.022 68.726 80.11 68.722 80.688 68.694 80.798 68.476 80.805 68.057 80.819 67.394 80.817 66.732 80.814 66.069 80.813 65.661 80.812 65.253 80.814 64.844 80.815 64.696 80.79 64.63 80.637 64.535 79.542 63.845 79.533 62.964 79.719 62.347 79.942 61.601 80.657 61.149 81.632 61.138L82.31 61.135 83.506 61.137C83.804 61.137 84.101 61.136 84.398 61.131 85.171 61.12 85.566 60.785 85.677 60.047 85.703 59.868 85.701 59.686 85.7 59.505L85.679 43.544 85.682 43.058C85.686 42.751 85.691 42.444 85.666 42.141 85.603 41.374 85.102 40.879 84.387 40.879 84.09 40.883 83.813 40.884 83.534 40.884L81.468 40.873C80.591 40.872 79.967 40.441 79.711 39.66 79.415 38.748 79.716 37.934 80.534 37.424 80.783 37.268 80.783 37.21 80.783 37.148L80.787 36.247C80.792 35.481 80.797 34.716 80.764 33.953 80.748 33.561 80.619 33.312 80.031 33.282A6 6 0 0 0 79.741 33.276L79.413 33.277 20.38 33.276C20.249 33.276 20.118 33.278 19.989 33.29 19.421 33.339 19.245 33.526 19.236 34.089 19.229 34.544 19.23 34.999 19.232 35.453 19.234 35.965 19.236 36.476 19.225 36.988 19.218 37.326 19.284 37.417 19.486 37.519 19.988 37.773 20.547 38.331 20.357 39.541 20.242 40.276 19.74 40.729 18.865 40.887 18.092 41.026 17.114 41.021 16.114 40.979L15.629 40.962C14.724 40.962 14.32 41.352 14.318 42.228A4676 4676 0 0 0 14.307 59.796C14.308 60.695 14.737 61.119 15.659 61.131 15.994 61.135 16.33 61.136 16.666 61.136zM71.513 56.854C70.894 56.854 70.279 56.579 69.684 56.035 68.959 55.371 68.331 54.621 67.725 53.896L67.564 53.704C67.398 53.507 66.892 53.295 66.405 53.295A0.9 0.9 0 0 0 66.048 53.356C66.014 53.373 65.996 53.416 65.957 53.641L65.87 54.157C65.8 54.582 65.729 55.008 65.636 55.428 65.378 56.558 64.678 56.799 64.135 56.802 63.309 56.802 62.728 56.308 62.533 55.446A30 30 0 0 1 62.183 53.648C62.138 53.369 62.102 53.336 61.829 53.336 59.369 53.354 56.928 53.351 54.476 53.339H54.475C54.238 53.339 54.13 53.399 54.008 53.595A4.69 4.69 0 0 1 49.994 55.838C48.375 55.838 46.886 55.007 46.009 53.616 45.872 53.399 45.756 53.337 45.49 53.337 43.052 53.353 40.629 53.359 38.202 53.334H38.201C37.859 53.334 37.808 53.378 37.764 53.698A19 19 0 0 1 37.423 55.515C37.229 56.328 36.678 56.795 35.912 56.796 35.144 56.796 34.578 56.32 34.391 55.524A25 25 0 0 1 34.039 53.656C33.998 53.395 33.966 53.346 33.652 53.328 32.981 53.287 32.565 53.448 32.233 53.947 31.943 54.381 31.585 54.752 31.238 55.111 31.113 55.24 30.988 55.369 30.867 55.501 30.021 56.424 29.26 56.855 28.47 56.855 27.462 56.855 26.636 56.129 25.893 55.345 25.579 55.014 25.282 54.665 24.984 54.318 24.804 54.108 24.625 53.898 24.442 53.691 24.274 53.502 23.768 53.299 23.282 53.299 23.085 53.299 22.982 53.335 22.947 53.351 22.924 53.378 22.899 53.499 22.884 53.571 22.836 53.807 22.792 54.045 22.748 54.281 22.682 54.638 22.616 54.996 22.536 55.349 22.457 55.697 22.217 56.751 21.049 56.803H21.044C20.187 56.803 19.624 56.283 19.419 55.38A19.85 19.85 0 0 1 19.401 46.623C19.676 45.38 20.526 45.193 21.007 45.192 22.2 45.192 22.444 46.27 22.525 46.625 22.65 47.18 22.745 47.744 22.828 48.308 22.867 48.577 22.892 48.648 23.252 48.673 23.925 48.714 24.359 48.536 24.724 48.01 25.201 47.32 25.8 46.755 26.381 46.209L26.685 45.921C27.737 44.915 29.063 44.884 30.184 45.84A11.7 11.7 0 0 1 32.208 48.079C32.5 48.501 32.854 48.665 33.466 48.665 33.628 48.665 33.795 48.654 33.964 48.641 33.945 48.63 33.962 48.546 33.97 48.503L34.077 47.925C34.162 47.458 34.247 46.99 34.357 46.529 34.559 45.681 35.121 45.196 35.899 45.196 36.522 45.223 37.208 45.488 37.45 46.605 37.566 47.142 37.684 47.687 37.74 48.243 37.779 48.628 37.844 48.661 38.158 48.661A516 516 0 0 1 45.519 48.658C45.732 48.658 45.826 48.618 45.977 48.386 46.881 46.987 48.375 46.152 49.975 46.152 51.542 46.152 52.966 46.924 53.882 48.27 54.087 48.572 54.258 48.664 54.611 48.664 57.029 48.642 59.399 48.644 61.782 48.661 62.048 48.661 62.097 48.619 62.098 48.619 62.098 48.619 62.138 48.572 62.151 48.383A7.6 7.6 0 0 1 62.502 46.494C62.86 45.424 63.576 45.2 64.113 45.2 64.682 45.203 65.4 45.455 65.644 46.638 65.761 47.215 65.855 47.795 65.942 48.376 65.976 48.61 66.005 48.653 66.28 48.667 67.005 48.703 67.419 48.55 67.773 48.042 68.236 47.378 68.816 46.809 69.377 46.258L69.564 46.074C70.824 44.833 72.197 44.829 73.472 46.064 74.206 46.774 74.869 47.518 75.64 48.417 75.729 48.512 76.211 48.687 76.728 48.687 76.927 48.687 77.029 48.657 77.051 48.646H77.05C77.037 48.646 77.05 48.576 77.059 48.529L77.08 48.424C77.126 48.208 77.152 47.99 77.18 47.772 77.231 47.366 77.283 46.947 77.44 46.522 77.575 46.159 77.933 45.198 79.019 45.198 80.26 45.255 80.499 46.321 80.579 46.671 80.894 48.083 80.984 49.479 81.062 51.027L81.056 51.191C80.978 52.545 80.898 53.945 80.574 55.314 80.34 56.304 79.822 56.807 79.036 56.807 77.739 56.741 77.505 55.652 77.428 55.294A25 25 0 0 1 77.101 53.55C77.077 53.373 77.075 53.359 76.77 53.331 76.108 53.274 75.65 53.459 75.25 54.019 74.767 54.696 74.138 55.369 73.328 56.074 72.729 56.591 72.118 56.854 71.513 56.854M66.404 52.295C67.021 52.295 67.886 52.534 68.329 53.062L68.491 53.255C69.077 53.955 69.682 54.679 70.358 55.298 71.173 56.044 71.832 56.045 72.672 55.315 73.421 54.663 73.998 54.047 74.436 53.434 75.043 52.584 75.804 52.239 76.857 52.33 77.16 52.357 77.957 52.429 78.091 53.408 78.168 53.97 78.287 54.525 78.406 55.079 78.545 55.725 78.745 55.787 78.993 55.801 79.188 55.797 79.43 55.804 79.601 55.078 79.905 53.794 79.979 52.499 80.057 51.128L80.064 51.019C79.988 49.571 79.901 48.22 79.602 46.884 79.462 46.261 79.281 46.204 79.058 46.194H79.054C78.758 46.194 78.588 46.299 78.377 46.865 78.261 47.179 78.218 47.525 78.172 47.89 78.142 48.137 78.11 48.383 78.059 48.625 78.004 48.922 77.938 49.288 77.545 49.51 77.347 49.624 77.071 49.681 76.729 49.681 76.2 49.681 75.271 49.516 74.881 49.061 74.129 48.184 73.484 47.459 72.777 46.776 71.892 45.919 71.141 45.918 70.266 46.78L70.078 46.965C69.55 47.484 69.004 48.02 68.594 48.608 67.933 49.558 67.073 49.668 66.485 49.668 66.401 49.668 66.316 49.666 66.229 49.661 65.489 49.623 65.059 49.238 64.954 48.517A33 33 0 0 0 64.666 46.833C64.545 46.245 64.338 46.195 64.118 46.194 63.892 46.194 63.64 46.241 63.451 46.804A6.6 6.6 0 0 0 63.15 48.446C63.065 49.655 62.109 49.655 61.795 49.655A438 438 0 0 0 54.639 49.658H54.638C53.928 49.658 53.449 49.402 53.058 48.827 52.33 47.759 51.208 47.146 49.977 47.146 48.7 47.146 47.549 47.794 46.819 48.924 46.492 49.428 46.095 49.653 45.529 49.653 43.063 49.641 40.63 49.633 38.185 49.656 37.31 49.656 36.835 49.213 36.747 48.338 36.697 47.838 36.585 47.321 36.477 46.822 36.354 46.258 36.146 46.202 35.944 46.193 35.766 46.191 35.466 46.192 35.331 46.757 35.226 47.201 35.144 47.651 35.062 48.101L34.953 48.69C34.906 48.933 34.78 49.576 34.058 49.634A8 8 0 0 1 33.466 49.662C32.876 49.662 32.018 49.557 31.386 48.646A10.7 10.7 0 0 0 29.534 46.597C28.795 45.967 28.066 45.979 27.374 46.64L27.064 46.933C26.497 47.467 25.961 47.972 25.544 48.575 24.981 49.386 24.219 49.73 23.179 49.667 22.386 49.611 21.947 49.213 21.835 48.449A21 21 0 0 0 21.546 46.842C21.409 46.236 21.237 46.189 21.01 46.189 20.758 46.189 20.506 46.24 20.374 46.836A18.86 18.86 0 0 0 20.391 55.156C20.537 55.802 20.848 55.802 20.964 55.802 21.232 55.79 21.418 55.735 21.557 55.124 21.634 54.784 21.697 54.439 21.761 54.096 21.806 53.853 21.851 53.61 21.901 53.368 21.956 53.099 22.047 52.651 22.539 52.432A1.8 1.8 0 0 1 23.279 52.295C23.887 52.295 24.743 52.523 25.186 53.023 25.374 53.234 25.558 53.45 25.742 53.665 26.028 54 26.313 54.335 26.616 54.654 27.411 55.493 27.964 55.851 28.467 55.851 28.95 55.851 29.493 55.514 30.127 54.822 30.254 54.683 30.385 54.549 30.516 54.413 30.847 54.071 31.159 53.748 31.398 53.39 31.929 52.594 32.669 52.265 33.709 52.327 34.478 52.373 34.908 52.756 35.025 53.498 35.102 53.995 35.211 54.647 35.362 55.293 35.466 55.734 35.694 55.794 35.904 55.794 36.044 55.794 36.326 55.793 36.448 55.28 36.582 54.717 36.691 54.137 36.771 53.558 36.883 52.744 37.358 52.33 38.183 52.33 40.661 52.354 43.054 52.348 45.475 52.333 46.097 52.333 46.531 52.57 46.851 53.079 47.554 54.194 48.698 54.834 49.99 54.834 51.288 54.834 52.47 54.173 53.153 53.065 53.458 52.573 53.886 52.335 54.466 52.335 56.932 52.347 59.366 52.35 61.811 52.332 62.592 52.332 63.043 52.72 63.166 53.484 63.261 54.066 63.374 54.645 63.504 55.221 63.618 55.727 63.868 55.797 64.122 55.797 64.333 55.796 64.53 55.749 64.655 55.202 64.745 54.803 64.811 54.395 64.879 53.99L64.958 53.52C65.016 53.179 65.099 52.696 65.608 52.451 65.831 52.349 66.098 52.295 66.404 52.295" data-fill-palette-color="accent"></path></g></svg></g><g transform="matrix(1,0,0,1,128.4684725184429,0)"><svg width="286.38267045454546" viewBox="0.82222211112 -39.2 286.35232331150496 54.8599999324" height="54.86000000000001" data-palette-color="#000000"><path d="M11.6-36.15L11.6-36.15Q11.4-36.6 11.5-36.6L11.5-36.6Q11.65-36.6 11.85-36.38 12.05-36.15 12.1-36.1L12.1-36.1Q12.6-35.35 13.2-34.48 13.8-33.6 14.35-32.4 14.9-31.2 15.35-29.63 15.8-28.05 16.05-25.9L16.05-25.9Q16.35-23.45 16.18-21.08 16-18.7 15.6-16.3L15.6-16.3Q15.55-16.2 15.5-15.8 15.45-15.4 15.3-15.4L15.3-15.4Q15.2-15.4 15.1-15.78 15-16.15 15-16.3L15-16.3Q14.9-16.85 14.8-17.6 14.7-18.35 14.63-19.18 14.55-20 14.53-20.78 14.5-21.55 14.5-22.15L14.5-22.15Q14.5-22.35 14.48-23.03 14.45-23.7 14.4-24.6 14.35-25.5 14.23-26.58 14.1-27.65 13.95-28.7L13.95-28.7Q14.05-27.15 13.95-25.6 13.85-24.05 13.7-22.48 13.55-20.9 13.45-19.33 13.35-17.75 13.45-16.15L13.45-16.15Q13.6-13.05 14.7-9.85 15.8-6.65 18.2-4.4L18.2-4.4Q18.5-4.1 18.45-4.1L18.45-4.1Q18.35-4.05 18.1-4.2L18.1-4.2Q16.35-5.2 15.2-6.6 14.05-8 13.33-9.65 12.6-11.3 12.25-13.08 11.9-14.85 11.85-16.65L11.85-16.65Q11.85-16.8 11.83-16.93 11.8-17.05 11.8-17.2L11.8-17.2Q10.8-14.35 9.58-11.7 8.35-9.05 7.18-6.6 6-4.15 4.98-1.98 3.95 0.2 3.35 2.05L3.35 2.05Q3.25 2.3 3.2 2.3L3.2 2.3Q3.1 2.3 3.1 2.15 3.1 2 3.1 1.95L3.1 1.95Q3.15-0.4 4.05-2.98 4.95-5.55 6.18-8.33 7.4-11.1 8.75-14.03 10.1-16.95 11.1-20L11.1-20Q11.7-21.95 12.13-24.05 12.55-26.15 12.65-28.25 12.75-30.35 12.5-32.38 12.25-34.4 11.6-36.15ZM17.8-7.35L17.8-7.35Q18.35-6.2 19.25-5.2L19.25-5.2Q19.6-7.3 20.6-9.38 21.6-11.45 22.88-13.55 24.15-15.65 25.55-17.75 26.95-19.85 28.15-22L28.15-22Q29.05-23.55 29.68-25.35 30.3-27.15 30.58-29.03 30.85-30.9 30.73-32.75 30.6-34.6 29.95-36.25L29.95-36.25Q29.8-36.5 29.9-36.6L29.9-36.6Q30-36.7 30.23-36.48 30.45-36.25 30.5-36.15L30.5-36.15Q31.1-35.3 31.48-33.93 31.85-32.55 32.02-30.88 32.2-29.2 32.2-27.35 32.2-25.5 32.05-23.65L32.05-23.65Q31.85-21.2 31.33-18.3 30.8-15.4 30.05-13L30.05-13Q30-12.9 29.88-12.55 29.75-12.2 29.6-12.2L29.6-12.2Q29.5-12.25 29.45-12.63 29.4-13 29.4-13.1L29.4-13.1Q29.4-13.65 29.43-14.43 29.45-15.2 29.5-16.03 29.55-16.85 29.63-17.63 29.7-18.4 29.8-18.95L29.8-18.95Q29.85-19.25 29.98-20.33 30.1-21.4 30.2-22.75L30.2-22.75Q29.6-21.35 29.25-20.25 28.9-19.15 28.65-18.1 28.4-17.05 28.23-15.9 28.05-14.75 27.9-13.2L27.9-13.2Q27.75-11.65 27.78-9.95 27.8-8.25 28.13-6.6 28.45-4.95 29.08-3.38 29.7-1.8 30.7-0.5L30.7-0.5Q30.9-0.2 30.8-0.15L30.8-0.15Q30.7-0.1 30.55-0.25L30.55-0.25Q28.95-1.55 28.03-3.18 27.1-4.8 26.65-6.6 26.2-8.4 26.18-10.28 26.15-12.15 26.35-13.95L26.35-13.95Q26.45-14.6 26.53-15.25 26.6-15.9 26.7-16.6L26.7-16.6Q25.55-14.75 24.4-13 23.25-11.25 22.25-9.53 21.25-7.8 20.48-6.13 19.7-4.45 19.3-2.8L19.3-2.8Q19.2-2.55 19.2-2.55L19.2-2.55Q19.1-2.55 19.1-2.75 19.1-2.95 19.1-3L19.1-3Q19.1-3.4 19.1-3.8 19.1-4.2 19.2-4.6L19.2-4.6Q18.8-4.8 18.5-4.98 18.2-5.15 17.93-5.4 17.65-5.65 17.38-6 17.1-6.35 16.8-6.9L16.8-6.9Q16.55-7.4 16.3-8.1 16.05-8.8 15.88-9.47 15.7-10.15 15.68-10.63 15.65-11.1 15.8-11.1L15.8-11.1Q15.9-11.1 16.03-10.93 16.15-10.75 16.3-10.5 16.45-10.25 16.55-10 16.65-9.75 16.7-9.65L16.7-9.65Q16.95-9.05 17.23-8.47 17.5-7.9 17.8-7.35ZM18.85-17.1L18.85-16.6Q19.95-18.75 21.13-20.78 22.3-22.8 23-24L23-24Q24.2-26.15 25.5-28.23 26.8-30.3 27.75-31.9L27.75-31.9Q27.85-32.15 27.98-32.35 28.1-32.55 28.2-32.45L28.2-32.45Q28.3-32.45 28.25-32.2 28.2-31.95 28.15-31.7L28.15-31.7Q27.45-28.1 25.63-24.9 23.8-21.7 21.8-18.45L21.8-18.45Q21.1-17.35 20.58-16.63 20.05-15.9 19.68-15.23 19.3-14.55 19.05-13.75 18.8-12.95 18.7-11.7L18.7-11.7Q18.9-12.25 19.15-12.75 19.4-13.25 19.65-13.7L19.65-13.7Q21.05-16.1 22.8-18.5 24.55-20.9 26.25-23L26.25-23Q26.35-23.1 26.63-23.43 26.9-23.75 27-23.7L27-23.7Q27.1-23.65 26.98-23.25 26.85-22.85 26.8-22.65L26.8-22.65Q26.55-22.1 26.18-21.3 25.8-20.5 25.38-19.68 24.95-18.85 24.5-18.07 24.05-17.3 23.7-16.8L23.7-16.8Q23.5-16.5 22.85-15.6 22.2-14.7 21.45-13.35 20.7-12 19.98-10.3 19.25-8.6 18.9-6.7L18.9-6.7Q18.75-7 18.53-7.45 18.3-7.9 18-8.9L18-8.9Q17.1-12.05 17.03-15.28 16.95-18.5 17-21.9L17-21.9Q17.05-24.05 17.03-26.2 17-28.35 16.3-30.75L16.3-30.75Q16.25-30.95 16.3-31.05L16.3-31.05Q16.4-31.05 16.6-30.75L16.6-30.75Q17.5-29.8 17.95-27.98 18.4-26.15 18.6-24.13 18.8-22.1 18.82-20.18 18.85-18.25 18.85-17.1L18.85-17.1ZM5.7-20.95L5.7-20.95Q6.55-23.55 7.63-26.2 8.7-28.85 9.5-30.95L9.5-30.95Q9.6-31.2 9.73-31.45 9.85-31.7 9.95-31.65L9.95-31.65Q10.05-31.65 10.03-31.33 10-31 10-30.75L10-30.75Q9.55-26.65 8.2-22.6 6.85-18.55 5.2-14.6L5.2-14.6Q4.2-12.1 3.05-9.58 1.9-7.05 1.15-4.1L1.15-4.1Q1.05-3.85 1.07-3.8 1.1-3.75 1.05-3.75L1.05-3.75Q0.9-3.85 0.9-4.2L0.9-4.2Q0.65-5.7 1.2-7.98 1.75-10.25 2.6-12.68 3.45-15.1 4.35-17.32 5.25-19.55 5.7-20.95ZM3.55-9.05L3.55-9.05Q4.8-11.9 6.25-14.93 7.7-17.95 9.05-20.7L9.05-20.7Q9.1-20.85 9.33-21.25 9.55-21.65 9.75-21.6L9.75-21.6Q9.85-21.6 9.8-21.15 9.75-20.7 9.65-20.5L9.65-20.5Q9.5-19.8 9.25-18.82 9-17.85 8.68-16.82 8.35-15.8 8-14.83 7.65-13.85 7.35-13.2L7.35-13.2Q7.2-12.9 6.83-11.93 6.45-10.95 5.93-9.6 5.4-8.25 4.83-6.73 4.25-5.2 3.75-3.83 3.25-2.45 2.88-1.38 2.5-0.3 2.45 0.15L2.45 0.15Q2.35 0.65 2.25 0.65L2.25 0.65Q2.15 0.65 2.13 0.45 2.1 0.25 2.05 0.15L2.05 0.15Q1.8-0.45 1.83-1.6 1.85-2.75 2.1-4.05 2.35-5.35 2.73-6.7 3.1-8.05 3.55-9.05ZM33.35-13.35L33.35-13.35Q33.1-11.1 32.58-8.85 32.05-6.6 31.65-4.85L31.65-4.85Q31.45-4.2 31.35-4.25L31.35-4.25Q31.25-4.25 31.23-4.48 31.2-4.7 31.15-4.95L31.15-4.95Q30.75-8.3 31.25-11.65 31.75-15 32.35-18.5L32.35-18.5Q32.75-20.6 33-22.83 33.25-25.05 33-27.6L33-27.6Q33-27.8 33.1-27.9L33.1-27.9Q33.2-27.9 33.23-27.78 33.25-27.65 33.35-27.6L33.35-27.6Q34.1-26.5 34.23-24.58 34.35-22.65 34.2-20.55 34.05-18.45 33.77-16.5 33.5-14.55 33.35-13.35ZM10.7-32.45L10.7-32.45Q10.6-33.5 10.43-34.4 10.25-35.3 10-36.25L10-36.25Q9.95-36.35 9.95-36.5 9.95-36.65 10-36.65L10-36.65Q10.15-36.65 10.3-36.5L10.3-36.5 10.5-36.3Q11.05-35.55 11.4-34.83 11.75-34.1 11.85-32.45L11.85-32.45Q11.9-31.8 11.85-30.85 11.8-29.9 11.68-29.05 11.55-28.2 11.38-27.6 11.2-27 11.05-27.05L11.05-27.05Q10.95-27.05 10.9-27.33 10.85-27.6 10.83-27.95 10.8-28.3 10.8-28.68 10.8-29.05 10.8-29.2L10.8-29.2Q10.8-30.05 10.8-30.83 10.8-31.6 10.7-32.45ZM29-33.1L29-33.1Q28.95-34 28.83-34.8 28.7-35.6 28.45-36.45L28.45-36.45Q28.4-36.55 28.38-36.7 28.35-36.85 28.45-36.8L28.45-36.8Q28.55-36.7 28.63-36.65 28.7-36.6 28.8-36.55L28.8-36.55 28.9-36.45Q29.45-35.75 29.78-35.1 30.1-34.45 30.15-32.95L30.15-32.95Q30.15-32.4 30.03-31.55 29.9-30.7 29.73-29.93 29.55-29.15 29.33-28.63 29.1-28.1 28.9-28.2L28.9-28.2Q28.8-28.25 28.8-28.53 28.8-28.8 28.8-29.13 28.8-29.45 28.85-29.75 28.9-30.05 28.9-30.2L28.9-30.2Q29-31 29.03-31.7 29.05-32.4 29-33.1ZM30.75-3.5L30.75-3.5Q31.05-2.65 31.43-1.95 31.8-1.25 32.2-0.55L32.2-0.55Q32.25-0.5 32.3-0.38 32.35-0.25 32.25-0.25L32.25-0.25Q32.1-0.25 32.02-0.3 31.95-0.35 31.85-0.4L31.85-0.4Q31.75-0.45 31.7-0.5L31.7-0.5Q31-1.05 30.55-1.55 30.1-2.05 29.65-3.35L29.65-3.35Q29.5-3.85 29.35-4.6 29.2-5.35 29.15-6.05 29.1-6.75 29.15-7.25 29.2-7.75 29.4-7.75L29.4-7.75Q29.45-7.75 29.55-7.53 29.65-7.3 29.73-7.03 29.8-6.75 29.88-6.48 29.95-6.2 30-6.1L30-6.1Q30.25-5.4 30.4-4.75 30.55-4.1 30.75-3.5ZM43.05-16.5L43.05-16.5Q43.2-17.15 43.22-18 43.25-18.85 43.1-19.75 42.95-20.65 42.57-21.48 42.2-22.3 41.6-22.9L41.6-22.9Q41.3-23.1 41.25-23.1L41.25-23.1Q41.05-23.1 41.25-22.8L41.25-22.8Q41.55-22.15 41.47-20.78 41.4-19.4 41.15-17.93 40.9-16.45 40.62-15.28 40.35-14.1 40.3-13.85L40.3-13.85Q39.95-12.95 39.67-11.6 39.4-10.25 39.4-9.4L39.4-9.4Q39.35-9.3 39.35-9 39.35-8.7 39.5-8.65L39.5-8.65Q39.55-8.65 39.7-8.9 39.85-9.15 39.95-9.25L39.95-9.25Q40.85-10.85 41.67-12.75 42.5-14.65 43.05-16.5ZM43.25-8.95L43.25-8.95Q43.45-9.85 43.9-11.28 44.35-12.7 44.65-14.23 44.95-15.75 44.95-17.23 44.95-18.7 44.35-19.65L44.35-19.65Q44.15-19.85 44.05-19.85L44.05-19.85Q43.95-19.85 44-19.65L44-19.65Q44-17.75 43.57-16.13 43.15-14.5 42.65-12.95L42.65-12.95Q41.8-10.4 41.1-7.98 40.4-5.55 40.5-3L40.5-3Q40.5-2.85 40.52-2.68 40.55-2.5 40.7-2.5L40.7-2.5Q40.8-2.5 40.85-2.6 40.9-2.7 41-2.9L41-2.9Q41.5-4.1 42.15-5.73 42.8-7.35 43.25-8.95ZM39.7 0L39.7 0Q38.75-1 38.25-2.23 37.75-3.45 37.55-4.73 37.35-6 37.45-7.3 37.55-8.6 37.85-9.75L37.85-9.75Q38.3-11.55 39-13.35 39.7-15.15 40.2-16.93 40.7-18.7 40.77-20.43 40.85-22.15 40.05-23.8L40.05-23.8Q39.9-24.05 39.85-24.05L39.85-24.05Q39.8-24.05 39.8-23.98 39.8-23.9 39.85-23.85L39.85-23.85Q40-22.35 39.65-20.75 39.3-19.15 38.75-17.48 38.2-15.8 37.52-14.03 36.85-12.25 36.4-10.4L36.4-10.4Q36.05-9.05 35.92-7.65 35.8-6.25 36.1-4.88 36.4-3.5 37.2-2.25 38-1 39.5 0.05L39.5 0.05Q39.6 0.15 39.75 0.18 39.9 0.2 39.7 0ZM40.1-1.9L40.1-1.9Q39.95-2.3 39.77-2.9 39.6-3.5 39.5-4.05L39.5-4.05Q39.4-4.25 39.25-4.8 39.1-5.35 39-5.35L39-5.35Q38.8-5.35 38.72-5 38.65-4.65 38.65-4.13 38.65-3.6 38.72-3.03 38.8-2.45 38.95-2.05L38.95-2.05Q39.25-1.05 39.67-0.65 40.1-0.25 40.8 0L40.8 0Q41.1 0.15 41.25 0.15L41.25 0.15Q41.3 0.15 41.27 0.08 41.25 0 41.2 0L41.2 0Q40.85-0.4 40.57-0.85 40.3-1.3 40.1-1.9ZM44-27.75L44-27.75Q43.75-27.75 43.22-27.83 42.7-27.9 42.7-28.3L42.7-28.3Q42.7-28.45 43.15-28.68 43.6-28.9 44.15-29.33 44.7-29.75 45.15-30.43 45.6-31.1 45.6-32.15L45.6-32.15Q45.6-33.45 45.1-34.1L45.1-34.1Q45-34.25 44.85-34.43 44.7-34.6 44.75-34.65L44.75-34.65Q44.85-34.65 44.97-34.58 45.1-34.5 45.15-34.45L45.15-34.45Q46.15-33.9 46.67-33.02 47.2-32.15 47.2-31.35L47.2-31.35Q47.2-29.75 46.45-28.75 45.7-27.75 44-27.75ZM42.15-29.75L42.15-29.75Q41.55-29.5 41.55-30.05L41.55-30.05Q41.55-30.45 41.85-30.83 42.15-31.2 42.42-31.65 42.7-32.1 42.8-32.68 42.9-33.25 42.5-34.1L42.5-34.1Q42.4-34.35 42.15-34.65 41.9-34.95 42-35L42-35Q42.1-35.05 42.42-34.93 42.75-34.8 42.85-34.75L42.85-34.75Q43.7-34.35 44.12-33.55 44.55-32.75 44.55-32.15L44.55-32.15Q44.55-31.2 43.77-30.58 43-29.95 42.15-29.75ZM40.7-32.45L40.7-32.45Q40.7-32.7 40.85-33.02 41-33.35 41.35-33.35L41.35-33.35Q41.6-33.35 41.75-33.02 41.9-32.7 41.9-32.45L41.9-32.45Q41.9-32.25 41.75-31.93 41.6-31.6 41.35-31.6L41.35-31.6Q41-31.6 40.85-31.9 40.7-32.2 40.7-32.45ZM55.2-26.05L55.2-26.05Q55.5-27.15 55.6-28.73 55.7-30.3 55.6-31.88 55.5-33.45 55.12-34.85 54.75-36.25 54-37L54-37Q53.7-37.3 53.52-37.2 53.35-37.1 53.6-36.7L53.6-36.7Q54.1-35.8 54.07-33.93 54.05-32.05 53.75-29.85 53.45-27.65 52.95-25.45 52.45-23.25 51.95-21.6L51.95-21.6Q51.7-20.9 51.45-19.85 51.2-18.8 50.92-17.73 50.65-16.65 50.45-15.63 50.25-14.6 50.15-13.9L50.15-13.9Q50.15-13.75 50.1-13.33 50.05-12.9 50.2-12.8L50.2-12.8Q50.3-12.8 50.5-13.23 50.7-13.65 50.75-13.75L50.75-13.75Q51.95-16.55 53.2-19.73 54.45-22.9 55.2-26.05ZM54.05-13.85L54.05-13.85Q54.3-14.75 54.75-16.2 55.2-17.65 55.65-19.38 56.1-21.1 56.52-22.98 56.95-24.85 57.17-26.63 57.4-28.4 57.32-29.9 57.25-31.4 56.8-32.35L56.8-32.35Q56.75-32.5 56.6-32.65 56.45-32.8 56.45-32.4L56.45-32.4Q56.55-29.2 55.8-26 55.05-22.8 54.2-20.2L54.2-20.2Q53.55-18.15 52.87-16.1 52.2-14.05 51.72-12.03 51.25-10 51.12-8.05 51-6.1 51.5-4.3L51.5-4.3Q51.7-3.65 51.85-3.65L51.85-3.65Q52-3.7 52-4.3L52-4.3Q52-5.2 52.17-6.33 52.35-7.45 52.65-8.7 52.95-9.95 53.3-11.28 53.65-12.6 54.05-13.85ZM53.1-0.15L53.1-0.15Q51.35-0.35 49.97-1.9 48.6-3.45 48.15-5.7L48.15-5.7Q47.7-7.85 47.92-10.08 48.15-12.3 48.7-14.25L48.7-14.25Q49.5-17.25 50.6-20.43 51.7-23.6 52.47-26.7 53.25-29.8 53.35-32.68 53.45-35.55 52.35-37.95L52.35-37.95Q52.25-38 52.2-38.18 52.15-38.35 52.05-38.3L52.05-38.3Q51.9-38.3 52-37.95L52-37.95Q52.4-35.65 52.05-32.98 51.7-30.3 50.92-27.43 50.15-24.55 49.17-21.5 48.2-18.45 47.35-15.4L47.35-15.4Q46.7-13.15 46.47-10.63 46.25-8.1 46.8-5.55L46.8-5.55Q47.1-4.25 47.72-3.2 48.35-2.15 49.2-1.43 50.05-0.7 51.05-0.3 52.05 0.1 53.1 0.05L53.1 0.05 53.25 0.05Q53.3 0.05 53.4 0L53.4 0Q53.4-0.15 53.1-0.15ZM51.6-2.65L51.6-2.65Q50.7-3.7 50.15-5.35L50.15-5.35Q50.1-5.5 50-5.83 49.9-6.15 49.8-6.48 49.7-6.8 49.6-7.08 49.5-7.35 49.45-7.35L49.45-7.35Q49.25-7.35 49.25-6.7 49.25-6.05 49.4-5.2 49.55-4.35 49.85-3.48 50.15-2.6 50.55-2.1L50.55-2.1Q51.35-1.2 52.17-1 53-0.8 53.85-0.8L53.85-0.8Q54.15-0.8 54.32-0.98 54.5-1.15 54.05-1.25L54.05-1.25Q52.6-1.4 51.6-2.65ZM75.69-17.6L75.69-17.6Q75.29-15.6 74.34-13.6 73.39-11.6 72.54-9.85L72.54-9.85Q72.49-9.75 72.32-9.5 72.14-9.25 72.04-9.25L72.04-9.25Q71.89-9.3 71.89-9.58 71.89-9.85 71.89-9.95L71.89-9.95Q71.94-10.4 72.07-11.03 72.19-11.65 72.29-12.33 72.39-13 72.52-13.63 72.64-14.25 72.79-14.75L72.79-14.75Q73.24-16.45 73.54-17.68 73.84-18.9 73.99-19.9 74.14-20.9 74.17-21.8 74.19-22.7 74.04-23.75L74.04-23.75Q73.99-24.15 74.09-24.25L74.09-24.25Q74.19-24.3 74.34-24.15 74.49-24 74.59-23.85L74.59-23.85Q75.44-22.5 75.74-20.88 76.04-19.25 75.69-17.6ZM76.69-21.25L76.89-20.95Q77.54-20 77.54-18.45 77.54-16.9 77.24-15.28 76.94-13.65 76.49-12.15 76.04-10.65 75.84-9.75L75.84-9.75Q75.44-8 74.74-6.25 74.04-4.5 73.54-3.15L73.54-3.15Q73.49-3 73.39-2.83 73.29-2.65 73.19-2.65L73.19-2.65Q73.09-2.65 73.09-2.85 73.09-3.05 73.09-3.2L73.09-3.2Q72.94-5.95 73.69-8.58 74.44-11.2 75.29-13.9L75.29-13.9Q75.79-15.55 76.24-17.28 76.69-19 76.64-21.05L76.64-21.05Q76.64-21.25 76.69-21.25L76.69-21.25ZM72.19-21.8L72.19-21.8Q69.14-20.55 67.02-18.23 64.89-15.9 63.74-13L63.74-13Q63.24-11.7 62.99-10.68 62.74-9.65 62.59-8.45L62.59-8.45Q62.54-8.2 62.74-7.95 62.94-7.7 63.14-7.95L63.14-7.95Q64.04-9.05 65.44-10.75 66.84-12.45 68.24-14.35 69.64-16.25 70.77-18.2 71.89-20.15 72.19-21.8ZM68.84-4.85L68.84-4.85Q68.09-3.8 67.39-2.9 66.69-2 65.84-1.33 64.99-0.65 63.94-0.25 62.89 0.15 61.54 0.2L61.54 0.2Q59.29 0.3 58.12-0.95 56.94-2.2 56.49-4 56.04-5.8 56.17-7.73 56.29-9.65 56.69-10.9L56.69-10.9Q57.24-12.65 58.02-14.23 58.79-15.8 59.67-17.07 60.54-18.35 61.47-19.28 62.39-20.2 63.29-20.7L63.29-20.7Q63.34-20.7 63.52-20.8 63.69-20.9 63.69-20.75L63.69-20.75Q63.74-20.75 63.64-20.6 63.54-20.45 63.44-20.35L63.44-20.35Q60.84-17.65 59.32-14.25 57.79-10.85 57.59-7.25L57.59-7.25Q57.54-6.35 57.67-5.3 57.79-4.25 58.17-3.33 58.54-2.4 59.24-1.78 59.94-1.15 61.14-1.15L61.14-1.15Q62.09-1.15 62.89-1.48 63.69-1.8 64.39-2.33 65.09-2.85 65.67-3.48 66.24-4.1 66.69-4.65L66.69-4.65Q67.69-5.9 68.54-7.25L68.54-7.25Q68.54-8.25 68.67-9.2 68.79-10.15 69.04-11.1L69.04-11.1Q69.19-11.8 69.32-12.23 69.44-12.65 69.57-13.03 69.69-13.4 69.82-13.83 69.94-14.25 70.19-14.95L70.19-14.95Q69.39-13.55 68.62-12.33 67.84-11.1 66.97-9.98 66.09-8.85 65.17-7.78 64.24-6.7 63.14-5.6L63.14-5.6Q62.29-4.75 61.74-5.05 61.19-5.35 61.09-6.45L61.09-6.45Q60.99-8.15 61.27-9.75 61.54-11.35 62.24-13.1L62.24-13.1Q62.89-14.7 63.87-16.2 64.84-17.7 66.12-18.93 67.39-20.15 68.94-21.03 70.49-21.9 72.24-22.2L72.24-22.2Q72.34-22.75 72.42-23.15 72.49-23.55 72.54-23.95L72.54-23.95Q72.64-24.5 72.64-24.5L72.64-24.5Q72.74-24.55 72.87-24.4 72.99-24.25 73.09-24L73.09-24Q73.69-22.35 73.49-20.7 73.29-19.05 72.77-17.35 72.24-15.65 71.54-13.88 70.84-12.1 70.39-10.3L70.39-10.3Q69.79-7.75 70.07-5.03 70.34-2.3 72.19-0.1L72.19-0.1Q72.34 0.1 72.34 0.1L72.34 0.1Q72.29 0.15 72.04 0L72.04 0Q70.59-0.9 69.87-2.18 69.14-3.45 68.84-4.85ZM70.59-22.55L70.59-22.55Q70.69-22.45 70.57-22.4 70.44-22.35 70.04-22.25L70.04-22.25Q69.39-22.05 68.47-21.5 67.54-20.95 66.52-20.1 65.49-19.25 64.49-18.13 63.49-17 62.74-15.7L62.74-15.7Q61.99-14.35 61.47-13.05 60.94-11.75 60.62-10.68 60.29-9.6 60.14-8.83 59.99-8.05 59.99-7.75L59.99-7.75Q59.99-7 59.99-6.18 59.99-5.35 60.19-4.7 60.39-4.05 60.89-3.7 61.39-3.35 62.39-3.5L62.39-3.5Q62.44-3.5 62.64-3.58 62.84-3.65 63.04-3.73 63.24-3.8 63.42-3.85 63.59-3.9 63.64-3.9L63.64-3.9Q63.69-3.8 63.57-3.65 63.44-3.5 63.24-3.33 63.04-3.15 62.87-3 62.69-2.85 62.64-2.8L62.64-2.8Q61.39-2.05 60.54-2.35 59.69-2.65 59.22-3.48 58.74-4.3 58.57-5.43 58.39-6.55 58.44-7.45L58.44-7.45Q58.54-9.2 58.99-10.93 59.44-12.65 60.14-14.4L60.14-14.4Q60.69-15.75 61.79-17.18 62.89-18.6 64.27-19.8 65.64-21 67.14-21.78 68.64-22.55 70.04-22.6L70.04-22.6Q70.54-22.6 70.59-22.55ZM73.54-0.1L73.54-0.1Q73.64 0.05 73.59 0.1L73.59 0.1Q73.44 0.1 73.19 0L73.19 0Q73.04-0.1 72.39-0.6 71.74-1.1 71.44-2.2L71.44-2.2Q71.34-2.6 71.27-3.23 71.19-3.85 71.19-4.4 71.19-4.95 71.27-5.35 71.34-5.75 71.49-5.75L71.49-5.75Q71.64-5.75 71.82-5.15 71.99-4.55 72.04-4.4L72.04-4.4Q72.19-3.7 72.32-3.18 72.44-2.65 72.59-2.2L72.59-2.2Q72.79-1.65 73.12-0.95 73.44-0.25 73.54-0.1ZM95.04-17.95L95.04-17.95Q95.14-16.4 94.84-14.98 94.54-13.55 94.09-12.35L94.09-12.35Q93.99-12.1 93.77-11.8 93.54-11.5 93.34-11.6L93.34-11.6Q93.24-11.6 93.29-11.95 93.34-12.3 93.34-12.45L93.34-12.45Q93.39-13 93.42-13.83 93.44-14.65 93.44-15.5 93.44-16.35 93.37-17.13 93.29-17.9 93.14-18.45L93.14-18.45Q92.69-20.05 91.72-20.23 90.74-20.4 89.74-19.7 88.74-19 87.84-17.75 86.94-16.5 86.64-15.3L86.64-15.3Q86.94-15.75 87.42-16.38 87.89-17 88.49-17.57 89.09-18.15 89.77-18.53 90.44-18.9 91.04-18.85L91.04-18.85Q91.69-18.8 91.97-18.15 92.24-17.5 92.29-16.55 92.34-15.6 92.19-14.5 92.04-13.4 91.84-12.45L91.84-12.45Q91.49-10.9 91.24-9.25 90.99-7.6 91.07-6.03 91.14-4.45 91.62-2.98 92.09-1.5 93.24-0.25L93.24-0.25Q93.34-0.1 93.39 0 93.44 0.1 93.14-0.05L93.14-0.05Q91.84-0.8 91.07-1.8 90.29-2.8 89.89-3.95 89.49-5.1 89.42-6.35 89.34-7.6 89.44-8.85L89.44-8.85Q89.64-10.65 90.04-12 90.44-13.35 90.64-15.05L90.64-15.05Q90.74-16.1 90.49-16.43 90.24-16.75 89.89-16.8L89.89-16.8Q89.39-16.85 88.77-16.28 88.14-15.7 87.47-14.65 86.79-13.6 86.17-12.2 85.54-10.8 85.09-9.25L85.09-9.25Q84.69-7.7 84.12-6.03 83.54-4.35 83.04-3.15L83.04-3.15Q82.84-2.7 82.74-2.7L82.74-2.7Q82.64-2.7 82.57-2.9 82.49-3.1 82.49-3.2L82.49-3.2Q82.29-5.7 82.94-8.15 83.59-10.6 84.44-13.1L84.44-13.1Q84.94-14.65 85.34-15.85 85.74-17.05 85.74-18.9L85.74-18.9Q85.74-19.7 86.14-20.58 86.54-21.45 87.32-22.18 88.09-22.9 89.24-23.35 90.39-23.8 91.84-23.75L91.84-23.75Q94.24-23.7 95.54-22.63 96.84-21.55 97.37-19.9 97.89-18.25 97.82-16.32 97.74-14.4 97.39-12.6L97.39-12.6Q97.09-11.25 96.69-10.15 96.29-9.05 95.84-8.1 95.39-7.15 94.99-6.3 94.59-5.45 94.34-4.6L94.34-4.6Q94.29-4.45 94.24-4.28 94.19-4.1 94.09-4.1L94.09-4.1Q93.99-4.1 93.94-4.3 93.89-4.5 93.89-4.75L93.89-4.75Q93.79-6.45 94.24-8.03 94.69-9.6 95.19-11.28 95.69-12.95 95.94-14.8 96.19-16.65 95.74-18.9L95.74-18.9Q95.29-21.3 93.54-22.1 91.79-22.9 89.54-22L89.54-22Q89.24-21.85 88.74-21.55 88.24-21.25 87.77-20.75 87.29-20.25 86.89-19.58 86.49-18.9 86.39-18.1L86.39-18.1Q86.99-19 87.79-19.8 88.59-20.6 89.49-21.08 90.39-21.55 91.32-21.65 92.24-21.75 93.14-21.3L93.14-21.3Q94.19-20.75 94.59-19.78 94.99-18.8 95.04-17.95ZM84.84-16.6L84.84-16.6Q84.29-14.7 83.37-12.85 82.44-11 81.84-9.3L81.84-9.3Q81.79-9.2 81.67-8.93 81.54-8.65 81.34-8.7L81.34-8.7Q81.24-8.75 81.22-9.03 81.19-9.3 81.19-9.45L81.19-9.45Q81.19-10.25 81.47-11.58 81.74-12.9 82.04-13.75L82.04-13.75Q82.14-14.05 82.42-15.28 82.69-16.5 82.92-17.95 83.14-19.4 83.22-20.75 83.29-22.1 82.94-22.7L82.94-22.7Q82.74-23.05 82.94-23.05L82.94-23.05Q83.09-23.05 83.34-22.8L83.34-22.8Q83.94-22.25 84.32-21.45 84.69-20.65 84.87-19.78 85.04-18.9 85.02-18.05 84.99-17.2 84.84-16.6ZM95.04-0.05L95.04-0.05Q94.94 0 94.64-0.1L94.64-0.1Q94.49-0.15 94.39-0.2L94.39-0.2Q93.69-0.65 93.19-1.23 92.69-1.8 92.19-3.2L92.19-3.2Q92.04-3.7 91.97-4.48 91.89-5.25 91.94-6 91.99-6.75 92.12-7.28 92.24-7.8 92.49-7.8L92.49-7.8Q92.59-7.8 92.72-7.23 92.84-6.65 92.97-5.9 93.09-5.15 93.24-4.4 93.39-3.65 93.49-3.3L93.49-3.3Q93.74-2.55 93.99-1.8 94.24-1.05 94.79-0.5L94.79-0.5Q94.89-0.4 94.99-0.23 95.09-0.05 95.04-0.05ZM81.54 0.05L81.54 0.05Q79.99-1 79.17-2.25 78.34-3.5 78.04-4.85 77.74-6.2 77.82-7.6 77.89-9 78.19-10.35L78.19-10.35Q78.59-12.15 79.22-13.93 79.84-15.7 80.42-17.38 80.99-19.05 81.32-20.65 81.64-22.25 81.39-23.7L81.39-23.7Q81.39-23.9 81.44-23.9L81.44-23.9Q81.54-23.9 81.69-23.65L81.69-23.65Q82.59-22.05 82.54-20.35 82.49-18.65 81.99-16.88 81.49-15.1 80.77-13.28 80.04-11.45 79.64-9.6L79.64-9.6Q79.39-8.45 79.32-7.18 79.24-5.9 79.49-4.65 79.74-3.4 80.32-2.2 80.89-1 81.89-0.05L81.89-0.05Q82.09 0.05 81.99 0.15L81.99 0.15Q81.89 0.25 81.77 0.18 81.64 0.1 81.54 0.05ZM83.44 0.25L83.44 0.25Q83.29 0.35 83.04 0.1L83.04 0.1Q82.49-0.3 81.97-0.75 81.44-1.2 80.94-2.2L80.94-2.2Q80.74-2.55 80.64-3.1 80.54-3.65 80.54-4.17 80.54-4.7 80.62-5.05 80.69-5.4 80.84-5.4L80.84-5.4Q81.04-5.35 81.17-4.85 81.29-4.35 81.39-4.2L81.39-4.2Q81.59-3.65 81.74-3.18 81.89-2.7 82.09-2.25L82.09-2.25Q82.39-1.55 82.69-1.05 82.99-0.55 83.39-0.05L83.39-0.05Q83.44 0 83.49 0.1 83.54 0.2 83.44 0.25ZM101.24 0.8L101.24 0.8Q100.89 1.15 100.79 1.1L100.79 1.1Q100.69 1.05 100.79 0.88 100.89 0.7 100.94 0.6L100.94 0.6Q101.34 0.15 101.56-0.08 101.79-0.3 102.09-0.55L102.09-0.55Q100.89-2.15 100.34-3.98 99.79-5.8 99.69-7.75 99.59-9.7 99.86-11.7 100.14-13.7 100.59-15.6L100.59-15.6Q101.49-19.35 102.66-22.93 103.84-26.5 104.64-29.8L104.64-29.8Q103.04-29.5 101.76-29 100.49-28.5 100.09-27.9L100.09-27.9Q99.94-27.65 99.81-27.7 99.69-27.75 99.89-28.15L99.89-28.15Q100.29-29 101.34-29.68 102.39-30.35 103.74-30.8 105.09-31.25 106.66-31.5 108.24-31.75 109.69-31.7L109.69-31.7Q112.94-31.6 115.11-30.45 117.29-29.3 117.34-27.05L117.34-27.05Q117.34-25.65 116.36-24.25 115.39-22.85 114.01-21.63 112.64-20.4 111.09-19.43 109.54-18.45 108.44-17.9L108.44-17.9 108.24-17.2Q108.99-17.85 110.24-18.25 111.49-18.65 112.86-18.65 114.24-18.65 115.56-18.18 116.89-17.7 117.89-16.65L117.89-16.65Q119.24-15.15 119.61-13.23 119.99-11.3 119.39-9.45L119.39-9.45Q118.84-7.6 117.54-6.43 116.24-5.25 114.89-4.65L114.89-4.65Q114.74-4.55 114.34-4.42 113.94-4.3 113.84-4.45L113.84-4.45Q113.79-4.55 114.09-4.83 114.39-5.1 114.54-5.2L114.54-5.2Q115.89-6.1 116.84-7.65 117.79-9.2 118.01-10.88 118.24-12.55 117.64-14.1 117.04-15.65 115.29-16.5L115.29-16.5Q114.59-16.85 113.44-17.03 112.29-17.2 111.14-17.13 109.99-17.05 109.01-16.6 108.04-16.15 107.64-15.2L107.64-15.2Q108.54-15.75 109.69-16.05 110.84-16.35 112.01-16.32 113.19-16.3 114.24-15.88 115.29-15.45 115.99-14.6L115.99-14.6Q116.84-13.55 116.96-12.4 117.09-11.25 116.71-10.15 116.34-9.05 115.51-8.1 114.69-7.15 113.64-6.5L113.64-6.5Q112.24-5.65 110.54-4.83 108.84-4 107.14-3.13 105.44-2.25 103.89-1.28 102.34-0.3 101.24 0.8ZM107.24-13.5L107.24-13.5Q106.34-11.25 105.76-8.97 105.19-6.7 104.49-4.8L104.49-4.8Q104.24-4.15 104.14-4.2L104.14-4.2Q103.99-4.25 103.99-4.48 103.99-4.7 103.99-4.95L103.99-4.95Q104.14-8.75 105.09-12.48 106.04-16.2 107.14-20L107.14-20Q107.84-22.35 108.46-24.83 109.09-27.3 109.19-30.15L109.19-30.15 108.34-30.15Q108.39-28.8 108.26-27.48 108.14-26.15 107.89-25.2L107.89-25.2Q107.19-22.5 106.19-19.6 105.19-16.7 104.09-14.1L104.09-14.1Q104.04-14 103.86-13.63 103.69-13.25 103.54-13.3L103.54-13.3Q103.44-13.35 103.41-13.75 103.39-14.15 103.44-14.3L103.44-14.3Q103.49-14.9 103.66-15.8 103.84-16.7 104.01-17.65 104.19-18.6 104.41-19.5 104.64-20.4 104.84-21.05L104.84-21.05Q104.89-21.3 105.11-22.2 105.34-23.1 105.59-24.38 105.84-25.65 106.11-27.13 106.39-28.6 106.59-30L106.59-30Q106.19-30 105.99-29.95L105.99-29.95Q105.74-28.1 105.26-26.2 104.79-24.3 104.19-22.35 103.59-20.4 102.99-18.48 102.39-16.55 101.94-14.6L101.94-14.6Q101.54-12.95 101.34-11.15 101.14-9.35 101.14-7.58 101.14-5.8 101.44-4.1 101.74-2.4 102.39-0.85L102.39-0.85 102.84-1.3Q102.69-1.65 102.54-2.15 102.39-2.65 102.29-3.35L102.29-3.35Q102.19-3.9 102.16-4.75 102.14-5.6 102.19-6.4 102.24-7.2 102.34-7.75 102.44-8.3 102.64-8.3L102.64-8.3Q102.69-8.3 102.76-8.05 102.84-7.8 102.89-7.45 102.94-7.1 102.99-6.8 103.04-6.5 103.04-6.35L103.04-6.35Q103.09-5.9 103.14-5.35 103.19-4.8 103.26-4.2 103.34-3.6 103.41-3.03 103.49-2.45 103.64-2.05L103.64-2.05Q104.79-3.1 106.09-3.93 107.39-4.75 108.66-5.45 109.94-6.15 111.14-6.8 112.34-7.45 113.24-8.1L113.24-8.1Q114.79-9.15 115.24-10.78 115.69-12.4 114.69-13.7L114.69-13.7Q114.04-14.55 112.91-14.9 111.79-15.25 110.61-15.18 109.44-15.1 108.49-14.65 107.54-14.2 107.24-13.5ZM115.19-21.15L115.19-21.15Q115.29-21.1 114.96-20.63 114.64-20.15 114.54-19.95L114.54-19.95Q116.24-20.2 117.56-21.15 118.89-22.1 119.69-23.43 120.49-24.75 120.69-26.33 120.89-27.9 120.39-29.5L120.39-29.5Q119.89-31.1 118.74-32.2 117.59-33.3 116.09-34 114.59-34.7 112.84-35 111.09-35.3 109.34-35.27 107.59-35.25 105.99-34.95 104.39-34.65 103.19-34.1L103.19-34.1Q102.94-34 102.91-34 102.89-34 102.84-34.05L102.84-34.05Q102.79-34.2 103.09-34.4L103.09-34.4Q104.34-35.5 106.26-36.05 108.19-36.6 110.31-36.6 112.44-36.6 114.59-36.02 116.74-35.45 118.46-34.27 120.19-33.1 121.31-31.28 122.44-29.45 122.54-27L122.54-27Q122.59-25.5 122.14-24.28 121.69-23.05 120.94-22.1 120.19-21.15 119.21-20.48 118.24-19.8 117.19-19.35L117.19-19.35Q118.84-18.6 120.04-17.03 121.24-15.45 121.74-13.9L121.74-13.9Q122.34-11.85 122.01-10 121.69-8.15 120.91-6.65 120.14-5.15 119.16-4.08 118.19-3 117.49-2.55L117.49-2.55Q116.04-1.6 114.54-1.07 113.04-0.55 111.59-0.28 110.14 0 108.81 0.1 107.49 0.2 106.44 0.25L106.44 0.25Q105.64 0.35 105.64 0.2L105.64 0.2Q105.59 0.1 105.91 0.03 106.24-0.05 106.49-0.1L106.49-0.1Q108.44-0.45 110.34-1.05 112.24-1.65 114.19-2.65L114.19-2.65Q115.14-3.15 116.16-3.83 117.19-4.5 118.06-5.43 118.94-6.35 119.56-7.5 120.19-8.65 120.39-10.05L120.39-10.05Q120.64-11.8 120.31-13.53 119.99-15.25 118.64-16.85L118.64-16.85Q117.34-18.4 115.91-18.95 114.49-19.5 112.84-19.4L112.84-19.4Q112.44-19.4 112.44-19.45L112.44-19.45Q112.44-19.55 112.99-19.8 113.54-20.05 113.69-20.15L113.69-20.15Q114.14-20.45 114.64-20.85 115.14-21.25 115.19-21.15ZM115.79-26.85L115.79-26.85Q115.79-28.45 114.09-29.18 112.39-29.9 109.39-30.15L109.39-30.15Q109.74-28.6 109.84-27.3 109.94-26 109.81-24.73 109.69-23.45 109.36-22.08 109.04-20.7 108.64-19.05L108.64-19.05Q109.69-19.55 110.94-20.58 112.19-21.6 113.26-22.73 114.34-23.85 115.06-24.98 115.79-26.1 115.79-26.85ZM108.89-34.5L108.89-34.5Q110.59-34.6 112.76-34.13 114.94-33.65 116.69-32.6L116.69-32.6Q117.59-32.05 118.19-31.25 118.79-30.45 119.11-29.58 119.44-28.7 119.49-27.8 119.54-26.9 119.29-26.15L119.29-26.15Q119.24-26.05 119.19-25.88 119.14-25.7 119.04-25.53 118.94-25.35 118.84-25.23 118.74-25.1 118.64-25.15L118.64-25.15Q118.49-25.15 118.51-25.5 118.54-25.85 118.64-26.25L118.64-26.25Q118.89-27.65 118.41-28.7 117.94-29.75 116.99-30.48 116.04-31.2 114.79-31.65 113.54-32.1 112.21-32.35 110.89-32.6 109.64-32.63 108.39-32.65 107.49-32.55L107.49-32.55Q106.24-32.4 105.01-32.08 103.79-31.75 102.74-31.35 101.69-30.95 100.94-30.5 100.19-30.05 99.89-29.65L99.89-29.65Q99.59-29.25 99.54-29.4L99.54-29.4Q99.54-29.55 99.64-29.85L99.64-29.85Q99.99-30.85 100.94-31.68 101.89-32.5 103.14-33.1 104.39-33.7 105.89-34.05 107.39-34.4 108.89-34.5ZM106.44-0.8L106.44-0.8Q104.79-0.15 103.81 0.35 102.84 0.85 101.89 1.65L101.89 1.65Q101.79 1.7 101.69 1.85 101.59 2 101.49 1.95L101.49 1.95Q101.39 1.9 101.49 1.68 101.59 1.45 101.69 1.35L101.69 1.35Q102.19 0.65 102.99-0.03 103.79-0.7 105.24-1.3L105.24-1.3Q105.74-1.5 106.36-1.73 106.99-1.95 107.56-2.1 108.14-2.25 108.51-2.3 108.89-2.35 108.99-2.2L108.99-2.2Q109.04-2.1 108.69-1.9 108.34-1.7 107.89-1.48 107.44-1.25 107.01-1.05 106.59-0.85 106.44-0.8ZM143.49-17.6L143.49-17.6Q143.09-15.6 142.14-13.6 141.19-11.6 140.34-9.85L140.34-9.85Q140.29-9.75 140.11-9.5 139.94-9.25 139.84-9.25L139.84-9.25Q139.69-9.3 139.69-9.58 139.69-9.85 139.69-9.95L139.69-9.95Q139.74-10.4 139.86-11.03 139.99-11.65 140.09-12.33 140.19-13 140.31-13.63 140.44-14.25 140.59-14.75L140.59-14.75Q141.04-16.45 141.34-17.68 141.64-18.9 141.79-19.9 141.94-20.9 141.96-21.8 141.99-22.7 141.84-23.75L141.84-23.75Q141.79-24.15 141.89-24.25L141.89-24.25Q141.99-24.3 142.14-24.15 142.29-24 142.39-23.85L142.39-23.85Q143.24-22.5 143.54-20.88 143.84-19.25 143.49-17.6ZM144.49-21.25L144.69-20.95Q145.34-20 145.34-18.45 145.34-16.9 145.04-15.28 144.74-13.65 144.29-12.15 143.84-10.65 143.64-9.75L143.64-9.75Q143.24-8 142.54-6.25 141.84-4.5 141.34-3.15L141.34-3.15Q141.29-3 141.19-2.83 141.09-2.65 140.99-2.65L140.99-2.65Q140.89-2.65 140.89-2.85 140.89-3.05 140.89-3.2L140.89-3.2Q140.74-5.95 141.49-8.58 142.24-11.2 143.09-13.9L143.09-13.9Q143.59-15.55 144.04-17.28 144.49-19 144.44-21.05L144.44-21.05Q144.44-21.25 144.49-21.25L144.49-21.25ZM139.99-21.8L139.99-21.8Q136.94-20.55 134.81-18.23 132.69-15.9 131.54-13L131.54-13Q131.04-11.7 130.79-10.68 130.54-9.65 130.39-8.45L130.39-8.45Q130.34-8.2 130.54-7.95 130.74-7.7 130.94-7.95L130.94-7.95Q131.84-9.05 133.24-10.75 134.64-12.45 136.04-14.35 137.44-16.25 138.56-18.2 139.69-20.15 139.99-21.8ZM136.64-4.85L136.64-4.85Q135.89-3.8 135.19-2.9 134.49-2 133.64-1.33 132.79-0.65 131.74-0.25 130.69 0.15 129.34 0.2L129.34 0.2Q127.09 0.3 125.91-0.95 124.74-2.2 124.29-4 123.84-5.8 123.96-7.73 124.09-9.65 124.49-10.9L124.49-10.9Q125.04-12.65 125.81-14.23 126.59-15.8 127.46-17.07 128.34-18.35 129.26-19.28 130.19-20.2 131.09-20.7L131.09-20.7Q131.14-20.7 131.31-20.8 131.49-20.9 131.49-20.75L131.49-20.75Q131.54-20.75 131.44-20.6 131.34-20.45 131.24-20.35L131.24-20.35Q128.64-17.65 127.11-14.25 125.59-10.85 125.39-7.25L125.39-7.25Q125.34-6.35 125.46-5.3 125.59-4.25 125.96-3.33 126.34-2.4 127.04-1.78 127.74-1.15 128.94-1.15L128.94-1.15Q129.89-1.15 130.69-1.48 131.49-1.8 132.19-2.33 132.89-2.85 133.46-3.48 134.04-4.1 134.49-4.65L134.49-4.65Q135.49-5.9 136.34-7.25L136.34-7.25Q136.34-8.25 136.46-9.2 136.59-10.15 136.84-11.1L136.84-11.1Q136.99-11.8 137.11-12.23 137.24-12.65 137.36-13.03 137.49-13.4 137.61-13.83 137.74-14.25 137.99-14.95L137.99-14.95Q137.19-13.55 136.41-12.33 135.64-11.1 134.76-9.98 133.89-8.85 132.96-7.78 132.04-6.7 130.94-5.6L130.94-5.6Q130.09-4.75 129.54-5.05 128.99-5.35 128.89-6.45L128.89-6.45Q128.79-8.15 129.06-9.75 129.34-11.35 130.04-13.1L130.04-13.1Q130.69-14.7 131.66-16.2 132.64-17.7 133.91-18.93 135.19-20.15 136.74-21.03 138.29-21.9 140.04-22.2L140.04-22.2Q140.14-22.75 140.21-23.15 140.29-23.55 140.34-23.95L140.34-23.95Q140.44-24.5 140.44-24.5L140.44-24.5Q140.54-24.55 140.66-24.4 140.79-24.25 140.89-24L140.89-24Q141.49-22.35 141.29-20.7 141.09-19.05 140.56-17.35 140.04-15.65 139.34-13.88 138.64-12.1 138.19-10.3L138.19-10.3Q137.59-7.75 137.86-5.03 138.14-2.3 139.99-0.1L139.99-0.1Q140.14 0.1 140.14 0.1L140.14 0.1Q140.09 0.15 139.84 0L139.84 0Q138.39-0.9 137.66-2.18 136.94-3.45 136.64-4.85ZM138.39-22.55L138.39-22.55Q138.49-22.45 138.36-22.4 138.24-22.35 137.84-22.25L137.84-22.25Q137.19-22.05 136.26-21.5 135.34-20.95 134.31-20.1 133.29-19.25 132.29-18.13 131.29-17 130.54-15.7L130.54-15.7Q129.79-14.35 129.26-13.05 128.74-11.75 128.41-10.68 128.09-9.6 127.94-8.83 127.79-8.05 127.79-7.75L127.79-7.75Q127.79-7 127.79-6.18 127.79-5.35 127.99-4.7 128.19-4.05 128.69-3.7 129.19-3.35 130.19-3.5L130.19-3.5Q130.24-3.5 130.44-3.58 130.64-3.65 130.84-3.73 131.04-3.8 131.21-3.85 131.39-3.9 131.44-3.9L131.44-3.9Q131.49-3.8 131.36-3.65 131.24-3.5 131.04-3.33 130.84-3.15 130.66-3 130.49-2.85 130.44-2.8L130.44-2.8Q129.19-2.05 128.34-2.35 127.49-2.65 127.01-3.48 126.54-4.3 126.36-5.43 126.19-6.55 126.24-7.45L126.24-7.45Q126.34-9.2 126.79-10.93 127.24-12.65 127.94-14.4L127.94-14.4Q128.49-15.75 129.59-17.18 130.69-18.6 132.06-19.8 133.44-21 134.94-21.78 136.44-22.55 137.84-22.6L137.84-22.6Q138.34-22.6 138.39-22.55ZM141.34-0.1L141.34-0.1Q141.44 0.05 141.39 0.1L141.39 0.1Q141.24 0.1 140.99 0L140.99 0Q140.84-0.1 140.19-0.6 139.54-1.1 139.24-2.2L139.24-2.2Q139.14-2.6 139.06-3.23 138.99-3.85 138.99-4.4 138.99-4.95 139.06-5.35 139.14-5.75 139.29-5.75L139.29-5.75Q139.44-5.75 139.61-5.15 139.79-4.55 139.84-4.4L139.84-4.4Q139.99-3.7 140.11-3.18 140.24-2.65 140.39-2.2L140.39-2.2Q140.59-1.65 140.91-0.95 141.24-0.25 141.34-0.1ZM152.48-16.65L152.48-16.65Q152.08-14.95 151.36-13.08 150.63-11.2 149.73-9.6L149.73-9.6Q149.73-9.5 149.61-9.28 149.48-9.05 149.28-9.05L149.28-9.05Q149.18-9.05 149.16-9.35 149.13-9.65 149.18-9.75L149.18-9.75Q149.18-10.55 149.38-11.88 149.58-13.2 149.88-14.05L149.88-14.05Q149.98-14.35 150.21-15.5 150.43-16.65 150.61-18.07 150.78-19.5 150.81-20.83 150.83-22.15 150.48-22.8L150.48-22.8 150.48-23Q150.68-23.15 150.93-22.9L150.93-22.9Q151.58-22.35 151.96-21.55 152.33-20.75 152.51-19.88 152.68-19 152.66-18.15 152.63-17.3 152.48-16.65ZM154.43-16.85L154.43-16.85Q154.98-17.55 155.48-17.85 155.98-18.15 156.48-18.35L156.48-18.35Q156.53-18.35 156.73-18.4 156.93-18.45 157.03-18.3L157.03-18.3Q157.13-18.15 156.98-17.95 156.83-17.75 156.73-17.65L156.73-17.65Q156.38-17.3 155.96-16.88 155.53-16.45 155.18-16.05L155.18-16.05Q154.68-15.5 154.38-14.78 154.08-14.05 153.93-13.3L153.93-13.3Q154.78-14.2 155.56-15 156.33-15.8 157.23-16.5L157.23-16.5Q158.38-17.35 159.23-18.7 160.08-20.05 160.43-22.65L160.43-22.65Q160.53-22.9 160.68-22.95 160.83-23 160.83-22.6L160.83-22.6Q160.98-19.7 160.23-18 159.48-16.3 157.98-15.15L157.98-15.15Q157.18-14.55 156.38-13.85 155.58-13.15 154.86-12.3 154.13-11.45 153.53-10.3 152.93-9.15 152.48-7.65L152.48-7.65Q152.13-6.5 151.78-5.48 151.43-4.45 151.03-3.5L151.03-3.5Q150.93-3.15 150.73-3.15L150.73-3.15Q150.58-3.2 150.58-3.65L150.58-3.65Q150.33-6.05 150.91-8.43 151.48-10.8 152.28-13.35L152.28-13.35Q152.63-14.6 153.11-15.85 153.58-17.1 153.53-18.7L153.53-18.7Q153.53-19.25 153.98-19.85 154.43-20.45 155.08-20.98 155.73-21.5 156.43-21.88 157.13-22.25 157.63-22.4L157.63-22.4Q158.08-22.55 158.08-22.35 158.08-22.15 157.78-21.85L157.78-21.85Q156.73-20.9 155.66-19.6 154.58-18.3 154.43-16.85ZM150.08-0.05L150.08-0.05Q150.03 0 150.01-0.03 149.98-0.05 149.73-0.2L149.73-0.2Q148.23-1.3 147.38-2.6 146.53-3.9 146.16-5.28 145.78-6.65 145.83-8.03 145.88-9.4 146.18-10.7L146.18-10.7Q146.58-12.45 147.16-14.18 147.73-15.9 148.23-17.53 148.73-19.15 148.98-20.73 149.23-22.3 148.98-23.75L148.98-23.75Q148.98-23.85 149.13-23.9L149.13-23.9Q149.18-23.9 149.23-23.83 149.28-23.75 149.33-23.7L149.33-23.7Q150.28-22.1 150.28-20.43 150.28-18.75 149.83-17.03 149.38-15.3 148.71-13.53 148.03-11.75 147.63-9.95L147.63-9.95Q147.13-7.65 147.56-5.05 147.98-2.45 149.88-0.4L149.88-0.4Q149.98-0.25 150.08-0.2 150.18-0.15 150.08-0.05ZM151.58 0L151.58 0Q151.48 0 151.38-0.05L151.38-0.05 151.18-0.15Q150.48-0.6 149.93-1.13 149.38-1.65 148.98-2.65L148.98-2.65Q148.83-3 148.73-3.58 148.63-4.15 148.61-4.65 148.58-5.15 148.66-5.5 148.73-5.85 148.93-5.8L148.93-5.8Q149.08-5.8 149.26-5.4 149.43-5 149.53-4.6L149.53-4.6Q149.63-4.05 149.76-3.55 149.88-3.05 150.08-2.65L150.08-2.65Q150.63-1.4 151.53-0.25L151.53-0.25Q151.63 0 151.58 0ZM159.73-22.45L159.73-22.45Q159.73-21.4 159.13-20.6 158.53-19.8 157.68-19.25L157.68-19.25Q157.53-19.15 157.48-19.28 157.43-19.4 157.43-19.45L157.43-19.45Q157.43-19.75 157.68-20.18 157.93-20.6 158.26-21.08 158.58-21.55 158.88-22.05 159.18-22.55 159.28-22.95L159.28-22.95Q159.43-23.2 159.58-22.95 159.73-22.7 159.73-22.45ZM171.93-9.4L171.93-9.4Q171.28-8.2 170.48-6.83 169.68-5.45 168.93-4.85L168.93-4.85Q168.18-4.25 167.88-4.45 167.58-4.65 167.18-5.35L167.18-5.35Q166.78-5.95 166.78-5.95L166.78-5.95Q166.63-5.9 166.63-5.6 166.63-5.3 166.73-5.05L166.73-5.05Q167.03-4.05 167.46-3.68 167.88-3.3 168.68-3.55L168.68-3.55Q169.58-3.8 170.46-4.65 171.33-5.5 171.98-6.35L171.98-6.35Q173.48-8.4 174.36-10.7 175.23-13 175.33-15.4L175.33-15.4Q175.43-17.6 174.78-18.25 174.13-18.9 173.16-18.68 172.18-18.45 171.06-17.63 169.93-16.8 169.03-16.05L169.03-16.05Q169.33-16.8 169.86-17.5 170.38-18.2 171.06-18.73 171.73-19.25 172.56-19.53 173.38-19.8 174.23-19.7L174.23-19.7Q174.73-19.65 175.13-19.2 175.53-18.75 175.78-18.07 176.03-17.4 176.11-16.5 176.18-15.6 176.08-14.65L176.08-14.65Q175.83-12.75 175.36-10.85 174.88-8.95 174.13-7.35L174.13-7.35Q174.03-7.1 173.81-6.65 173.58-6.2 173.68-6.1L173.68-6.1Q173.78-6 174.16-6.43 174.53-6.85 174.73-7.05L174.73-7.05Q175.63-8.25 176.33-9.78 177.03-11.3 177.41-12.9 177.78-14.5 177.83-16.13 177.88-17.75 177.53-19.2L177.53-19.2Q177.23-20.45 176.31-20.9 175.38-21.35 174.28-21.2 173.18-21.05 172.08-20.5 170.98-19.95 170.28-19.3L170.28-19.3Q170.58-20.05 171.11-20.63 171.63-21.2 172.31-21.63 172.98-22.05 173.76-22.23 174.53-22.4 175.33-22.3L175.33-22.3Q176.73-22.15 177.46-21.2 178.18-20.25 178.46-19.03 178.73-17.8 178.71-16.48 178.68-15.15 178.58-14.25L178.58-14.25Q178.33-12.15 177.63-10.1 176.93-8.05 175.88-6.3L175.88-6.3Q175.03-4.9 173.66-3.55 172.28-2.2 170.68-1.4 169.08-0.6 167.38-0.58 165.68-0.55 164.18-1.8L164.18-1.8Q163.18-2.65 162.76-4.08 162.33-5.5 162.18-6.8L162.18-6.8Q161.93-9.05 162.26-11.33 162.58-13.6 163.23-15.55L163.23-15.55Q164.23-18.6 165.51-21.7 166.78-24.8 167.71-27.8 168.63-30.8 168.88-33.6 169.13-36.4 168.08-38.9L168.08-38.9Q168.03-39 168.01-39.1 167.98-39.2 167.93-39.2L167.93-39.2Q167.78-39.15 167.81-39.1 167.83-39.05 167.83-39L167.83-39Q168.13-36.6 167.63-34 167.13-31.4 166.21-28.6 165.28-25.8 164.13-22.83 162.98-19.85 161.93-16.7L161.93-16.7Q161.23-14.45 160.81-11.9 160.38-9.35 160.78-6.7L160.78-6.7Q161.33-3.1 163.73-1.35 166.13 0.4 169.73 0L169.73 0Q172.33-0.3 174.33-2.1 176.33-3.9 177.68-6.45L177.68-6.45Q178.68-8.4 179.41-10.58 180.13-12.75 180.28-15L180.28-15Q180.38-16.4 180.26-17.9 180.13-19.4 179.61-20.68 179.08-21.95 178.06-22.78 177.03-23.6 175.33-23.7L175.33-23.7Q174.33-23.75 173.11-23.2 171.88-22.65 171.18-21.9L171.18-21.9Q171.63-23.4 172.01-24.98 172.38-26.55 172.58-28 172.78-29.45 172.76-30.73 172.73-32 172.38-32.9L172.38-32.9Q172.28-33.3 172.18-33.3L172.18-33.3Q172.13-33.3 172.13-32.9L172.13-32.9Q172.03-29.7 171.08-26.83 170.13-23.95 169.18-21.35L169.18-21.35Q168.43-19.25 167.61-17.18 166.78-15.1 166.21-13.05 165.63-11 165.38-9.03 165.13-7.05 165.48-5.2L165.48-5.2Q165.53-5 165.66-4.73 165.78-4.45 165.88-4.45L165.88-4.45Q165.98-4.45 165.96-4.7 165.93-4.95 165.98-5.2L165.98-5.2Q166.23-6.95 166.93-9.43 167.63-11.9 168.58-14.4L168.58-14.4Q169.13-14.9 169.91-15.58 170.68-16.25 171.46-16.8 172.23-17.35 172.88-17.63 173.53-17.9 173.83-17.65L173.83-17.65Q174.23-17.25 174.13-16.18 174.03-15.1 173.66-13.8 173.28-12.5 172.78-11.28 172.28-10.05 171.93-9.4ZM170.48-27.35L170.48-27.35Q170.78-28.4 170.96-29.88 171.13-31.35 171.08-32.83 171.03-34.3 170.71-35.63 170.38-36.95 169.73-37.75L169.73-37.75Q169.63-37.85 169.53-37.98 169.43-38.1 169.33-38.1L169.33-38.1Q169.18-38.1 169.38-37.6L169.38-37.6Q169.83-36.6 169.68-34.63 169.53-32.65 169.08-30.4 168.63-28.15 168.03-26 167.43-23.85 166.93-22.6L166.93-22.6Q166.63-21.9 166.31-20.9 165.98-19.9 165.68-18.88 165.38-17.85 165.11-16.88 164.83-15.9 164.68-15.2L164.68-15.2Q164.68-14.95 164.61-14.5 164.53-14.05 164.58-14.05L164.58-14.05Q164.83-13.95 165.01-14.4 165.18-14.85 165.33-14.95L165.33-14.95Q166.73-17.8 168.11-20.98 169.48-24.15 170.48-27.35ZM165.13-3.55L165.13-3.55Q165.58-2.8 166.28-2.33 166.98-1.85 167.68-1.7L167.68-1.7Q167.93-1.65 168.23-1.58 168.53-1.5 168.53-1.3L168.53-1.3Q168.48-1.15 168.08-1.05L168.08-1.05Q167.88-1 167.63-1L167.63-1Q166.78-1.05 165.96-1.3 165.13-1.55 164.23-2.75L164.23-2.75Q163.63-3.55 163.36-4.55 163.08-5.55 163.03-6.45 162.98-7.35 163.11-7.95 163.23-8.55 163.48-8.5L163.48-8.5Q163.53-8.5 163.63-8.22 163.73-7.95 163.81-7.58 163.88-7.2 163.96-6.88 164.03-6.55 164.08-6.4L164.08-6.4Q164.28-5.55 164.43-5 164.58-4.45 165.13-3.55ZM195.78-20.4L195.78-20.4Q196.18-19.9 196.4-19.15 196.63-18.4 196.58-17.53 196.53-16.65 196.18-15.7 195.83-14.75 195.08-13.85L195.08-13.85Q193.63-12.15 191.9-11.23 190.18-10.3 188.78-10.3L188.78-10.3Q187.93-10.3 188.78-10.6L188.78-10.6Q189.23-10.75 189.85-11.08 190.48-11.4 191.18-11.88 191.88-12.35 192.6-13 193.33-13.65 193.93-14.5L193.93-14.5Q194.93-15.9 195.1-17.23 195.28-18.55 194.58-19.25L194.58-19.25Q193.98-19.85 193.18-19.93 192.38-20 190.78-19.05L190.78-19.05Q189.33-18.2 188.18-16.95 187.03-15.7 186.03-14.3L186.03-14.3Q185.48-13.6 185.3-13.6 185.13-13.6 185.43-14.5L185.43-14.5Q186.03-16.25 187.1-17.75 188.18-19.25 189.68-20.3L189.68-20.3Q190.78-21.05 191.7-21.35 192.63-21.65 193.4-21.6 194.18-21.55 194.78-21.23 195.38-20.9 195.78-20.4ZM198.48-16.9L198.48-16.9Q198.28-15.7 197.85-14.88 197.43-14.05 196.9-13.48 196.38-12.9 195.85-12.55 195.33-12.2 194.93-11.9L194.93-11.9Q194.73-11.75 194.63-11.85 194.53-11.95 194.78-12.2L194.78-12.2Q195.68-12.95 196.6-14.23 197.53-15.5 197.58-17.05L197.58-17.05Q197.58-19.7 196.28-21.1L196.28-21.1Q194.98-22.5 193.03-22.33 191.08-22.15 188.98-20.8L188.98-20.8Q187.63-19.95 186.6-18.82 185.58-17.7 184.83-16.43 184.08-15.15 183.6-13.8 183.13-12.45 182.93-11.1L182.93-11.1Q182.73-9.8 182.55-8.3 182.38-6.8 182.55-5.35 182.73-3.9 183.48-2.58 184.23-1.25 185.83-0.3L185.83-0.3Q186.08-0.15 186.35-0.1 186.63-0.05 186.63 0L186.63 0Q186.63 0.1 186.38 0.13 186.13 0.15 185.83 0.05L185.83 0.05Q184.58-0.2 183.7-0.98 182.83-1.75 182.28-2.75 181.73-3.75 181.43-4.85 181.13-5.95 181.08-6.85L181.08-6.85Q180.78-10.8 182.18-14.65L182.18-14.65Q182.48-15.45 182.95-16.45 183.43-17.45 184.13-18.48 184.83-19.5 185.78-20.48 186.73-21.45 187.93-22.2L187.93-22.2Q189.08-22.9 190.33-23.25 191.58-23.6 192.83-23.58 194.08-23.55 195.18-23.13 196.28-22.7 197.13-21.85L197.13-21.85Q197.88-21.05 198.3-19.8 198.73-18.55 198.48-16.9ZM193.93-18.7L193.93-18.7Q194.53-18 194.08-16.53 193.63-15.05 191.98-13.55L191.98-13.55Q191.08-12.7 190.23-12.18 189.38-11.65 188.08-11.25L188.08-11.25Q187.53-9.35 187.38-7.5 187.23-5.65 187.48-4.5L187.48-4.5Q187.53-4.05 187.8-3.63 188.08-3.2 188.6-2.98 189.13-2.75 189.98-2.8 190.83-2.85 192.08-3.35L192.08-3.35Q192.43-3.5 192.5-3.43 192.58-3.35 192.18-3.1L192.18-3.1Q191.28-2.4 190.28-2.13 189.28-1.85 188.4-1.95 187.53-2.05 186.9-2.55 186.28-3.05 186.08-3.9L186.08-3.9Q185.68-5.65 185.73-7.55 185.78-9.45 186.3-11.3 186.83-13.15 187.8-14.78 188.78-16.4 190.23-17.55L190.23-17.55Q192.93-19.7 193.93-18.7ZM193.43-2.75L193.43-2.75Q193.08-2.25 192.55-1.78 192.03-1.3 191.35-0.93 190.68-0.55 189.95-0.3 189.23-0.05 188.48-0.05L188.48-0.05Q187.18-0.05 186.05-0.63 184.93-1.2 184.33-2.95L184.33-2.95Q184.23-3.15 184.23-3.33 184.23-3.5 184.33-3.5L184.33-3.5Q184.53-3.6 184.73-3.38 184.93-3.15 185.13-2.9L185.13-2.9Q185.68-2.25 186.55-1.75 187.43-1.25 188.23-1.25L188.23-1.25Q189.73-1.25 190.83-1.7 191.93-2.15 192.93-2.9L192.93-2.9Q193.18-3.05 193.5-3.2 193.83-3.35 193.43-2.75ZM192.73-17.35L192.73-17.35Q192.53-17.75 191.28-16.7L191.28-16.7Q190.13-15.8 189.45-14.63 188.78-13.45 188.28-12.05L188.28-12.05Q189.23-12.5 190.03-13.08 190.83-13.65 191.53-14.2L191.53-14.2Q192.28-14.85 192.63-15.9 192.98-16.95 192.73-17.35ZM204.93-16.65L204.93-16.65Q204.53-14.95 203.8-13.08 203.08-11.2 202.18-9.6L202.18-9.6Q202.18-9.5 202.05-9.28 201.93-9.05 201.73-9.05L201.73-9.05Q201.63-9.05 201.6-9.35 201.58-9.65 201.63-9.75L201.63-9.75Q201.63-10.55 201.83-11.88 202.03-13.2 202.33-14.05L202.33-14.05Q202.43-14.35 202.65-15.5 202.88-16.65 203.05-18.07 203.23-19.5 203.25-20.83 203.28-22.15 202.93-22.8L202.93-22.8 202.93-23Q203.13-23.15 203.38-22.9L203.38-22.9Q204.03-22.35 204.4-21.55 204.78-20.75 204.95-19.88 205.13-19 205.1-18.15 205.08-17.3 204.93-16.65ZM206.88-16.85L206.88-16.85Q207.43-17.55 207.93-17.85 208.43-18.15 208.93-18.35L208.93-18.35Q208.98-18.35 209.18-18.4 209.38-18.45 209.48-18.3L209.48-18.3Q209.58-18.15 209.43-17.95 209.28-17.75 209.18-17.65L209.18-17.65Q208.83-17.3 208.4-16.88 207.98-16.45 207.63-16.05L207.63-16.05Q207.13-15.5 206.83-14.78 206.53-14.05 206.38-13.3L206.38-13.3Q207.23-14.2 208-15 208.78-15.8 209.68-16.5L209.68-16.5Q210.83-17.35 211.68-18.7 212.53-20.05 212.88-22.65L212.88-22.65Q212.98-22.9 213.13-22.95 213.28-23 213.28-22.6L213.28-22.6Q213.43-19.7 212.68-18 211.93-16.3 210.43-15.15L210.43-15.15Q209.63-14.55 208.83-13.85 208.03-13.15 207.3-12.3 206.58-11.45 205.98-10.3 205.38-9.15 204.93-7.65L204.93-7.65Q204.58-6.5 204.23-5.48 203.88-4.45 203.48-3.5L203.48-3.5Q203.38-3.15 203.18-3.15L203.18-3.15Q203.03-3.2 203.03-3.65L203.03-3.65Q202.78-6.05 203.35-8.43 203.93-10.8 204.73-13.35L204.73-13.35Q205.08-14.6 205.55-15.85 206.03-17.1 205.98-18.7L205.98-18.7Q205.98-19.25 206.43-19.85 206.88-20.45 207.53-20.98 208.18-21.5 208.88-21.88 209.58-22.25 210.08-22.4L210.08-22.4Q210.53-22.55 210.53-22.35 210.53-22.15 210.23-21.85L210.23-21.85Q209.18-20.9 208.1-19.6 207.03-18.3 206.88-16.85ZM202.53-0.05L202.53-0.05Q202.48 0 202.45-0.03 202.43-0.05 202.18-0.2L202.18-0.2Q200.68-1.3 199.83-2.6 198.98-3.9 198.6-5.28 198.23-6.65 198.28-8.03 198.33-9.4 198.63-10.7L198.63-10.7Q199.03-12.45 199.6-14.18 200.18-15.9 200.68-17.53 201.18-19.15 201.43-20.73 201.68-22.3 201.43-23.75L201.43-23.75Q201.43-23.85 201.58-23.9L201.58-23.9Q201.63-23.9 201.68-23.83 201.73-23.75 201.78-23.7L201.78-23.7Q202.73-22.1 202.73-20.43 202.73-18.75 202.28-17.03 201.83-15.3 201.15-13.53 200.48-11.75 200.08-9.95L200.08-9.95Q199.58-7.65 200-5.05 200.43-2.45 202.33-0.4L202.33-0.4Q202.43-0.25 202.53-0.2 202.63-0.15 202.53-0.05ZM204.03 0L204.03 0Q203.93 0 203.83-0.05L203.83-0.05 203.63-0.15Q202.93-0.6 202.38-1.13 201.83-1.65 201.43-2.65L201.43-2.65Q201.28-3 201.18-3.58 201.08-4.15 201.05-4.65 201.03-5.15 201.1-5.5 201.18-5.85 201.38-5.8L201.38-5.8Q201.53-5.8 201.7-5.4 201.88-5 201.98-4.6L201.98-4.6Q202.08-4.05 202.2-3.55 202.33-3.05 202.53-2.65L202.53-2.65Q203.08-1.4 203.98-0.25L203.98-0.25Q204.08 0 204.03 0ZM212.18-22.45L212.18-22.45Q212.18-21.4 211.58-20.6 210.98-19.8 210.13-19.25L210.13-19.25Q209.98-19.15 209.93-19.28 209.88-19.4 209.88-19.45L209.88-19.45Q209.88-19.75 210.13-20.18 210.38-20.6 210.7-21.08 211.03-21.55 211.33-22.05 211.63-22.55 211.73-22.95L211.73-22.95Q211.88-23.2 212.03-22.95 212.18-22.7 212.18-22.45ZM218.32-18.45L218.32-18.45Q218.37-18.9 218.62-19.53 218.87-20.15 219.3-20.73 219.72-21.3 220.32-21.78 220.92-22.25 221.67-22.4L221.67-22.4Q223.27-22.7 224.32-22.2 225.37-21.7 225.92-21.05L225.92-21.05Q226.12-20.75 226.07-20.7L226.07-20.7Q225.97-20.6 225.72-20.75L225.72-20.75Q225.42-20.95 224.75-21.1 224.07-21.25 223.3-21.18 222.52-21.1 221.8-20.7 221.07-20.3 220.62-19.4L220.62-19.4Q220.22-18.55 220.07-17.65 219.92-16.75 219.9-15.98 219.87-15.2 219.92-14.65 219.97-14.1 219.97-13.9L219.97-13.9Q220.07-13.35 220.15-12.53 220.22-11.7 220.22-10.85 220.22-10 220.17-9.18 220.12-8.35 219.97-7.75L219.97-7.75Q219.92-7.6 219.85-7.25 219.77-6.9 219.67-6.9L219.67-6.9Q219.42-6.9 219.42-7.25 219.42-7.6 219.42-7.75L219.42-7.75Q219.32-9 219.07-10.28 218.82-11.55 218.6-12.9 218.37-14.25 218.27-15.63 218.17-17 218.32-18.45ZM216.57-8.55L216.57-8.55Q216.62-9.55 216.4-11.38 216.17-13.2 216.22-15.6L216.22-15.6Q216.27-16.85 216.47-18.18 216.67-19.5 217.42-20.8L217.42-20.8Q218.22-22.2 219.45-22.88 220.67-23.55 221.57-23.5L221.57-23.5Q221.72-23.5 221.87-23.5 222.02-23.5 222.02-23.45L222.02-23.45Q222.02-23.35 221.97-23.38 221.92-23.4 221.62-23.3L221.62-23.3Q220.72-23.05 220.02-22.48 219.32-21.9 218.82-21.15 218.32-20.4 218.02-19.6 217.72-18.8 217.67-18.15L217.67-18.15Q217.37-15.4 217.72-13.35L217.72-13.35Q217.97-11.7 218.12-9.93 218.27-8.15 218-6.68 217.72-5.2 216.95-4.23 216.17-3.25 214.57-3.15L214.57-3.15Q214.42-3.15 214.2-3.18 213.97-3.2 213.97-3.3L213.97-3.3Q213.97-3.4 214.42-3.65L214.42-3.65Q215.72-4.25 216.12-5.4 216.52-6.55 216.57-8.55ZM211.27-2.65L211.27-2.65Q211.97-1.55 213.5-1.03 215.02-0.5 217.12-1.1L217.12-1.1Q218.17-1.4 218.97-2.15 219.77-2.9 220.3-3.83 220.82-4.75 221.1-5.75 221.37-6.75 221.42-7.6L221.42-7.6Q221.47-9 221.35-10.35 221.22-11.7 221.05-12.98 220.87-14.25 220.75-15.45 220.62-16.65 220.72-17.8L220.72-17.8Q220.82-19.05 221.42-19.7 222.02-20.35 222.9-20.53 223.77-20.7 224.72-20.4 225.67-20.1 226.47-19.45L226.47-19.45Q226.67-19.35 226.62-19.2L226.62-19.2Q226.62-19.1 226.52-19.15 226.42-19.2 226.32-19.25L226.32-19.25Q224.47-19.85 223.45-19.6 222.42-19.35 222.32-17.8L222.32-17.8Q222.22-16 222.6-13.58 222.97-11.15 222.87-8.2L222.87-8.2Q222.92-7.2 222.65-5.9 222.37-4.6 221.75-3.38 221.12-2.15 220.1-1.2 219.07-0.25 217.67 0L217.67 0Q215.02 0.4 213.45-0.3 211.87-1 211.17-2.45L211.17-2.45Q211.07-2.75 211.07-2.8L211.07-2.8 211.12-2.8Q211.12-2.8 211.27-2.65ZM213.47-2.65L213.47-2.65Q214.42-2.4 215.77-2.45L215.77-2.45Q216.22-2.5 216.87-2.7 217.52-2.9 217.57-2.8L217.57-2.8Q217.72-2.6 217.27-2.3 216.82-2 216.12-1.78 215.42-1.55 214.67-1.48 213.92-1.4 213.42-1.6L213.42-1.6Q212.47-2 212.05-2.48 211.62-2.95 211.27-3.65L211.27-3.65 211.17-3.85Q211.07-4.05 211.12-4.1L211.12-4.1Q211.17-4.15 211.27-4.1L211.27-4.1Q211.32-4.05 211.32-4L211.32-4Q211.92-3.45 212.35-3.18 212.77-2.9 213.47-2.65ZM236.22-26.35L236.22-26.35Q235.37-23.4 234.3-20.3 233.22-17.2 232.07-14.45L232.07-14.45Q232.02-14.3 231.8-13.9 231.57-13.5 231.42-13.55L231.42-13.55Q231.32-13.55 231.3-14.03 231.27-14.5 231.32-14.75L231.32-14.75Q231.42-15.4 231.62-16.35 231.82-17.3 232.05-18.3 232.27-19.3 232.5-20.25 232.72-21.2 232.97-21.9L232.97-21.9Q233.07-22.2 233.32-23.2 233.57-24.2 233.87-25.6 234.17-27 234.5-28.6 234.82-30.2 235.05-31.7 235.27-33.2 235.37-34.45 235.47-35.7 235.32-36.35L235.32-36.35Q235.17-36.85 235.32-36.85L235.32-36.85Q235.42-36.85 235.5-36.73 235.57-36.6 235.67-36.5L235.67-36.5Q236.17-35.6 236.45-34.3 236.72-33 236.77-31.6 236.82-30.2 236.67-28.8 236.52-27.4 236.22-26.35ZM234.22-37.9L234.22-37.9Q234.87-35.35 234.55-32.55 234.22-29.75 233.42-26.85 232.62-23.95 231.62-20.98 230.62-18 229.92-15L229.92-15Q229.47-13.1 229.2-11.08 228.92-9.05 228.92-7.08 228.92-5.1 229.25-3.28 229.57-1.45 230.37 0L230.37 0Q230.47 0.2 230.45 0.3 230.42 0.4 230.12 0L230.12 0Q228.82-1.5 228.2-3.4 227.57-5.3 227.47-7.4 227.37-9.5 227.67-11.75 227.97-14 228.52-16.15L228.52-16.15Q229.27-19.15 230.2-22.05 231.12-24.95 231.95-27.7 232.77-30.45 233.32-33.02 233.87-35.6 233.87-38L233.87-38Q233.87-38.25 233.92-38.25L233.92-38.25Q234.12-38.25 234.22-37.9ZM243.32 0L243.32 0Q241.47-0.85 240.37-2.65 239.27-4.45 239.02-6.8L239.02-6.8Q238.77-9.1 239.02-10.63 239.27-12.15 239.62-13.65L239.62-13.65Q239.67-13.85 239.82-14.33 239.97-14.8 240.05-15.3 240.12-15.8 240.05-16.18 239.97-16.55 239.62-16.65L239.62-16.65Q238.92-16.8 238.02-16.03 237.12-15.25 236.3-14.1 235.47-12.95 234.8-11.73 234.12-10.5 233.92-9.8L233.92-9.8Q233.47-8.35 232.97-7.05 232.47-5.75 232.07-4.45L232.07-4.45Q231.92-3.9 231.82-3.95L231.82-3.95Q231.72-3.95 231.7-4.15 231.67-4.35 231.67-4.6L231.67-4.6Q231.67-6.6 231.97-8.63 232.27-10.65 232.8-12.65 233.32-14.65 233.97-16.65 234.62-18.65 235.22-20.7L235.22-20.7Q236.02-23.25 236.75-25.9 237.47-28.55 237.72-31.6L237.72-31.6Q237.72-31.85 237.72-31.88 237.72-31.9 237.77-31.9L237.77-31.9Q237.92-31.9 238.02-31.5L238.02-31.5Q238.27-30.85 238.25-29.68 238.22-28.5 238.05-27.1 237.87-25.7 237.55-24.25 237.22-22.8 236.87-21.65L236.87-21.65Q237.82-22.65 239.12-23.2 240.42-23.75 242.22-23.5L242.22-23.5Q244.27-23.2 245.37-22.03 246.47-20.85 246.87-19.2 247.27-17.55 247.1-15.68 246.92-13.8 246.47-12.05L246.47-12.05Q246.07-10.7 245.72-9.68 245.37-8.65 245.02-7.8 244.67-6.95 244.42-6.2 244.17-5.45 244.02-4.6L244.02-4.6Q243.92-4.05 243.82-4.05L243.82-4.05Q243.72-4.05 243.65-4.25 243.57-4.45 243.52-4.65L243.52-4.65Q243.22-5.75 243.5-7.35 243.77-8.95 244.22-10.73 244.67-12.5 245.05-14.33 245.42-16.15 245.35-17.7 245.27-19.25 244.52-20.43 243.77-21.6 241.97-22.05L241.97-22.05Q241.22-22.25 240.35-22.18 239.47-22.1 238.7-21.78 237.92-21.45 237.32-20.85 236.72-20.25 236.52-19.45L236.52-19.45Q237.47-20.45 238.97-21.1 240.47-21.75 241.87-21.3L241.87-21.3Q243.17-20.9 243.72-19.85 244.27-18.8 244.37-18L244.37-18Q244.57-16.25 244.15-14.83 243.72-13.4 243.17-12.1L243.17-12.1Q243.07-11.95 242.87-11.63 242.67-11.3 242.57-11.35L242.57-11.35Q242.47-11.35 242.47-11.75 242.47-12.15 242.52-12.35L242.52-12.35Q242.67-12.85 242.77-13.93 242.87-15 242.85-16.15 242.82-17.3 242.55-18.3 242.27-19.3 241.67-19.65L241.67-19.65Q240.97-20.05 239.97-19.88 238.97-19.7 237.82-18.65L237.82-18.65Q236.82-17.75 236.12-16.57 235.42-15.4 234.92-13.5L234.92-13.5Q235.22-14.05 235.87-15.05 236.52-16.05 237.35-16.95 238.17-17.85 239.1-18.38 240.02-18.9 240.87-18.5L240.87-18.5Q241.42-18.2 241.6-17.48 241.77-16.75 241.7-15.85 241.62-14.95 241.42-14.1 241.22-13.25 241.07-12.75L241.07-12.75Q240.52-11.25 240.32-9.47 240.12-7.7 240.35-6 240.57-4.3 241.32-2.8 242.07-1.3 243.52-0.25L243.52-0.25Q243.97 0 243.7 0 243.42 0 243.32 0ZM244.62-0.4L244.62-0.4Q243.92-0.8 243.3-1.25 242.67-1.7 242.07-3L242.07-3Q241.82-3.5 241.7-4.35 241.57-5.2 241.55-5.98 241.52-6.75 241.62-7.28 241.72-7.8 241.87-7.75L241.87-7.75Q241.97-7.75 242.07-7.53 242.17-7.3 242.22-7 242.27-6.7 242.32-6.43 242.37-6.15 242.37-6.05L242.37-6.05Q242.57-4.95 242.72-4.42 242.87-3.9 243.12-3.3L243.12-3.3Q243.52-2.5 243.92-1.85 244.32-1.2 244.92-0.65L244.92-0.65Q245.17-0.45 245.05-0.35 244.92-0.25 244.62-0.4ZM231.97 0L231.97 0Q232.02 0 231.9 0.05 231.77 0.1 231.42 0L231.42 0Q231.02-0.2 230.6-0.75 230.17-1.3 229.92-2.9L229.92-2.9Q229.82-3.55 229.82-4.48 229.82-5.4 229.9-6.23 229.97-7.05 230.12-7.65 230.27-8.25 230.47-8.2L230.47-8.2Q230.52-8.2 230.57-7.9 230.62-7.6 230.67-7.23 230.72-6.85 230.72-6.48 230.72-6.1 230.72-5.95L230.72-5.95Q230.77-4.85 230.85-4.33 230.92-3.8 231.07-2.9L231.07-2.9Q231.22-1.95 231.42-1.18 231.62-0.4 231.97 0ZM264.22-13.85L264.22-13.85Q264.37-15.2 264.27-16.7 264.17-18.2 263.64-19.48 263.12-20.75 262.04-21.6 260.97-22.45 259.22-22.45L259.22-22.45Q256.87-22.45 255.12-21.18 253.37-19.9 252.12-18.03 250.87-16.15 250.17-14.03 249.47-11.9 249.27-10.15L249.27-10.15Q248.97-7.75 249.19-6 249.42-4.25 250.02-3.13 250.62-2 251.54-1.45 252.47-0.9 253.57-0.9L253.57-0.9Q255.12-0.85 256.84-1.78 258.57-2.7 260.07-4.38 261.57-6.05 262.69-8.47 263.82-10.9 264.22-13.85ZM248.12-10.4L248.12-10.4Q248.32-12.4 249.12-14.8 249.92-17.2 251.34-19.25 252.77-21.3 254.77-22.68 256.77-24.05 259.42-24.05L259.42-24.05Q261.42-24.05 262.72-23.1 264.02-22.15 264.72-20.68 265.42-19.2 265.62-17.48 265.82-15.75 265.62-14.2L265.62-14.2Q265.17-10.6 263.87-7.95 262.57-5.3 260.82-3.53 259.07-1.75 257.12-0.88 255.17 0 253.37 0L253.37 0Q252.02 0 250.94-0.6 249.87-1.2 249.14-2.48 248.42-3.75 248.14-5.73 247.87-7.7 248.12-10.4ZM253.72-3.35L253.72-3.35Q253.47-3.35 253.22-3.53 252.97-3.7 252.82-3.95 252.67-4.2 252.62-4.45 252.57-4.7 252.82-4.8L252.82-4.8Q252.97-4.85 253.22-4.45 253.47-4.05 253.77-4.05L253.77-4.05Q254.27-4.05 254.94-4.7 255.62-5.35 256.24-6.23 256.87-7.1 257.34-7.95 257.82-8.8 258.02-9.2L258.02-9.2Q258.22-9.6 258.42-10.23 258.62-10.85 258.79-11.5 258.97-12.15 259.09-12.78 259.22-13.4 259.27-13.85L259.27-13.85Q259.52-16.1 259.17-17.32 258.82-18.55 258.02-18.55L258.02-18.55Q257.42-18.55 256.77-18.18 256.12-17.8 255.54-17.2 254.97-16.6 254.52-15.88 254.07-15.15 253.87-14.4L253.87-14.4Q253.62-13.55 253.52-13.55L253.52-13.55Q253.37-13.55 253.37-14.4L253.37-14.4Q253.52-15.35 254.02-16.28 254.52-17.2 255.27-17.93 256.02-18.65 256.92-19.13 257.82-19.6 258.77-19.6L258.77-19.6Q259.72-19.6 260.19-18.93 260.67-18.25 260.87-17.28 261.07-16.3 261.04-15.28 261.02-14.25 260.92-13.65L260.92-13.65Q260.72-12.3 260.29-11.03 259.87-9.75 259.27-8.45L259.27-8.45Q258.97-7.85 258.37-6.98 257.77-6.1 256.99-5.3 256.22-4.5 255.34-3.93 254.47-3.35 253.72-3.35ZM255.32-2.4L255.32-2.4Q255.37-2.1 254.84-1.9 254.32-1.7 253.77-1.7L253.77-1.7Q252.22-1.75 251.39-2.7 250.57-3.65 250.24-4.95 249.92-6.25 249.94-7.65 249.97-9.05 250.07-10L250.07-10Q250.27-11.65 250.87-13.7 251.47-15.75 252.57-17.55 253.67-19.35 255.27-20.58 256.87-21.8 259.07-21.8L259.07-21.8Q260.52-21.8 261.39-21.05 262.27-20.3 262.69-19.2 263.12-18.1 263.19-16.82 263.27-15.55 263.12-14.5L263.12-14.5Q263.02-13.35 262.77-12.4 262.52-11.45 262.07-10.3L262.07-10.3Q261.92-9.95 261.67-9.5 261.42-9.05 261.12-9.1L261.12-9.1Q260.97-9.15 261.04-9.5 261.12-9.85 261.24-10.38 261.37-10.9 261.52-11.48 261.67-12.05 261.72-12.55L261.72-12.55Q261.82-13.4 261.84-14.68 261.87-15.95 261.64-17.15 261.42-18.35 260.82-19.2 260.22-20.05 259.02-20.05L259.02-20.05Q257.27-20.05 255.79-18.93 254.32-17.8 253.22-16.18 252.12-14.55 251.44-12.78 250.77-11 250.62-9.65L250.62-9.65Q250.52-8.85 250.57-7.65 250.62-6.45 250.94-5.28 251.27-4.1 252.02-3.25 252.77-2.4 254.07-2.35L254.07-2.35Q254.47-2.3 254.84-2.43 255.22-2.55 255.32-2.4ZM287.17-15.15L287.17-15.15Q287.12-13 286.42-10.78 285.72-8.55 284.47-6.6 283.22-4.65 281.49-3.13 279.77-1.6 277.67-0.8L277.67-0.8Q277.02-0.55 276.92-0.7L276.92-0.7Q276.92-0.85 277.09-0.95 277.27-1.05 277.52-1.3L277.52-1.3Q279.47-2.8 280.97-4.45 282.47-6.1 283.52-8.03 284.57-9.95 285.09-12.2 285.62-14.45 285.62-17.1L285.62-17.1Q285.62-19.45 284.19-20.88 282.77-22.3 280.72-22.4L280.72-22.4Q279.12-22.5 277.44-21.63 275.77-20.75 274.37-18.9L274.37-18.9Q274.32-19.85 274.87-20.75 275.42-21.65 276.34-22.33 277.27-23 278.47-23.4 279.67-23.8 280.92-23.8L280.92-23.8Q282.12-23.8 283.27-23.33 284.42-22.85 285.32-21.8 286.22-20.75 286.72-19.13 287.22-17.5 287.17-15.15ZM272.92-12.35L272.92-12.35Q272.22-9.2 271.44-5.98 270.67-2.75 269.67 0L269.67 0Q269.57 0.1 269.44 0.35 269.32 0.6 269.22 0.5L269.22 0.5Q269.17 0.5 269.07 0.25L269.07 0.25Q269.02 0.15 269.02 0L269.02 0Q269.07-0.65 269.22-1.65 269.37-2.65 269.54-3.7 269.72-4.75 269.92-5.78 270.12-6.8 270.27-7.55L270.27-7.55Q270.32-7.85 270.52-8.93 270.72-10 270.94-11.45 271.17-12.9 271.39-14.58 271.62-16.25 271.77-17.85 271.92-19.45 271.94-20.75 271.97-22.05 271.77-22.75L271.77-22.75Q271.72-22.95 271.72-23.13 271.72-23.3 271.77-23.3L271.77-23.3Q271.87-23.3 271.97-23.15 272.07-23 272.12-22.9L272.12-22.9Q272.67-22 272.94-20.65 273.22-19.3 273.29-17.8 273.37-16.3 273.24-14.85 273.12-13.4 272.92-12.35ZM274.72-9.2L274.72-9.2Q274.42-7.3 274.14-5.78 273.87-4.25 273.57-2.65L273.57-2.65Q274.72-3.85 275.59-4.83 276.47-5.8 277.14-6.8 277.82-7.8 278.39-8.9 278.97-10 279.52-11.45L279.52-11.45Q279.97-12.7 280.17-14.15 280.37-15.6 280.27-16.5L280.27-16.5Q280.27-16.8 280.09-16.95 279.92-17.1 279.47-16.9L279.47-16.9Q279.02-16.65 278.32-16.03 277.62-15.4 276.89-14.43 276.17-13.45 275.57-12.13 274.97-10.8 274.72-9.2ZM275.07-13.85L275.07-13.85Q275.27-14.5 275.92-15.5 276.57-16.5 277.42-17.35 278.27-18.2 279.22-18.68 280.17-19.15 281.02-18.7L281.02-18.7Q281.62-18.4 281.82-17.48 282.02-16.55 281.92-15.4 281.82-14.25 281.49-12.98 281.17-11.7 280.77-10.75L280.77-10.75Q279.62-7.9 277.89-5.65 276.17-3.4 273.27-1.45L273.27-1.45Q273.22-1.2 273.39-1.13 273.57-1.05 273.84-1.1 274.12-1.15 274.44-1.3 274.77-1.45 275.02-1.7L275.02-1.7Q275.57-2.15 276.24-2.75 276.92-3.35 277.57-3.9 278.22-4.45 278.67-4.78 279.12-5.1 279.22-5.05L279.22-5.05Q279.27-5 279.12-4.73 278.97-4.45 278.72-4.1 278.47-3.75 278.22-3.43 277.97-3.1 277.87-3L277.87-3Q277.22-2.3 276.69-1.78 276.17-1.25 275.42-0.75L275.42-0.75Q274.82-0.3 274.24-0.13 273.67 0.05 272.97-0.2L272.97-0.2Q272.42 2.3 271.64 5 270.87 7.7 270.32 9.8L270.32 9.8Q270.17 10.6 270.02 10.5L270.02 10.5Q269.92 10.4 269.89 10.15 269.87 9.9 269.87 9.6L269.87 9.6Q269.87 7.5 270.12 5.55 270.37 3.6 270.77 1.63 271.17-0.35 271.64-2.38 272.12-4.4 272.62-6.6L272.62-6.6Q273.17-9 273.64-11.28 274.12-13.55 274.47-16.35L274.47-16.35Q274.62-17.55 275.22-18.55 275.82-19.55 276.67-20.23 277.52-20.9 278.54-21.25 279.57-21.6 280.57-21.6L280.57-21.6Q282.22-21.55 283.44-20.38 284.67-19.2 284.67-16.6L284.67-16.6Q284.67-14.7 284.09-13.05 283.52-11.4 282.82-10.05L282.82-10.05Q282.72-9.9 282.39-9.5 282.07-9.1 281.97-9.2L281.97-9.2Q281.92-9.25 282.04-9.65 282.17-10.05 282.27-10.3L282.27-10.3Q282.57-11.1 282.82-12.45 283.07-13.8 283.09-15.2 283.12-16.6 282.74-17.8 282.37-19 281.37-19.5L281.37-19.5Q280.17-20.1 279.04-19.68 277.92-19.25 277.04-18.3 276.17-17.35 275.62-16.13 275.07-14.9 275.07-13.85ZM270.67-24.25L270.67-24.25Q271.42-21.6 271.24-18.68 271.07-15.75 270.42-12.68 269.77-9.6 268.92-6.45 268.07-3.3 267.47-0.15L267.47-0.15Q267.17 1.55 266.99 3.53 266.82 5.5 266.92 7.55 267.02 9.6 267.44 11.58 267.87 13.55 268.77 15.25L268.77 15.25Q268.97 15.65 268.84 15.65 268.72 15.65 268.47 15.35L268.47 15.35Q267.27 13.65 266.64 11.58 266.02 9.5 265.79 7.33 265.57 5.15 265.67 2.95 265.77 0.75 266.07-1.25L266.07-1.25Q266.57-4.4 267.34-7.45 268.12-10.5 268.82-13.4 269.52-16.3 269.99-19.03 270.47-21.75 270.32-24.25L270.32-24.25Q270.32-24.6 270.42-24.6L270.42-24.6Q270.47-24.65 270.57-24.5 270.67-24.35 270.67-24.25ZM270.47 15.65L270.47 15.65Q270.32 15.7 270.12 15.5L270.12 15.5 269.92 15.3Q269.37 14.65 268.92 13.95 268.47 13.25 268.17 11.6L268.17 11.6Q268.07 10.95 268.02 10 267.97 9.05 267.97 8.15 267.97 7.25 268.07 6.6 268.17 5.95 268.37 6L268.37 6Q268.57 6 268.72 6.7 268.87 7.4 268.92 8.1L268.92 8.1Q269.02 9.05 269.04 9.83 269.07 10.6 269.22 11.4L269.22 11.4Q269.42 12.4 269.72 13.35 270.02 14.3 270.42 15.15L270.42 15.15Q270.47 15.25 270.49 15.45 270.52 15.65 270.47 15.65Z" opacity="1" transform="matrix(1,0,0,1,0,0)" fill="#000000" class="wordmark-text-0" data-fill-palette-color="primary"></path></svg></g></svg></g></svg></g><g transform="matrix(1,0,0,1,118.2325757473017,67.81112936000001)"><svg viewBox="0 0 178.38599147838494 12.799446846189202" height="12.799446846189202" width="178.38599147838494"><g transform="matrix(1,0,0,1,0,0)"><svg width="178.38599147838494" viewBox="4.49 -36.01 648.14 46.51" height="12.799446846189202" data-palette-color="#000000"><path d="M9.5-27.15L9.5 0 4.49 0 4.49-35.01 9.5-35.01 30.54-7.86 30.54-35.01 35.55-35.01 35.55 0 30.54 0 9.5-27.15ZM66.04-21.19L66.04-10.55 48.83-10.55 48.83-4.81 66.04-4.81 66.04 0 48.83 0Q47.85 0 46.97-0.38 46.09-0.76 45.44-1.4 44.8-2.05 44.42-2.93 44.04-3.81 44.04-4.81L44.04-4.81 44.04-21.19Q44.04-22.19 44.42-23.07 44.8-23.95 45.44-24.6 46.09-25.24 46.97-25.62 47.85-26 48.83-26L48.83-26 61.23-26Q62.23-26 63.11-25.62 63.99-25.24 64.63-24.6 65.28-23.95 65.66-23.07 66.04-22.19 66.04-21.19L66.04-21.19ZM61.23-21.19L48.83-21.19 48.83-15.36 61.23-15.36 61.23-21.19ZM105.63-21.19L94.65-21.19 94.65 0 89.84 0 89.84-21.19 78.83-21.19 78.83 0 74.04 0 74.04-26 78.83-26 78.83-21.41Q78.88-22.36 79.27-23.21 79.66-24.05 80.31-24.67 80.95-25.29 81.81-25.65 82.66-26 83.64-26L83.64-26 89.84-26Q90.79-26 91.65-25.65 92.5-25.29 93.16-24.67 93.82-24.05 94.22-23.21 94.62-22.36 94.65-21.41L94.65-21.41Q94.7-22.36 95.08-23.21 95.45-24.05 96.1-24.67 96.75-25.29 97.6-25.65 98.46-26 99.43-26L99.43-26 105.63-26Q106.64-26 107.51-25.62 108.39-25.24 109.04-24.6 109.69-23.95 110.07-23.07 110.44-22.19 110.44-21.19L110.44-21.19 110.44 0 105.63 0 105.63-21.19ZM150.62-21.19L138.22-21.19 138.22-4.81 150.62-4.81 150.62-9.2 155.43-9.2 155.43-4.81Q155.43-3.81 155.06-2.93 154.68-2.05 154.03-1.4 153.38-0.76 152.5-0.38 151.63 0 150.62 0L150.62 0 138.22 0Q137.25 0 136.37-0.38 135.49-0.76 134.84-1.4 134.19-2.05 133.82-2.93 133.44-3.81 133.44-4.81L133.44-4.81 133.44-21.19Q133.44-22.19 133.82-23.07 134.19-23.95 134.84-24.6 135.49-25.24 136.37-25.62 137.25-26 138.22-26L138.22-26 150.62-26Q151.63-26 152.5-25.62 153.38-25.24 154.03-24.6 154.68-23.95 155.06-23.07 155.43-22.19 155.43-21.19L155.43-21.19 155.43-16.8 150.62-16.8 150.62-21.19ZM162.93-4.81L179.14-4.81 179.14-10.84 167.74-10.84Q166.74-10.84 165.86-11.22 164.98-11.6 164.33-12.24 163.68-12.89 163.31-13.77 162.93-14.65 162.93-15.65L162.93-15.65 162.93-21.19Q162.93-22.19 163.31-23.07 163.68-23.95 164.33-24.6 164.98-25.24 165.86-25.62 166.74-26 167.74-26L167.74-26 182.95-26 182.95-21.19 167.74-21.19 167.74-15.65 179.14-15.65Q180.14-15.65 181.01-15.27 181.87-14.89 182.53-14.25 183.19-13.6 183.57-12.72 183.95-11.84 183.95-10.84L183.95-10.84 183.95-4.81Q183.95-3.81 183.57-2.93 183.19-2.05 182.53-1.4 181.87-0.76 181.01-0.38 180.14 0 179.14 0L179.14 0 162.93 0 162.93-4.81ZM191.44-4.81L191.44-11.35Q191.44-12.35 191.82-13.22 192.2-14.09 192.84-14.75 193.49-15.41 194.37-15.78 195.25-16.16 196.23-16.16L196.23-16.16 208.63-16.16 208.63-21.19 192.93-21.19 192.93-26 208.63-26Q209.63-26 210.51-25.62 211.39-25.24 212.03-24.6 212.68-23.95 213.06-23.07 213.44-22.19 213.44-21.19L213.44-21.19 213.44 0 208.63 0 208.63-4.39Q208.55-3.49 208.14-2.69 207.72-1.88 207.08-1.28 206.43-0.68 205.6-0.34 204.77 0 203.84 0L203.84 0 196.23 0Q195.25 0 194.37-0.38 193.49-0.76 192.84-1.4 192.2-2.05 191.82-2.93 191.44-3.81 191.44-4.81L191.44-4.81ZM196.23-11.35L196.23-4.81 208.63-4.81 208.63-11.35 196.23-11.35ZM245.39 0L238.63 0 226.23-11.11 226.23 0 221.44 0 221.44-36.01 226.23-36.01 226.23-15.75 237.63-26 244.39-26 230.43-13.45 245.39 0ZM285.87-21.19L285.87-10.55 268.65-10.55 268.65-4.81 285.87-4.81 285.87 0 268.65 0Q267.68 0 266.8-0.38 265.92-0.76 265.27-1.4 264.63-2.05 264.25-2.93 263.87-3.81 263.87-4.81L263.87-4.81 263.87-21.19Q263.87-22.19 264.25-23.07 264.63-23.95 265.27-24.6 265.92-25.24 266.8-25.62 267.68-26 268.65-26L268.65-26 281.06-26Q282.06-26 282.94-25.62 283.82-25.24 284.46-24.6 285.11-23.95 285.49-23.07 285.87-22.19 285.87-21.19L285.87-21.19ZM281.06-21.19L268.65-21.19 268.65-15.36 281.06-15.36 281.06-21.19ZM293.87-5.81L293.87-21.19Q293.87-22.19 294.25-23.07 294.63-23.95 295.28-24.6 295.92-25.24 296.8-25.62 297.68-26 298.66-26L298.66-26 307.27-26Q308.23-26 309.08-25.65 309.94-25.29 310.58-24.67 311.23-24.05 311.63-23.21 312.04-22.36 312.06-21.41L312.06-21.41 312.06-26 316.87-26 316.87 5.69Q316.87 6.69 316.49 7.57 316.11 8.45 315.47 9.09 314.82 9.74 313.94 10.12 313.06 10.5 312.06 10.5L312.06 10.5 296.87 10.5 296.87 5.69 312.06 5.69 312.06-1 298.66-1Q297.68-1 296.8-1.38 295.92-1.76 295.28-2.4 294.63-3.05 294.25-3.93 293.87-4.81 293.87-5.81L293.87-5.81ZM298.66-5.81L312.06-5.81 312.06-21.19 298.66-21.19 298.66-5.81ZM331.42 10.5L326.63 10.5 332.08-2.34 321.87-26 326.93-26 334.52-8.11 342.11-26 347.16-26 331.42 10.5ZM390.15-21.19L390.15-4.81Q390.15-3.81 389.77-2.93 389.4-2.05 388.75-1.4 388.1-0.76 387.22-0.38 386.34 0 385.34 0L385.34 0 371.94 0Q370.96 0 370.08-0.38 369.21-0.76 368.56-1.4 367.91-2.05 367.53-2.93 367.16-3.81 367.16-4.81L367.16-4.81 367.16-36.01 371.94-36.01 371.94-21.41Q371.99-22.36 372.38-23.21 372.77-24.05 373.42-24.67 374.06-25.29 374.92-25.65 375.77-26 376.75-26L376.75-26 385.34-26Q386.34-26 387.22-25.62 388.1-25.24 388.75-24.6 389.4-23.95 389.77-23.07 390.15-22.19 390.15-21.19L390.15-21.19ZM385.34-21.19L371.94-21.19 371.94-4.81 385.34-4.81 385.34-21.19ZM398.16-4.81L398.16-11.35Q398.16-12.35 398.54-13.22 398.92-14.09 399.56-14.75 400.21-15.41 401.09-15.78 401.97-16.16 402.94-16.16L402.94-16.16 415.35-16.16 415.35-21.19 399.65-21.19 399.65-26 415.35-26Q416.35-26 417.23-25.62 418.1-25.24 418.75-24.6 419.4-23.95 419.78-23.07 420.16-22.19 420.16-21.19L420.16-21.19 420.16 0 415.35 0 415.35-4.39Q415.27-3.49 414.86-2.69 414.44-1.88 413.8-1.28 413.15-0.68 412.32-0.34 411.49 0 410.56 0L410.56 0 402.94 0Q401.97 0 401.09-0.38 400.21-0.76 399.56-1.4 398.92-2.05 398.54-2.93 398.16-3.81 398.16-4.81L398.16-4.81ZM402.94-11.35L402.94-4.81 415.35-4.81 415.35-11.35 402.94-11.35ZM442.86-21.19L432.95-21.19 432.95 0 428.16 0 428.16-26 432.95-26 432.95-21.41Q432.99-22.36 433.39-23.21 433.78-24.05 434.42-24.67 435.07-25.29 435.92-25.65 436.78-26 437.76-26L437.76-26 442.86-26Q443.86-26 444.73-25.62 445.59-25.24 446.25-24.6 446.91-23.95 447.29-23.07 447.67-22.19 447.67-21.19L447.67-21.19 447.67-16.8 442.86-16.8 442.86-21.19ZM476.64-21.19L476.64-4.81Q476.64-3.81 476.27-2.93 475.89-2.05 475.24-1.4 474.59-0.76 473.71-0.38 472.84 0 471.84 0L471.84 0 458.43 0Q457.46 0 456.58-0.38 455.7-0.76 455.05-1.4 454.4-2.05 454.02-2.93 453.65-3.81 453.65-4.81L453.65-4.81 453.65-36.01 458.43-36.01 458.43-21.41Q458.48-22.36 458.87-23.21 459.26-24.05 459.91-24.67 460.56-25.29 461.41-25.65 462.26-26 463.24-26L463.24-26 471.84-26Q472.84-26 473.71-25.62 474.59-25.24 475.24-24.6 475.89-23.95 476.27-23.07 476.64-22.19 476.64-21.19L476.64-21.19ZM471.84-21.19L458.43-21.19 458.43-4.81 471.84-4.81 471.84-21.19ZM506.65-21.19L506.65-10.55 489.44-10.55 489.44-4.81 506.65-4.81 506.65 0 489.44 0Q488.46 0 487.58-0.38 486.7-0.76 486.05-1.4 485.41-2.05 485.03-2.93 484.65-3.81 484.65-4.81L484.65-4.81 484.65-21.19Q484.65-22.19 485.03-23.07 485.41-23.95 486.05-24.6 486.7-25.24 487.58-25.62 488.46-26 489.44-26L489.44-26 501.84-26Q502.84-26 503.72-25.62 504.6-25.24 505.24-24.6 505.89-23.95 506.27-23.07 506.65-22.19 506.65-21.19L506.65-21.19ZM501.84-21.19L489.44-21.19 489.44-15.36 501.84-15.36 501.84-21.19ZM529.35-21.19L519.44-21.19 519.44 0 514.65 0 514.65-26 519.44-26 519.44-21.41Q519.49-22.36 519.88-23.21 520.27-24.05 520.91-24.67 521.56-25.29 522.42-25.65 523.27-26 524.25-26L524.25-26 529.35-26Q530.35-26 531.22-25.62 532.08-25.24 532.74-24.6 533.4-23.95 533.78-23.07 534.16-22.19 534.16-21.19L534.16-21.19 534.16-16.8 529.35-16.8 529.35-21.19ZM539.63-4.81L555.84-4.81 555.84-10.84 544.43-10.84Q543.43-10.84 542.56-11.22 541.68-11.6 541.03-12.24 540.38-12.89 540-13.77 539.63-14.65 539.63-15.65L539.63-15.65 539.63-21.19Q539.63-22.19 540-23.07 540.38-23.95 541.03-24.6 541.68-25.24 542.56-25.62 543.43-26 544.43-26L544.43-26 559.64-26 559.64-21.19 544.43-21.19 544.43-15.65 555.84-15.65Q556.84-15.65 557.7-15.27 558.57-14.89 559.23-14.25 559.89-13.6 560.27-12.72 560.65-11.84 560.65-10.84L560.65-10.84 560.65-4.81Q560.65-3.81 560.27-2.93 559.89-2.05 559.23-1.4 558.57-0.76 557.7-0.38 556.84 0 555.84 0L555.84 0 539.63 0 539.63-4.81ZM591.14-21.19L591.14 0 586.33 0 586.33-21.19 572.92-21.19 572.92 0 568.14 0 568.14-36.01 572.92-36.01 572.92-21.41Q572.97-22.36 573.36-23.21 573.75-24.05 574.4-24.67 575.05-25.29 575.9-25.65 576.76-26 577.73-26L577.73-26 586.33-26Q587.33-26 588.21-25.62 589.09-25.24 589.73-24.6 590.38-23.95 590.76-23.07 591.14-22.19 591.14-21.19L591.14-21.19ZM621.63-21.19L621.63-4.81Q621.63-3.81 621.25-2.93 620.87-2.05 620.22-1.4 619.58-0.76 618.71-0.38 617.84 0 616.84 0L616.84 0 603.93 0Q602.95 0 602.07-0.38 601.19-0.76 600.55-1.4 599.9-2.05 599.52-2.93 599.14-3.81 599.14-4.81L599.14-4.81 599.14-21.19Q599.14-22.19 599.52-23.07 599.9-23.95 600.55-24.6 601.19-25.24 602.07-25.62 602.95-26 603.93-26L603.93-26 616.84-26Q617.84-26 618.71-25.62 619.58-25.24 620.22-24.6 620.87-23.95 621.25-23.07 621.63-22.19 621.63-21.19L621.63-21.19ZM616.84-21.19L603.93-21.19 603.93-4.81 616.84-4.81 616.84-21.19ZM652.63-21.19L652.63-4.81Q652.63-3.81 652.25-2.93 651.87-2.05 651.23-1.4 650.58-0.76 649.7-0.38 648.82 0 647.82 0L647.82 0 634.42 0 634.42 10.5 629.63 10.5 629.63-26 634.42-26 634.42-21.61Q634.49-22.53 634.91-23.33 635.32-24.12 635.96-24.72 636.59-25.32 637.43-25.66 638.28-26 639.23-26L639.23-26 647.82-26Q648.82-26 649.7-25.62 650.58-25.24 651.23-24.6 651.87-23.95 652.25-23.07 652.63-22.19 652.63-21.19L652.63-21.19ZM634.42-4.81L647.82-4.81 647.82-21.19 634.42-21.19 634.42-4.81Z" opacity="1" transform="matrix(1,0,0,1,0,0)" fill="#000000" class="slogan-text-1" data-fill-palette-color="secondary" id="text-1"></path></svg></g></svg></g></svg></g></svg></g></svg></g><defs></defs></svg><rect width="395.5199999999999" height="76.85430217833078" fill="none" stroke="none" visibility="hidden"></rect></g></svg></g></svg>